<svg width="18" height="18" viewBox="0 0 18 18" fill="none" xmlns="http://www.w3.org/2000/svg">
<path fill-rule="evenodd" clip-rule="evenodd" d="M12.5025 9.84741C13.53 10.5449 14.25 11.4899 14.25 12.7499V14.9999H17.25V12.7499C17.25 11.1149 14.5725 10.1474 12.5025 9.84741Z" fill="#53387E"/>
<path d="M6.75 9C8.40685 9 9.75 7.65685 9.75 6C9.75 4.34315 8.40685 3 6.75 3C5.09315 3 3.75 4.34315 3.75 6C3.75 7.65685 5.09315 9 6.75 9Z" fill="#53387E"/>
<path fill-rule="evenodd" clip-rule="evenodd" d="M11.25 9C12.9075 9 14.25 7.6575 14.25 6C14.25 4.3425 12.9075 3 11.25 3C10.8975 3 10.5675 3.075 10.2525 3.18C10.875 3.9525 11.25 4.935 11.25 6C11.25 7.065 10.875 8.0475 10.2525 8.82C10.5675 8.925 10.8975 9 11.25 9Z" fill="#53387E"/>
<path fill-rule="evenodd" clip-rule="evenodd" d="M6.75 9.75C4.7475 9.75 0.75 10.755 0.75 12.75V15H12.75V12.75C12.75 10.755 8.7525 9.75 6.75 9.75Z" fill="#53387E"/>
</svg>
