<svg fill="none" height="21" viewBox="0 0 22 21" width="22" xmlns="http://www.w3.org/2000/svg" xmlns:xlink="http://www.w3.org/1999/xlink"><clipPath id="a"><path d="m.5 0h21v21h-21z"/></clipPath><g clip-path="url(#a)" fill="#fff"><path clip-rule="evenodd" d="m15.0863 11.4895c1.1987.8138 2.0387 1.9163 2.0387 3.3863v2.625h3.5v-2.625c0-1.9075-3.1237-3.0363-5.5387-3.3863z" fill-rule="evenodd"/><path d="m8.375 10.5c1.933 0 3.5-1.567 3.5-3.5s-1.567-3.5-3.5-3.5-3.5 1.567-3.5 3.5 1.567 3.5 3.5 3.5z"/><g clip-rule="evenodd" fill-rule="evenodd"><path d="m13.625 10.5c1.9337 0 3.5-1.56625 3.5-3.5s-1.5663-3.5-3.5-3.5c-.4113 0-.7963.0875-1.1638.21.7263.90125 1.1638 2.0475 1.1638 3.29s-.4375 2.38875-1.1638 3.29c.3675.1225.7525.21 1.1638.21z"/><path d="m8.375 11.375c-2.33625 0-7 1.1725-7 3.5v2.625h14v-2.625c0-2.3275-4.6638-3.5-7-3.5z"/></g></g></svg>