<svg width="223" height="54" viewBox="0 0 223 54" fill="none" xmlns="http://www.w3.org/2000/svg">
<path d="M206.507 4.3086V41.9726C206.507 45.6173 207.501 48.4573 209.489 50.4926C211.477 52.4806 214.294 53.4746 217.938 53.4746C219.642 53.4746 221.275 53.1906 222.837 52.6226L222.482 47.0136C221.441 47.4869 220.329 47.7236 219.145 47.7236C217.205 47.7236 215.737 47.1793 214.743 46.0906C213.797 45.0019 213.323 43.4399 213.323 41.4046V0.373383L206.507 4.3086Z" fill="white"/>
<path d="M104.556 52.8356C106.024 52.3623 107.254 51.6996 108.248 50.8476L106.118 45.9486C104.651 47.1319 102.876 47.7236 100.793 47.7236C98.9001 47.7236 97.4328 47.1793 96.3915 46.0906C95.3975 45.0019 94.9005 43.4399 94.9005 41.4046V21.0276H105.692V15.4186H94.9005V7.18638L88.0845 11.1216V41.6886C88.0845 45.4753 89.1258 48.3863 91.2085 50.4216C93.2911 52.4569 96.2258 53.4746 100.012 53.4746C101.574 53.4746 103.089 53.2616 104.556 52.8356Z" fill="white"/>
<path fill-rule="evenodd" clip-rule="evenodd" d="M32.9108 21.0986L32.9035 21.089C31.3901 19.1058 29.4992 17.618 27.2308 16.6256C24.9588 15.5843 22.4738 15.0636 19.7758 15.0636C16.1311 15.0636 12.8651 15.8683 9.9778 17.4776C7.09047 19.0869 4.81847 21.3353 3.1618 24.2226C1.55247 27.1099 0.747803 30.4469 0.747803 34.2336C0.747803 38.0203 1.55247 41.3809 3.1618 44.3156C4.81847 47.2029 7.09047 49.4513 9.9778 51.0606C12.8651 52.6699 16.1311 53.4746 19.7758 53.4746C22.5685 53.4746 25.1245 52.9303 27.4438 51.8416C29.7631 50.7529 31.6801 49.1673 33.1948 47.0846V53.0486H39.7268V17.1561L32.9108 21.0913V21.0986ZM20.3438 47.5106C22.7105 47.5106 24.8641 46.9663 26.8048 45.8776C28.7455 44.7416 30.2601 43.1796 31.3488 41.1916C32.4375 39.1563 32.9818 36.8369 32.9818 34.2336C32.9818 31.6303 32.4375 29.3346 31.3488 27.3466C30.2601 25.3113 28.7455 23.7493 26.8048 22.6606C24.8641 21.5719 22.7105 21.0276 20.3438 21.0276C17.9298 21.0276 15.7525 21.5719 13.8118 22.6606C11.9185 23.7493 10.4038 25.3113 9.2678 27.3466C8.17914 29.3346 7.6348 31.6303 7.6348 34.2336C7.6348 36.8369 8.17914 39.1563 9.2678 41.1916C10.4038 43.1796 11.9185 44.7416 13.8118 45.8776C15.7525 46.9663 17.9298 47.5106 20.3438 47.5106Z" fill="white"/>
<path d="M66.8943 53.4746C63.0603 53.4746 59.6286 52.6463 56.5993 50.9896C53.6173 49.3329 51.2743 47.0609 49.5703 44.1736C47.8663 41.2389 47.0143 37.9256 47.0143 34.2336C47.0143 30.5416 47.8663 27.2519 49.5703 24.3646C51.2743 21.4299 53.6173 19.1579 56.5993 17.5486C59.6286 15.8919 63.0603 15.0636 66.8943 15.0636C70.3023 15.0636 73.3316 15.7499 75.9823 17.1226C78.6803 18.4953 80.763 20.4833 82.2303 23.0866L77.0473 26.4236C75.864 24.6249 74.3966 23.2759 72.6453 22.3766C70.894 21.4773 68.9533 21.0276 66.8233 21.0276C64.362 21.0276 62.1373 21.5719 60.1493 22.6606C58.2086 23.7493 56.6703 25.3113 55.5343 27.3466C54.4456 29.3346 53.9013 31.6303 53.9013 34.2336C53.9013 36.8843 54.4456 39.2273 55.5343 41.2626C56.6703 43.2506 58.2086 44.7889 60.1493 45.8776C62.1373 46.9663 64.362 47.5106 66.8233 47.5106C68.9533 47.5106 70.894 47.0609 72.6453 46.1616C74.3966 45.2623 75.864 43.9133 77.0473 42.1146L82.2303 45.3806C80.763 47.9839 78.6803 49.9956 75.9823 51.4156C73.3316 52.7883 70.3023 53.4746 66.8943 53.4746Z" fill="white"/>
<path d="M149.395 15.4186V53.0486H142.934V47.3686C141.562 49.3093 139.739 50.8239 137.467 51.9126C135.243 52.9539 132.805 53.4746 130.154 53.4746C125.137 53.4746 121.185 52.1019 118.297 49.3566C115.41 46.5639 113.966 42.4696 113.966 37.0736V15.4186H120.782V36.2926C120.782 39.9373 121.658 42.7063 123.409 44.5996C125.161 46.4456 127.669 47.3686 130.935 47.3686C134.533 47.3686 137.373 46.2799 139.455 44.1026C141.538 41.9253 142.579 38.8486 142.579 34.8726V15.4186H149.395Z" fill="white"/>
<path fill-rule="evenodd" clip-rule="evenodd" d="M195.741 53.0486V17.1712L188.926 21.1059L188.911 21.0804C187.399 19.1015 185.51 17.6166 183.245 16.6256C180.973 15.5843 178.488 15.0636 175.79 15.0636C172.145 15.0636 168.879 15.8683 165.992 17.4776C163.105 19.0869 160.833 21.3353 159.176 24.2226C157.567 27.1099 156.762 30.4469 156.762 34.2336C156.762 38.0203 157.567 41.3809 159.176 44.3156C160.833 47.2029 163.105 49.4513 165.992 51.0606C168.879 52.6699 172.145 53.4746 175.79 53.4746C178.583 53.4746 181.139 52.9303 183.458 51.8416C185.777 50.7529 187.694 49.1673 189.209 47.0846V53.0486H195.741ZM182.819 45.8776C180.878 46.9663 178.725 47.5106 176.358 47.5106C173.944 47.5106 171.767 46.9663 169.826 45.8776C167.933 44.7416 166.418 43.1796 165.282 41.1916C164.193 39.1563 163.649 36.8369 163.649 34.2336C163.649 31.6303 164.193 29.3346 165.282 27.3466C166.418 25.3113 167.933 23.7493 169.826 22.6606C171.767 21.5719 173.944 21.0276 176.358 21.0276C178.725 21.0276 180.878 21.5719 182.819 22.6606C184.76 23.7493 186.274 25.3113 187.363 27.3466C188.452 29.3346 188.996 31.6303 188.996 34.2336C188.996 36.8369 188.452 39.1563 187.363 41.1916C186.274 43.1796 184.76 44.7416 182.819 45.8776Z" fill="white"/>
</svg>
