<svg width="150" height="44" viewBox="0 0 150 44" fill="none" xmlns="http://www.w3.org/2000/svg">
<path d="M142.015 7.79982V25.8671C142.015 27.6154 142.49 28.9777 143.438 29.9541C144.387 30.9077 145.732 31.3845 147.472 31.3845C148.285 31.3845 149.064 31.2483 149.81 30.9758L149.641 28.2852C149.144 28.5123 148.613 28.6258 148.048 28.6258C147.121 28.6258 146.421 28.3647 145.946 27.8424C145.495 27.3202 145.269 26.5709 145.269 25.5946V5.91211L142.015 7.79982Z" fill="white"/>
<path fill-rule="evenodd" clip-rule="evenodd" d="M59.1497 15.8539L59.1462 15.8493C58.4238 14.898 57.5212 14.1843 56.4384 13.7082C55.3539 13.2087 54.1677 12.9589 52.8798 12.9589C51.14 12.9589 49.581 13.3449 48.2028 14.1169C46.8245 14.8889 45.74 15.9674 44.9492 17.3525C44.181 18.7375 43.7969 20.3383 43.7969 22.1547C43.7969 23.9711 44.181 25.5832 44.9492 26.991C45.74 28.376 46.8245 29.4545 48.2028 30.2265C49.581 30.9985 51.14 31.3845 52.8798 31.3845C54.2128 31.3845 55.4329 31.1234 56.5401 30.6012C57.6472 30.0789 58.5622 29.3183 59.2853 28.3193V31.1802H62.4033V13.9627L59.1497 15.8504V15.8539ZM53.1509 28.5236C54.2806 28.5236 55.3087 28.2625 56.235 27.7403C57.1614 27.1953 57.8844 26.4461 58.4041 25.4924C58.9237 24.5161 59.1836 23.4035 59.1836 22.1547C59.1836 20.9059 58.9237 19.8047 58.4041 18.851C57.8844 17.8747 57.1614 17.1254 56.235 16.6032C55.3087 16.081 54.2806 15.8198 53.1509 15.8198C51.9986 15.8198 50.9593 16.081 50.0329 16.6032C49.1291 17.1254 48.4061 17.8747 47.8638 18.851C47.3442 19.8047 47.0843 20.9059 47.0843 22.1547C47.0843 23.4035 47.3442 24.5161 47.8638 25.4924C48.4061 26.4461 49.1291 27.1953 50.0329 27.7403C50.9593 28.2625 51.9986 28.5236 53.1509 28.5236Z" fill="white"/>
<path d="M75.3715 31.3845C73.5414 31.3845 71.9033 30.9872 70.4572 30.1925C69.0338 29.3978 67.9154 28.3079 67.102 26.9229C66.2886 25.5151 65.8819 23.9257 65.8819 22.1547C65.8819 20.3837 66.2886 18.8056 67.102 17.4206C67.9154 16.0128 69.0338 14.923 70.4572 14.151C71.9033 13.3563 73.5414 12.9589 75.3715 12.9589C76.9983 12.9589 78.4443 13.2882 79.7096 13.9466C80.9975 14.6051 81.9916 15.5587 82.6921 16.8075L80.218 18.4083C79.6531 17.5455 78.9527 16.8984 78.1167 16.4669C77.2807 16.0355 76.3544 15.8198 75.3376 15.8198C74.1627 15.8198 73.1008 16.081 72.1518 16.6032C71.2255 17.1254 70.4911 17.8747 69.9489 18.851C69.4292 19.8047 69.1694 20.9059 69.1694 22.1547C69.1694 23.4262 69.4292 24.5501 69.9489 25.5265C70.4911 26.4801 71.2255 27.218 72.1518 27.7403C73.1008 28.2625 74.1627 28.5236 75.3376 28.5236C76.3544 28.5236 77.2807 28.3079 78.1167 27.8765C78.9527 27.4451 79.6531 26.798 80.218 25.9352L82.6921 27.5019C81.9916 28.7507 80.9975 29.7157 79.7096 30.3968C78.4443 31.0553 76.9983 31.3845 75.3715 31.3845Z" fill="white"/>
<path d="M95.1117 30.1244C94.6372 30.5331 94.0497 30.8509 93.3493 31.078C92.6489 31.2823 91.9259 31.3845 91.1803 31.3845C89.3727 31.3845 87.9719 30.8964 86.9777 29.92C85.9836 28.9437 85.4865 27.5473 85.4865 25.7308V11.068L88.7401 9.18027V13.1292H93.8916V15.8198H88.7401V25.5946C88.7401 26.5709 88.9773 27.3202 89.4518 27.8424C89.9489 28.3647 90.6493 28.6258 91.5531 28.6258C92.5472 28.6258 93.3945 28.342 94.0949 27.7743L95.1117 30.1244Z" fill="white"/>
<path d="M114.753 31.1802H111.669V28.4555C111.013 29.3864 110.144 30.113 109.059 30.6352C107.997 31.1348 106.834 31.3845 105.568 31.3845C103.173 31.3845 101.287 30.7261 99.9084 29.4091C98.5301 28.0695 97.841 26.1055 97.841 23.517V13.1292H101.095V23.1424C101.095 24.8907 101.513 26.219 102.349 27.1272C103.185 28.0127 104.382 28.4555 105.941 28.4555C107.658 28.4555 109.014 27.9333 110.008 26.8888C111.002 25.8444 111.499 24.3685 111.499 22.4612V13.1292H114.753V31.1802Z" fill="white"/>
<path fill-rule="evenodd" clip-rule="evenodd" d="M136.876 31.1802H133.758V28.3193C133.035 29.3183 132.12 30.0789 131.012 30.6012C129.905 31.1234 128.685 31.3845 127.352 31.3845C125.612 31.3845 124.053 30.9985 122.675 30.2265C121.297 29.4545 120.212 28.376 119.422 26.991C118.653 25.5832 118.269 23.9711 118.269 22.1547C118.269 20.3383 118.653 18.7375 119.422 17.3525C120.212 15.9674 121.297 14.8889 122.675 14.1169C124.053 13.3449 125.612 12.9589 127.352 12.9589C128.64 12.9589 129.826 13.2087 130.911 13.7082C131.992 14.1836 132.894 14.8959 133.616 15.8452L133.623 15.8574L136.876 13.9699V31.1802ZM127.623 28.5236C128.753 28.5236 129.781 28.2625 130.707 27.7403C131.634 27.1953 132.357 26.4461 132.877 25.4924C133.396 24.5161 133.656 23.4035 133.656 22.1547C133.656 20.9059 133.396 19.8047 132.877 18.851C132.357 17.8747 131.634 17.1254 130.707 16.6032C129.781 16.081 128.753 15.8198 127.623 15.8198C126.471 15.8198 125.432 16.081 124.505 16.6032C123.602 17.1254 122.879 17.8747 122.336 18.851C121.817 19.8047 121.557 20.9059 121.557 22.1547C121.557 23.4035 121.817 24.5161 122.336 25.4924C122.879 26.4461 123.602 27.1953 124.505 27.7403C125.432 28.2625 126.471 28.5236 127.623 28.5236Z" fill="white"/>
<path d="M6.46533 3.75162C4.45297 2.58406 2.13564 4.70106 3.10095 6.82515L14.7318 32.4181C15.3167 33.705 16.8771 34.2063 18.0962 33.4989L34.3363 24.0765C35.9274 23.1533 35.9274 20.8454 34.3363 19.9222L6.46533 3.75162Z" fill="url(#paint0_linear_1910_50347)"/>
<path d="M6.46533 40.2481C4.45297 41.4157 2.13564 39.2987 3.10095 37.1746L15.8225 9.18164L34.3363 19.9232C35.9274 20.8464 35.9274 23.1543 34.3363 24.0775L6.46533 40.2481Z" fill="url(#paint1_linear_1910_50347)"/>
<g style="mix-blend-mode:screen">
<path d="M6.46533 3.75162C4.45297 2.58406 2.13564 4.70106 3.10095 6.82515L14.7318 32.4181C15.3167 33.705 16.8771 34.2063 18.0962 33.4989L34.3363 24.0765C35.9274 23.1533 35.9274 20.8454 34.3363 19.9222L6.46533 3.75162Z" fill="#01ABA1"/>
<path d="M6.46533 40.2481C4.45297 41.4157 2.13564 39.2987 3.10095 37.1746L15.8225 9.18164L34.3363 19.9232C35.9274 20.8464 35.9274 23.1543 34.3363 24.0775L6.46533 40.2481Z" fill="#01ABA1"/>
</g>
<defs>
<linearGradient id="paint0_linear_1910_50347" x1="13.6041" y1="17.2683" x2="3.99209" y2="2.92101" gradientUnits="userSpaceOnUse">
<stop/>
<stop offset="1" stop-color="#B0B0B0"/>
</linearGradient>
<linearGradient id="paint1_linear_1910_50347" x1="5.01186" y1="40.2925" x2="21.6046" y2="10.3805" gradientUnits="userSpaceOnUse">
<stop/>
<stop offset="1" stop-color="#B0B0B0"/>
</linearGradient>
</defs>
</svg>
