<svg viewBox="0 0 20 20" fill="none" xmlns="http://www.w3.org/2000/svg">
<path d="M2.66634 19.1654C2.16217 19.1654 1.73058 18.9858 1.37155 18.6268C1.01252 18.2678 0.833008 17.8362 0.833008 17.332V7.2487C0.833008 6.74453 1.01252 6.31293 1.37155 5.95391C1.73058 5.59488 2.16217 5.41536 2.66634 5.41536H7.24967V2.66536C7.24967 2.1612 7.42919 1.7296 7.78822 1.37057C8.14724 1.01155 8.57884 0.832031 9.08301 0.832031H10.9163C11.4205 0.832031 11.8521 1.01155 12.2111 1.37057C12.5702 1.7296 12.7497 2.1612 12.7497 2.66536V5.41536H17.333C17.8372 5.41536 18.2688 5.59488 18.6278 5.95391C18.9868 6.31293 19.1663 6.74453 19.1663 7.2487V17.332C19.1663 17.8362 18.9868 18.2678 18.6278 18.6268C18.2688 18.9858 17.8372 19.1654 17.333 19.1654H2.66634ZM4.49967 15.4987H9.99967V15.0862C9.99967 14.8265 9.9271 14.5858 9.78197 14.3643C9.63683 14.1428 9.4344 13.9709 9.17467 13.8487C8.86912 13.7112 8.55974 13.6081 8.24655 13.5393C7.93336 13.4706 7.60106 13.4362 7.24967 13.4362C6.89829 13.4362 6.56599 13.4706 6.2528 13.5393C5.9396 13.6081 5.63023 13.7112 5.32467 13.8487C5.06495 13.9709 4.86252 14.1428 4.71738 14.3643C4.57224 14.5858 4.49967 14.8265 4.49967 15.0862V15.4987ZM11.833 14.1237H15.4997V12.7487H11.833V14.1237ZM7.24967 12.7487C7.63162 12.7487 7.95627 12.615 8.22363 12.3477C8.49099 12.0803 8.62467 11.7556 8.62467 11.3737C8.62467 10.9918 8.49099 10.6671 8.22363 10.3997C7.95627 10.1324 7.63162 9.9987 7.24967 9.9987C6.86773 9.9987 6.54308 10.1324 6.27572 10.3997C6.00835 10.6671 5.87467 10.9918 5.87467 11.3737C5.87467 11.7556 6.00835 12.0803 6.27572 12.3477C6.54308 12.615 6.86773 12.7487 7.24967 12.7487ZM11.833 11.3737H15.4997V9.9987H11.833V11.3737ZM9.08301 7.2487H10.9163V2.66536H9.08301V7.2487Z" />
</svg>
