<svg viewBox="0 0 18 19" fill="none" xmlns="http://www.w3.org/2000/svg">
<path d="M2.58333 18.4154C2.07917 18.4154 1.64757 18.2359 1.28854 17.8768C0.929514 17.5178 0.75 17.0862 0.75 16.582V3.7487C0.75 3.24453 0.929514 2.81293 1.28854 2.45391C1.64757 2.09488 2.07917 1.91536 2.58333 1.91536H6.43333C6.63194 1.36536 6.96424 0.922309 7.43021 0.586198C7.89618 0.250087 8.41944 0.0820312 9 0.0820312C9.58056 0.0820312 10.1038 0.250087 10.5698 0.586198C11.0358 0.922309 11.3681 1.36536 11.5667 1.91536H15.4167C15.9208 1.91536 16.3524 2.09488 16.7115 2.45391C17.0705 2.81293 17.25 3.24453 17.25 3.7487V16.582C17.25 17.0862 17.0705 17.5178 16.7115 17.8768C16.3524 18.2359 15.9208 18.4154 15.4167 18.4154H2.58333ZM4.41667 14.7487H10.8333V12.9154H4.41667V14.7487ZM4.41667 11.082H13.5833V9.2487H4.41667V11.082ZM4.41667 7.41536H13.5833V5.58203H4.41667V7.41536ZM9 3.0612C9.19861 3.0612 9.36285 2.99627 9.49271 2.86641C9.62257 2.73655 9.6875 2.57231 9.6875 2.3737C9.6875 2.17509 9.62257 2.01085 9.49271 1.88099C9.36285 1.75113 9.19861 1.6862 9 1.6862C8.80139 1.6862 8.63715 1.75113 8.50729 1.88099C8.37743 2.01085 8.3125 2.17509 8.3125 2.3737C8.3125 2.57231 8.37743 2.73655 8.50729 2.86641C8.63715 2.99627 8.80139 3.0612 9 3.0612Z" />
</svg>
