<svg viewBox="0 0 21 21" fill="none" xmlns="http://www.w3.org/2000/svg">
<path d="M4.1 15.6C4.95 14.95 5.9 14.4375 6.95 14.0625C8 13.6875 9.1 13.5 10.25 13.5C11.4 13.5 12.5 13.6875 13.55 14.0625C14.6 14.4375 15.55 14.95 16.4 15.6C16.9833 14.9167 17.4375 14.1417 17.7625 13.275C18.0875 12.4083 18.25 11.4833 18.25 10.5C18.25 8.28333 17.4708 6.39583 15.9125 4.8375C14.3542 3.27917 12.4667 2.5 10.25 2.5C8.03333 2.5 6.14583 3.27917 4.5875 4.8375C3.02917 6.39583 2.25 8.28333 2.25 10.5C2.25 11.4833 2.4125 12.4083 2.7375 13.275C3.0625 14.1417 3.51667 14.9167 4.1 15.6ZM10.25 11.5C9.26667 11.5 8.4375 11.1625 7.7625 10.4875C7.0875 9.8125 6.75 8.98333 6.75 8C6.75 7.01667 7.0875 6.1875 7.7625 5.5125C8.4375 4.8375 9.26667 4.5 10.25 4.5C11.2333 4.5 12.0625 4.8375 12.7375 5.5125C13.4125 6.1875 13.75 7.01667 13.75 8C13.75 8.98333 13.4125 9.8125 12.7375 10.4875C12.0625 11.1625 11.2333 11.5 10.25 11.5ZM10.25 20.5C8.86667 20.5 7.56667 20.2375 6.35 19.7125C5.13333 19.1875 4.075 18.475 3.175 17.575C2.275 16.675 1.5625 15.6167 1.0375 14.4C0.5125 13.1833 0.25 11.8833 0.25 10.5C0.25 9.11667 0.5125 7.81667 1.0375 6.6C1.5625 5.38333 2.275 4.325 3.175 3.425C4.075 2.525 5.13333 1.8125 6.35 1.2875C7.56667 0.7625 8.86667 0.5 10.25 0.5C11.6333 0.5 12.9333 0.7625 14.15 1.2875C15.3667 1.8125 16.425 2.525 17.325 3.425C18.225 4.325 18.9375 5.38333 19.4625 6.6C19.9875 7.81667 20.25 9.11667 20.25 10.5C20.25 11.8833 19.9875 13.1833 19.4625 14.4C18.9375 15.6167 18.225 16.675 17.325 17.575C16.425 18.475 15.3667 19.1875 14.15 19.7125C12.9333 20.2375 11.6333 20.5 10.25 20.5Z" />
</svg>
