<svg viewBox="0 0 20 21" fill="none" xmlns="http://www.w3.org/2000/svg">
<path d="M2.58333 19.1654C2.07917 19.1654 1.64757 18.9859 1.28854 18.6268C0.929514 18.2678 0.75 17.8362 0.75 17.332V4.4987C0.75 3.99453 0.929514 3.56293 1.28854 3.20391C1.64757 2.84488 2.07917 2.66536 2.58333 2.66536H3.5V0.832031H5.33333V2.66536H12.6667V0.832031H14.5V2.66536H15.4167C15.9208 2.66536 16.3524 2.84488 16.7115 3.20391C17.0705 3.56293 17.25 3.99453 17.25 4.4987V9.9987H15.4167V8.16536H2.58333V17.332H9V19.1654H2.58333ZM18.2812 14.582L16.3333 12.6341L16.9979 11.9695C17.166 11.8015 17.3799 11.7174 17.6396 11.7174C17.8993 11.7174 18.1132 11.8015 18.2812 11.9695L18.9458 12.6341C19.1139 12.8022 19.1979 13.0161 19.1979 13.2758C19.1979 13.5355 19.1139 13.7494 18.9458 13.9174L18.2812 14.582ZM10.8333 20.082V18.1341L15.6917 13.2758L17.6396 15.2237L12.7812 20.082H10.8333Z" />
</svg>
