<svg width="595" height="594" viewBox="0 0 595 594" fill="none" xmlns="http://www.w3.org/2000/svg">
<g filter="url(#filter0_d_90_13895)">
<ellipse cx="297.5" cy="297" rx="117.5" ry="117" fill="black"/>
</g>
<g filter="url(#filter1_d_90_13895)">
<ellipse cx="297.5" cy="297" rx="117.5" ry="117" fill="black"/>
</g>
<g opacity="0.3">
<path opacity="0.111111" d="M454.739 458.311L455.563 457.978L455.23 457.154L441.744 423.775L441.411 422.951L440.587 423.284L412.706 434.549L404.408 414.011L404.075 413.187L403.251 413.52L377.215 424.039L376.391 424.372L376.724 425.196L385.022 445.734L283.708 486.668L282.883 487.001L283.216 487.825L294.544 515.863L294.718 516.293L295.171 516.396L428.621 546.863L428.893 546.926L429.152 546.821L453.185 537.111L454.009 536.778L453.676 535.954L426.857 469.576L454.739 458.311ZM399.174 480.761L413.05 515.106L349.492 500.833L399.174 480.761ZM294.741 62.3022L295.565 61.9692L295.232 61.145L281.746 27.7664L281.413 26.9422L280.589 27.2752L252.708 38.54L244.41 18.0019L244.077 17.1777L243.253 17.5107L217.217 28.0296L216.393 28.3626L216.726 29.1868L225.024 49.725L123.71 90.6586L122.885 90.9916L123.218 91.8158L134.546 119.854L134.72 120.284L135.173 120.387L268.623 150.854L268.895 150.917L269.154 150.812L293.187 141.102L294.011 140.769L293.678 139.945L266.859 73.567L294.741 62.3022ZM239.176 84.7519L253.052 119.098L189.494 104.825L239.176 84.7519Z" fill="#492E76" stroke="#030109" stroke-width="1.77778"/>
<path opacity="0.222222" d="M411.155 491.223L411.925 491.115L411.817 490.344L406.807 454.695L406.699 453.925L405.929 454.033L376.04 458.233L372.942 436.188L372.833 435.418L372.063 435.526L344.257 439.434L343.486 439.542L343.595 440.312L346.693 462.358L238.375 477.581L237.605 477.689L237.713 478.459L241.922 508.405L241.978 508.807L242.341 508.991L364.456 570.837L364.674 570.948L364.916 570.914L390.584 567.306L391.354 567.198L391.246 566.428L381.267 495.423L411.155 491.223ZM351.92 499.548L357.12 536.55L298.395 507.07L351.92 499.548ZM351.713 68.2701L352.483 68.1618L352.375 67.3916L347.365 31.742L347.257 30.9718L346.486 31.08L316.598 35.2806L313.5 13.235L313.391 12.4648L312.621 12.573L284.814 16.481L284.044 16.5892L284.152 17.3594L287.251 39.4051L178.933 54.6281L178.163 54.7364L178.271 55.5066L182.48 85.4523L182.536 85.8544L182.898 86.0379L305.014 147.885L305.232 147.995L305.474 147.961L331.142 144.354L331.912 144.245L331.804 143.475L321.825 72.4706L351.713 68.2701ZM292.477 76.5951L297.678 113.598L238.953 84.1175L292.477 76.5951Z" fill="#604887" stroke="#070213" stroke-width="1.55556"/>
<path opacity="0.333333" d="M360.931 512.613L361.594 512.682L361.664 512.019L365.427 476.216L365.497 475.553L364.834 475.484L334.706 472.317L337.045 450.066L337.115 449.403L336.452 449.334L308.525 446.399L307.862 446.329L307.793 446.992L305.454 469.243L196.561 457.798L195.898 457.728L195.828 458.391L192.667 488.465L192.631 488.811L192.894 489.039L296.42 578.591L296.578 578.728L296.787 578.75L322.565 581.459L323.228 581.529L323.297 580.866L330.804 509.446L360.931 512.613ZM301.552 506.372L297.612 543.854L247.333 500.673L301.552 506.372ZM405.576 87.843L406.239 87.9127L406.309 87.2497L410.072 51.4469L410.142 50.7838L409.479 50.7141L379.351 47.5476L381.69 25.2968L381.76 24.6338L381.097 24.5641L353.171 21.629L352.507 21.5593L352.438 22.2223L350.099 44.4731L241.206 33.0279L240.543 32.9582L240.473 33.6213L237.312 63.6956L237.276 64.0418L237.539 64.2695L341.065 153.822L341.224 153.958L341.432 153.98L367.21 156.69L367.873 156.759L367.942 156.096L375.449 84.6765L405.576 87.843ZM346.197 81.6019L342.257 119.084L291.978 75.9033L346.197 81.6019Z" fill="#766298" stroke="#0A031C" stroke-width="1.33333"/>
<path opacity="0.444444" d="M307.051 521.223L307.573 521.413L307.763 520.891L320.076 487.062L320.266 486.54L319.744 486.35L291.173 475.951L298.863 454.822L299.053 454.3L298.531 454.11L272.144 444.506L271.622 444.316L271.432 444.838L263.742 465.967L160.748 428.48L160.226 428.29L160.035 428.812L149.693 457.228L149.594 457.501L149.761 457.738L228.547 569.675L228.648 569.818L228.811 569.878L253.168 578.743L253.69 578.933L253.88 578.411L278.48 510.824L307.051 521.223ZM251.049 500.84L238.048 536.56L199.38 482.034L251.049 500.84ZM453.131 119.871L453.653 120.061L453.843 119.539L466.156 85.7104L466.346 85.1884L465.824 84.9984L437.253 74.5994L444.943 53.4709L445.133 52.9489L444.611 52.7589L418.224 43.1549L417.702 42.9649L417.512 43.487L409.822 64.6155L306.828 27.1285L306.306 26.9385L306.116 27.4606L295.773 55.8769L295.674 56.1494L295.841 56.3866L374.627 168.324L374.728 168.467L374.891 168.526L399.248 177.391L399.77 177.581L399.96 177.059L424.56 109.472L453.131 119.871ZM397.129 99.4885L384.128 135.208L345.46 80.6826L397.129 99.4885Z" fill="#8D7CA9" stroke="#0E0426" stroke-width="1.11111"/>
<path opacity="0.555556" d="M252.712 516.555L253.08 516.803L253.329 516.435L273.46 486.59L273.708 486.221L273.34 485.973L248.041 468.908L260.677 450.176L260.925 449.807L260.557 449.559L237.277 433.857L236.909 433.608L236.66 433.977L224.025 452.709L133.067 391.357L132.698 391.109L132.45 391.477L115.54 416.547L115.41 416.739L115.494 416.956L164.86 544.628L164.91 544.759L165.026 544.837L186.515 559.331L186.883 559.579L187.132 559.211L227.413 499.491L252.712 516.555ZM203.397 483.292L181.96 515.073L157.425 452.283L203.397 483.292ZM491.549 162.465L491.917 162.714L492.166 162.345L512.296 132.5L512.545 132.131L512.177 131.883L486.878 114.819L499.513 96.0861L499.762 95.7177L499.393 95.4691L476.114 79.767L475.746 79.5185L475.497 79.8869L462.862 98.6195L371.903 37.2674L371.535 37.0188L371.286 37.3873L354.376 62.4574L354.247 62.6498L354.33 62.8662L403.697 190.539L403.747 190.669L403.863 190.747L425.351 205.241L425.72 205.49L425.968 205.121L466.25 145.401L491.549 162.465ZM442.234 129.202L420.797 160.983L396.262 98.1935L442.234 129.202Z" fill="#A497BB" stroke="#11042F" stroke-width="0.888889"/>
<path opacity="0.666667" d="M201.137 498.897L201.36 499.145L201.608 498.922L228.361 474.833L228.609 474.61L228.386 474.363L207.892 451.603L224.767 436.409L225.015 436.186L224.792 435.938L206.002 415.071L205.779 414.823L205.532 415.046L188.657 430.24L115.169 348.623L114.946 348.375L114.698 348.598L92.2254 368.832L92.096 368.949L92.1177 369.122L109.131 504.944L109.144 505.048L109.214 505.126L126.558 524.388L126.781 524.636L127.028 524.413L180.644 476.137L201.137 498.897ZM161.409 454.774L132.68 480.642L123.991 413.218L161.409 454.774ZM518.541 213.105L518.764 213.353L519.012 213.13L545.765 189.041L546.013 188.818L545.79 188.571L525.297 165.811L542.171 150.617L542.419 150.394L542.196 150.146L523.406 129.279L523.183 129.031L522.936 129.254L506.061 144.448L432.573 62.8306L432.35 62.5829L432.102 62.8059L409.629 83.0404L409.5 83.1569L409.522 83.3296L426.535 219.152L426.548 219.256L426.618 219.334L443.962 238.596L444.185 238.844L444.433 238.621L498.048 190.345L518.541 213.105ZM478.813 168.982L450.084 194.85L441.395 127.426L478.813 168.982Z" fill="#BBB1CC" stroke="#150539" stroke-width="0.666667"/>
<path opacity="0.777778" d="M155.381 469.309L155.486 469.506L155.682 469.401L187.468 452.5L187.664 452.396L187.56 452.2L173.129 425.06L193.276 414.348L193.473 414.243L193.368 414.047L180.185 389.254L180.081 389.058L179.885 389.162L159.738 399.874L108.125 302.805L108.021 302.609L107.825 302.713L81.1244 316.91L81.022 316.964L81.0081 317.08L64.6573 452.984L64.649 453.053L64.6818 453.115L76.8505 476.001L76.9548 476.197L77.151 476.093L140.951 442.17L155.381 469.309ZM127.559 416.984L93.1412 435.284L101.088 367.198L127.559 416.984ZM532.497 268.794L532.601 268.99L532.797 268.886L564.583 251.985L564.779 251.88L564.675 251.684L550.245 224.544L570.391 213.832L570.588 213.728L570.483 213.531L557.301 188.738L557.196 188.542L557 188.646L536.853 199.359L485.24 102.289L485.136 102.093L484.94 102.197L458.24 116.394L458.137 116.449L458.123 116.564L441.773 252.468L441.764 252.537L441.797 252.599L453.966 275.485L454.07 275.681L454.266 275.577L518.066 241.654L532.497 268.794ZM504.675 216.468L470.256 234.769L478.203 166.682L504.675 216.468Z" fill="#D1CBDD" stroke="#180642" stroke-width="0.444444"/>
<path opacity="0.888889" d="M118.152 429.557L118.179 429.664L118.287 429.637L153.218 420.928L153.326 420.901L153.299 420.794L145.836 390.861L168.083 385.314L168.191 385.287L168.164 385.179L161.371 357.933L161.344 357.826L161.237 357.853L138.989 363.4L112.366 256.62L112.339 256.512L112.231 256.539L82.8891 263.854L82.8328 263.868L82.8121 263.923L34.0688 391.834L34.0564 391.867L34.0649 391.901L40.3355 417.051L40.3624 417.159L40.4702 417.132L110.689 399.624L118.152 429.557ZM103.842 372.162L65.706 381.671L90.0883 316.998L103.842 372.162ZM532.575 326.229L532.602 326.337L532.709 326.31L567.64 317.601L567.748 317.574L567.721 317.467L560.258 287.534L582.506 281.987L582.614 281.96L582.587 281.852L575.794 254.606L575.767 254.499L575.659 254.525L553.411 260.072L526.788 153.292L526.761 153.185L526.653 153.212L497.311 160.527L497.255 160.541L497.234 160.595L448.491 288.507L448.479 288.54L448.487 288.574L454.758 313.724L454.785 313.831L454.893 313.805L525.112 296.297L532.575 326.229ZM518.265 268.835L480.128 278.344L504.511 213.67L518.265 268.835Z" fill="#E8E5EE" stroke="#1C074C" stroke-width="0.222222"/>
</g>
<path d="M91.6498 382.005V351.045H19.1698V325.125L97.4098 212.805H127.65V322.965H150.69V351.045H127.65V382.005H91.6498ZM91.6498 322.965V265.644L52.0228 322.965H91.6498ZM518.759 382.005V351.045H446.279V325.125L524.519 212.805H554.759V322.965H577.799V351.045H554.759V382.005H518.759ZM518.759 322.965V265.644L479.132 322.965H518.759Z" fill="white"/>
<path d="M91.6498 382.005V351.045H19.1698V325.125L97.4098 212.805H127.65V322.965H150.69V351.045H127.65V382.005H91.6498ZM91.6498 322.965V265.644L52.0228 322.965H91.6498ZM518.759 382.005V351.045H446.279V325.125L524.519 212.805H554.759V322.965H577.799V351.045H554.759V382.005H518.759ZM518.759 322.965V265.644L479.132 322.965H518.759Z" stroke="#1F0855"/>
<defs>
<filter id="filter0_d_90_13895" x="0" y="0" width="595" height="594" filterUnits="userSpaceOnUse" color-interpolation-filters="sRGB">
<feFlood flood-opacity="0" result="BackgroundImageFix"/>
<feColorMatrix in="SourceAlpha" type="matrix" values="0 0 0 0 0 0 0 0 0 0 0 0 0 0 0 0 0 0 127 0" result="hardAlpha"/>
<feOffset/>
<feGaussianBlur stdDeviation="90"/>
<feComposite in2="hardAlpha" operator="out"/>
<feColorMatrix type="matrix" values="0 0 0 0 0.560575 0 0 0 0 0.399392 0 0 0 0 0.895833 0 0 0 0.2 0"/>
<feBlend mode="normal" in2="BackgroundImageFix" result="effect1_dropShadow_90_13895"/>
<feBlend mode="normal" in="SourceGraphic" in2="effect1_dropShadow_90_13895" result="shape"/>
</filter>
<filter id="filter1_d_90_13895" x="160" y="160" width="275" height="274" filterUnits="userSpaceOnUse" color-interpolation-filters="sRGB">
<feFlood flood-opacity="0" result="BackgroundImageFix"/>
<feColorMatrix in="SourceAlpha" type="matrix" values="0 0 0 0 0 0 0 0 0 0 0 0 0 0 0 0 0 0 127 0" result="hardAlpha"/>
<feOffset/>
<feGaussianBlur stdDeviation="10"/>
<feComposite in2="hardAlpha" operator="out"/>
<feColorMatrix type="matrix" values="0 0 0 0 0.830479 0 0 0 0 0.770833 0 0 0 0 1 0 0 0 0.6 0"/>
<feBlend mode="normal" in2="BackgroundImageFix" result="effect1_dropShadow_90_13895"/>
<feBlend mode="normal" in="SourceGraphic" in2="effect1_dropShadow_90_13895" result="shape"/>
</filter>
</defs>
</svg>
