<svg viewBox="0 0 54 54" xmlns="http://www.w3.org/2000/svg">
<path d="M27.0105 50.8667C23.7905 50.8667 20.665 50.2367 17.725 48.9907C14.883 47.7902 12.3315 46.0682 10.1405 43.8772C7.9495 41.6862 6.231 39.1347 5.027 36.2927C3.7845 33.3527 3.151 30.2272 3.151 27.0072C3.151 23.7872 3.781 20.6617 5.027 17.7217C6.2275 14.8797 7.9495 12.3282 10.1405 10.1372C12.3315 7.94621 14.883 6.22771 17.725 5.02371C20.665 3.78121 23.7905 3.14771 27.0105 3.14771C30.2305 3.14771 33.356 3.77771 36.296 5.02371C39.138 6.22421 41.6895 7.94621 43.8805 10.1372C46.0715 12.3282 47.79 14.8797 48.994 17.7217C50.2365 20.6617 50.87 23.7872 50.87 27.0072C50.87 30.2272 50.24 33.3527 48.994 36.2927C47.7935 39.1347 46.0715 41.6862 43.8805 43.8772C41.6895 46.0682 39.138 47.7867 36.296 48.9907C33.3525 50.2332 30.2305 50.8667 27.0105 50.8667ZM27.0105 4.83121C14.7815 4.83121 4.8345 14.7782 4.8345 27.0072C4.8345 39.2362 14.7815 49.1832 27.0105 49.1832C39.2395 49.1832 49.1865 39.2362 49.1865 27.0072C49.1865 14.7817 39.236 4.83121 27.0105 4.83121Z" />
<path d="M27.0105 47.2195C24.284 47.2195 21.6345 46.684 19.1425 45.6305C16.7345 44.612 14.575 43.156 12.72 41.301C10.865 39.446 9.40548 37.283 8.39048 34.8785C7.33698 32.3865 6.80148 29.7405 6.80148 27.0105C6.80148 24.2805 7.33698 21.6345 8.39048 19.1425C9.40548 16.7345 10.8615 14.575 12.72 12.72C14.5785 10.865 16.738 9.40551 19.1425 8.39051C21.6345 7.33701 24.2805 6.80151 27.0105 6.80151C29.7405 6.80151 32.3865 7.33701 34.8785 8.39051C37.2865 9.40901 39.446 10.865 41.301 12.72C43.156 14.575 44.6155 16.738 45.6305 19.1425C46.684 21.6345 47.2195 24.2805 47.2195 27.0105C47.2195 29.7405 46.684 32.3865 45.6305 34.8785C44.612 37.2865 43.156 39.446 41.301 41.301C39.446 43.156 37.283 44.6155 34.8785 45.6305C32.383 46.684 29.737 47.2195 27.0105 47.2195ZM27.0105 8.47801C16.794 8.47801 8.48148 16.7905 8.48148 27.007C8.48148 37.2235 16.794 45.536 27.0105 45.536C37.227 45.536 45.5395 37.2235 45.5395 27.007C45.5395 16.7905 37.227 8.47801 27.0105 8.47801Z" />
<path d="M27.0105 11.5126C26.545 11.5126 26.1705 11.1381 26.1705 10.6726V0.960117C26.1705 0.494617 26.545 0.120117 27.0105 0.120117C27.476 0.120117 27.8505 0.494617 27.8505 0.960117V10.6726C27.8505 11.1346 27.4725 11.5126 27.0105 11.5126Z" />
<path d="M10.6725 27.8297H0.959995C0.494495 27.8297 0.119995 27.4552 0.119995 26.9897C0.119995 26.5242 0.494495 26.1497 0.959995 26.1497H10.6725C11.138 26.1497 11.5125 26.5242 11.5125 26.9897C11.5125 27.4552 11.1345 27.8297 10.6725 27.8297Z" />
<path d="M26.993 53.88C26.5275 53.88 26.153 53.5055 26.153 53.04V43.3275C26.153 42.862 26.5275 42.4875 26.993 42.4875C27.4585 42.4875 27.833 42.862 27.833 43.3275V53.04C27.833 53.5055 27.455 53.88 26.993 53.88Z" />
<path d="M53.04 27.8507H43.3275C42.862 27.8507 42.4875 27.4762 42.4875 27.0107C42.4875 26.5452 42.862 26.1707 43.3275 26.1707H53.04C53.5055 26.1707 53.88 26.5452 53.88 27.0107C53.88 27.4762 53.5055 27.8507 53.04 27.8507Z" />
<path d="M27.0105 38.0146C24.0705 38.0146 21.3055 36.8701 19.23 34.7911C17.151 32.7121 16.0065 29.9471 16.0065 27.0106C16.0065 24.0741 17.151 21.3056 19.23 19.2301C21.309 17.1511 24.074 16.0066 27.0105 16.0066C29.947 16.0066 32.7155 17.1511 34.791 19.2301C36.87 21.3091 38.0145 24.0741 38.0145 27.0106C38.0145 29.9471 36.87 32.7156 34.791 34.7911C32.712 36.8701 29.947 38.0146 27.0105 38.0146ZM27.0105 17.6831C21.869 17.6831 17.6865 21.8656 17.6865 27.0071C17.6865 32.1486 21.869 36.3311 27.0105 36.3311C32.152 36.3311 36.3345 32.1486 36.3345 27.0071C36.3345 21.8656 32.152 17.6831 27.0105 17.6831Z" />
<path d="M27.0105 27.5462C25.117 27.5462 23.577 26.0062 23.577 24.1127C23.577 22.2192 25.117 20.6792 27.0105 20.6792C28.904 20.6792 30.444 22.2192 30.444 24.1127C30.444 26.0062 28.9005 27.5462 27.0105 27.5462ZM27.0105 22.3627C26.0445 22.3627 25.257 23.1502 25.257 24.1162C25.257 25.0822 26.0445 25.8697 27.0105 25.8697C27.9765 25.8697 28.764 25.0822 28.764 24.1162C28.764 23.1502 27.9765 22.3627 27.0105 22.3627Z" />
<path d="M31.536 32.0752H22.4815C22.016 32.0752 21.6415 31.7007 21.6415 31.2352C21.6415 28.2742 24.0495 25.8662 27.0105 25.8662C29.9715 25.8662 32.376 28.2742 32.376 31.2352C32.376 31.7007 32.0015 32.0752 31.536 32.0752ZM23.416 30.3952H30.598C30.2165 28.7642 28.75 27.5462 27.007 27.5462C25.264 27.5462 23.7975 28.7642 23.416 30.3952Z" />
</svg>
