<svg viewBox="0 0 56 57" xmlns="http://www.w3.org/2000/svg">
<g clip-path="url(#clip0_1002_12036)">
<g clip-path="url(#clip1_1002_12036)">
<path d="M27.0667 9.36979V14.1689C27.0667 14.6841 27.4848 15.1022 28 15.1022C28.5151 15.1022 28.9333 14.6841 28.9333 14.1689V9.36979C30.5396 8.95263 31.7333 7.50308 31.7333 5.76894C31.7333 3.70996 30.0589 2.03564 28 2.03564C25.941 2.03564 24.2667 3.71007 24.2667 5.76894C24.2667 7.50308 25.4613 8.95252 27.0667 9.36979ZM28 3.90224C29.0294 3.90224 29.8667 4.73939 29.8667 5.76894C29.8667 6.79838 29.0295 7.63564 28 7.63564C26.9706 7.63564 26.1333 6.79849 26.1333 5.76894C26.1333 4.7395 26.9706 3.90224 28 3.90224Z" />
<path d="M13.047 27.0609C13.4194 27.0609 13.7713 26.8359 13.916 26.4682C14.1046 25.9885 13.8684 25.4462 13.3887 25.2576L7.43127 22.9159C7.44242 22.7992 7.4667 22.6872 7.4667 22.5687C7.4667 20.5098 5.79228 18.8354 3.73341 18.8354C1.67442 18.8354 0 20.5098 0 22.5687C0 24.6277 1.67442 26.302 3.7333 26.302C5.00916 26.302 6.13659 25.6571 6.80958 24.6771L12.7064 26.9955C12.8184 27.0394 12.9332 27.0609 13.047 27.0609ZM3.7333 24.4354C2.70386 24.4354 1.86659 23.5983 1.86659 22.5687C1.86659 21.5392 2.70375 20.702 3.7333 20.702C4.76273 20.702 5.6 21.5392 5.6 22.5687C5.6 23.5983 4.76284 24.4354 3.7333 24.4354Z" />
<path d="M52.2667 18.8354C50.2077 18.8354 48.5334 20.5099 48.5334 22.5687C48.5334 22.6873 48.5567 22.7993 48.568 22.9159L42.6105 25.2586C42.1317 25.4472 41.8957 25.9894 42.0841 26.4692C42.2288 26.836 42.5807 27.0609 42.9531 27.0609C43.067 27.0609 43.1827 27.0403 43.2947 26.9956L49.1905 24.6772C49.8644 25.6572 50.991 26.3022 52.2668 26.3022C54.3258 26.3022 56.0001 24.6277 56.0001 22.5689C56.0001 20.51 54.3256 18.8354 52.2667 18.8354ZM52.2667 24.4354C51.2373 24.4354 50.4 23.5983 50.4 22.5687C50.4 21.5392 51.2372 20.702 52.2667 20.702C53.2963 20.702 54.1334 21.5392 54.1334 22.5687C54.1334 23.5983 53.2961 24.4354 52.2667 24.4354Z" />
<path d="M42.9333 46.8357C42.4125 46.8357 41.9179 46.944 41.468 47.1371L37.3734 42.2437C37.044 41.8489 36.4569 41.7957 36.0593 42.1261C35.6636 42.4574 35.6113 43.0454 35.9426 43.4411L39.9979 48.2898C39.505 48.9217 39.1999 49.7067 39.1999 50.569C39.1999 52.628 40.8743 54.3023 42.9332 54.3023C44.9922 54.3023 46.6665 52.6279 46.6665 50.569C46.6667 48.51 44.9923 46.8357 42.9333 46.8357ZM42.9333 52.4357C41.9039 52.4357 41.0666 51.5985 41.0666 50.569C41.0666 49.5396 41.9037 48.7023 42.9333 48.7023C43.9627 48.7023 44.8 49.5395 44.8 50.569C44.8 51.5984 43.9628 52.4357 42.9333 52.4357Z" />
<path d="M28 25.3688C29.0294 25.3688 29.8667 26.206 29.8667 27.2356C29.8667 27.7507 30.2838 28.1688 30.8 28.1688C31.3161 28.1688 31.7333 27.7507 31.7333 27.2356C31.7333 25.5014 30.5396 24.052 28.9333 23.6347V23.5021C28.9333 22.987 28.5151 22.5688 28 22.5688C27.4848 22.5688 27.0667 22.987 27.0667 23.5021V23.6347C25.4614 24.0519 24.2667 25.5014 24.2667 27.2356C24.2667 29.2945 25.9411 30.9688 28 30.9688C29.0294 30.9688 29.8667 31.806 29.8667 32.8356C29.8667 33.865 29.0295 34.7023 28 34.7023C26.9706 34.7023 26.1333 33.8651 26.1333 32.8356C26.1333 32.3204 25.7151 31.9023 25.2 31.9023C24.6848 31.9023 24.2667 32.3204 24.2667 32.8356C24.2667 34.5697 25.4614 36.0191 27.0667 36.4364V36.569C27.0667 37.0841 27.4848 37.5023 28 37.5023C28.5151 37.5023 28.9333 37.0841 28.9333 36.569V36.4364C30.5396 36.0192 31.7333 34.5697 31.7333 32.8356C31.7333 30.7766 30.0589 29.1023 28 29.1023C26.9706 29.1023 26.1333 28.2651 26.1333 27.2356C26.1333 26.206 26.9706 25.3688 28 25.3688Z" />
<path d="M19.9407 42.1262C19.5459 41.7958 18.956 41.8471 18.6266 42.2438L14.532 47.1373C14.0821 46.9441 13.5874 46.8358 13.0667 46.8358C11.0077 46.8358 9.3334 48.5102 9.3334 50.5691C9.3334 52.6281 11.0078 54.3024 13.0667 54.3024C15.1256 54.3024 16.8 52.6281 16.8 50.5691C16.8 49.7067 16.4939 48.9227 16.002 48.29L20.0583 43.4413C20.3887 43.0455 20.3364 42.4575 19.9407 42.1262ZM13.0667 52.4358C12.0373 52.4358 11.2 51.5987 11.2 50.5691C11.2 49.5397 12.0372 48.7024 13.0667 48.7024C14.0962 48.7024 14.9334 49.5396 14.9334 50.5691C14.9333 51.5986 14.0961 52.4358 13.0667 52.4358Z" />
<path d="M41.0667 30.0355C41.0667 22.8302 35.2054 16.9688 28 16.9688C20.7946 16.9688 14.9333 22.83 14.9333 30.0355C14.9333 37.2409 20.7947 43.102 28 43.102C35.2053 43.102 41.0667 37.2407 41.0667 30.0355ZM28 41.2355C21.8241 41.2355 16.8 36.2113 16.8 30.0355C16.8 23.8596 21.8241 18.8355 28 18.8355C34.1758 18.8355 39.2 23.8596 39.2 30.0355C39.2 36.2113 34.1758 41.2355 28 41.2355Z" />
</g>
</g>
<defs>
<clipPath id="clip0_1002_12036">
<rect width="56" height="56" fill="white" transform="translate(0 0.168945)"/>
</clipPath>
<clipPath id="clip1_1002_12036">
<rect width="56" height="56" fill="white" transform="translate(0 0.168945)"/>
</clipPath>
</defs>
</svg>
