<svg width="56" height="57" viewBox="0 0 56 57" fill="none" xmlns="http://www.w3.org/2000/svg">
<g clip-path="url(#clip0_4580_83810)">
<path d="M53.9688 25.8189C52.8348 14.814 44.6673 5.50123 33.8406 3.02782C33.3375 2.91211 32.8381 3.22754 32.7234 3.73067C32.6086 4.23281 32.9222 4.73396 33.4253 4.84881C39.3286 6.19653 44.3779 9.73951 47.7603 14.4985H44.3536C43.8374 14.4985 43.4203 14.9167 43.4203 15.4318C43.4203 15.947 43.8374 16.3651 44.3536 16.3651H48.9577C50.6414 19.2528 51.739 22.4961 52.104 25.9224C51.389 26.2286 50.8356 26.8277 50.5733 27.5651H44.8007C44.2846 27.5651 43.8674 27.9833 43.8674 28.4984C43.8674 29.0136 44.2846 29.4317 44.8007 29.4317H50.5734C50.9598 30.5163 51.9855 31.2984 53.2007 31.2984C54.7444 31.2984 56.0007 30.0421 56.0007 28.4984C56.0007 27.2227 55.1383 26.1558 53.9688 25.8189ZM53.2007 29.4318C52.6855 29.4318 52.2674 29.0128 52.2674 28.4985C52.2674 27.9945 52.6706 27.5885 53.17 27.5717C53.1784 27.5707 53.1849 27.5707 53.1933 27.5707C53.1988 27.5697 53.2026 27.567 53.2081 27.566C53.7196 27.5707 54.134 27.986 54.134 28.4984C54.134 29.0128 53.7159 29.4318 53.2007 29.4318Z" fill="#8167AB"/>
<path d="M3.14558 24.2585C3.21001 24.2715 3.27443 24.2781 3.33688 24.2781C3.7699 24.2781 4.15818 23.9757 4.2506 23.5351C4.63516 21.6842 5.24832 19.8914 6.05102 18.1842C6.20874 18.2122 6.36832 18.2328 6.53358 18.2328C8.0773 18.2328 9.33358 16.9765 9.33358 15.4328C9.33358 13.8891 8.0773 12.6328 6.53358 12.6328C4.98987 12.6328 3.73358 13.8891 3.73358 15.4328C3.73358 16.1318 4.00046 16.7647 4.42516 17.2557C3.52818 19.1354 2.84787 21.1131 2.42218 23.1544C2.31685 23.6592 2.64158 24.1539 3.14558 24.2585ZM6.53358 14.4995C7.04874 14.4995 7.46688 14.9185 7.46688 15.4328C7.46688 15.9471 7.04874 16.3661 6.53358 16.3661C6.01843 16.3661 5.60029 15.9471 5.60029 15.4328C5.60029 14.9185 6.01843 14.4995 6.53358 14.4995Z" fill="#8167AB"/>
<path d="M22.5592 52.1452C12.5436 49.8511 4.98361 41.2476 3.89719 31.0752C4.89677 30.6478 5.60049 29.6538 5.60049 28.4992C5.60049 26.9555 4.34421 25.6992 2.80049 25.6992C1.25677 25.6992 0.000488281 26.9555 0.000488281 28.4992C0.000488281 29.7751 0.86291 30.8419 2.03235 31.1788C3.16536 42.1754 11.3246 51.4872 22.1419 53.9652C22.2119 53.9811 22.2819 53.9885 22.3509 53.9885C22.7765 53.9885 23.1611 53.6964 23.26 53.2634C23.3749 52.7612 23.0613 52.2601 22.5592 52.1452ZM2.82007 29.4288C2.81536 29.4288 2.81164 29.4269 2.80793 29.4269C2.80235 29.4279 2.79863 29.4307 2.79294 29.4316C2.2815 29.4269 1.86708 29.0116 1.86708 28.4992C1.86708 27.9849 2.28522 27.5659 2.80038 27.5659C3.31554 27.5659 3.73368 27.9849 3.73368 28.4992C3.73379 29.0069 3.32505 29.4176 2.82007 29.4288Z" fill="#8167AB"/>
<path d="M52.8534 32.7467C52.341 32.6413 51.8538 32.9651 51.7484 33.47C51.2146 36.0367 50.2681 38.4437 48.997 40.6333H44.3537C43.8375 40.6333 43.4204 41.0514 43.4204 41.5666C43.4204 42.0817 43.8375 42.4999 44.3537 42.4999H47.8014C43.9962 47.8563 38.0817 51.57 31.3766 52.5109C33.4253 50.8972 36.2654 48.197 38.623 44.305C38.8097 44.3452 39.0028 44.3666 39.2007 44.3666C40.7444 44.3666 42.0007 43.1103 42.0007 41.5666C42.0007 40.7098 41.605 39.95 40.9964 39.4358C42.277 36.0245 42.934 32.3517 42.934 28.4999C42.934 24.5649 42.3133 20.8633 41.1037 17.4753C41.6525 16.9639 42.0007 16.2405 42.0007 15.4332C42.0007 13.8895 40.7444 12.6332 39.2007 12.6332C39.0821 12.6332 38.9683 12.6537 38.8535 12.6686C36.2066 8.15876 32.87 5.33634 30.742 3.86733C30.7811 3.68434 30.8008 3.49403 30.8008 3.29989C30.8006 1.75628 29.5443 0.5 28.0006 0.5C26.7303 0.5 25.6673 1.35586 25.3256 2.51698C18.9724 3.16372 13.1157 6.08884 8.76557 10.8199C8.41655 11.1988 8.44171 11.7896 8.82058 12.1377C9.00072 12.3029 9.22658 12.3841 9.45244 12.3841C9.70346 12.3841 9.95546 12.2833 10.1394 12.0827C13.9773 7.90972 19.077 5.24972 24.6331 4.47972C22.2223 6.37442 18.8483 9.64856 16.3591 14.5H11.6673C11.1511 14.5 10.734 14.9181 10.734 15.4333C10.734 15.9485 11.1511 16.3666 11.6673 16.3666H15.4856C14.1434 19.5092 13.2231 23.2313 13.1037 27.5666H8.40058C7.88444 27.5666 7.46729 27.9847 7.46729 28.4999C7.46729 29.015 7.88444 29.4332 8.40058 29.4332H13.1017C13.2119 33.8049 14.0556 37.5242 15.3109 40.6332H11.6672C11.151 40.6332 10.7339 41.0513 10.7339 41.5665C10.7339 42.0816 11.151 42.4998 11.6672 42.4998H16.1425C18.8678 48.0588 22.7785 51.4243 25.2583 53.1342C25.2201 53.3172 25.2005 53.5056 25.2005 53.6998C25.2005 55.2435 26.4568 56.4998 28.0005 56.4998C29.2763 56.4998 30.3432 55.6374 30.6792 54.4689C41.9072 53.3162 51.2676 44.9489 53.5766 33.8497C53.6822 33.3459 53.3574 32.8512 52.8534 32.7467ZM39.2006 42.5C38.6854 42.5 38.2673 42.081 38.2673 41.5667C38.2673 41.0524 38.6854 40.6334 39.2006 40.6334C39.7157 40.6334 40.1339 41.0524 40.1339 41.5667C40.1339 42.081 39.7157 42.5 39.2006 42.5ZM39.2006 14.5C39.7157 14.5 40.1339 14.919 40.1339 15.4333C40.1339 15.9476 39.7157 16.3666 39.2006 16.3666C38.6854 16.3666 38.2673 15.9476 38.2673 15.4333C38.2673 14.919 38.6854 14.5 39.2006 14.5ZM28.0006 2.3667C28.5157 2.3667 28.9339 2.78572 28.9339 3.3C28.9339 3.81428 28.5157 4.2333 28.0006 4.2333C27.4919 4.2333 27.0803 3.82358 27.071 3.31673C27.071 3.31389 27.072 3.31116 27.072 3.30744C27.072 3.30273 27.0691 3.3 27.0683 3.2953C27.071 2.78298 27.4873 2.3667 28.0006 2.3667ZM28.9339 28.5C28.9339 29.0143 28.5157 29.4333 28.0006 29.4333C27.4854 29.4333 27.0673 29.0143 27.0673 28.5C27.0673 27.9857 27.4854 27.5667 28.0006 27.5667C28.5157 27.5667 28.9339 27.9857 28.9339 28.5ZM17.8337 41.6954C17.8393 41.6516 17.8599 41.6124 17.8599 41.5666C17.8599 41.2409 17.6826 40.9674 17.4296 40.8013C15.9577 37.5029 14.9339 33.4532 14.9339 28.5C14.9339 23.418 16.1164 19.2087 17.7852 15.7992C17.7862 15.7973 17.7862 15.7963 17.787 15.7945C20.3257 10.607 23.9853 7.27502 26.3252 5.52961C26.5492 5.69859 26.7975 5.83203 27.0672 5.92719V14.5H20.5339C20.0177 14.5 19.6006 14.9181 19.6006 15.4333C19.6006 15.9485 20.0177 16.3666 20.5339 16.3666H27.0672V25.8717C26.2757 26.1536 25.6542 26.7761 25.3732 27.5667H17.7339C17.2177 27.5667 16.8006 27.9848 16.8006 28.5C16.8006 29.0152 17.2177 29.4333 17.7339 29.4333H25.3732C25.6542 30.2239 26.2757 30.8463 27.0672 31.1273V40.6333H20.5339C20.0177 40.6333 19.6006 41.0514 19.6006 41.5666C19.6006 42.0817 20.0177 42.4999 20.5339 42.4999H27.0672V51.0716C26.761 51.1808 26.4839 51.3413 26.2365 51.5429C23.9284 49.9359 20.3473 46.8139 17.8337 41.6954ZM28.0006 54.6333C27.4854 54.6333 27.0673 54.2143 27.0673 53.7C27.0673 53.1857 27.4854 52.7667 28.0006 52.7667C28.5093 52.7667 28.9209 53.1764 28.9302 53.6833C28.9302 53.6861 28.9292 53.6888 28.9292 53.6926C28.9292 53.6973 28.932 53.7 28.9329 53.7056C28.9293 54.2171 28.5139 54.6333 28.0006 54.6333ZM29.675 51.4693C29.451 51.3013 29.2027 51.1679 28.9339 51.0717V31.1283C30.0175 30.741 30.8006 29.7153 30.8006 28.5C30.8006 27.2847 30.0176 26.259 28.9339 25.8717V5.92828C29.239 5.81913 29.5163 5.65944 29.7627 5.45786C31.7283 6.828 34.7523 9.41614 37.179 13.506C36.9102 13.787 36.7058 14.1257 36.5733 14.5H31.2673C30.7511 14.5 30.334 14.9181 30.334 15.4333C30.334 15.9485 30.7511 16.3666 31.2673 16.3666H36.5733C36.9597 17.4512 37.9854 18.2333 39.2006 18.2333C39.264 18.2333 39.3237 18.2183 39.3854 18.2146C40.4018 21.1014 40.96 24.2383 41.0477 27.5666H33.6006C33.0844 27.5666 32.6673 27.9847 32.6673 28.4999C32.6673 29.015 33.0844 29.4332 33.6006 29.4332H41.0467C40.9506 32.7158 40.3477 35.8499 39.2529 38.7722C39.2351 38.7712 39.2193 38.7666 39.2006 38.7666C37.9854 38.7666 36.9596 39.5487 36.5733 40.6333H31.2673C30.7511 40.6333 30.334 41.0514 30.334 41.5666C30.334 42.0817 30.7511 42.4999 31.2673 42.4999H36.5733C36.6806 42.8023 36.8383 43.0786 37.0381 43.323C34.602 47.3496 31.6089 50.0254 29.675 51.4693Z" fill="#8167AB"/>
</g>
<defs>
<clipPath id="clip0_4580_83810">
<rect width="56" height="56" fill="white" transform="translate(0.000488281 0.5)"/>
</clipPath>
</defs>
</svg>
