<svg viewBox="0 0 56 57" xmlns="http://www.w3.org/2000/svg">
<g clip-path="url(#clip0_447_5511)">
<g clip-path="url(#clip1_447_5511)">
<path d="M1.86719 28.5024C1.86719 14.0927 13.5898 2.36914 28.0005 2.36914C36.0896 2.36914 43.6591 6.17813 48.5871 12.6358H42.9339C42.4178 12.6358 42.0006 13.054 42.0006 13.5691C42.0006 14.0843 42.4178 14.5024 42.9339 14.5024H50.4005C50.4294 14.5024 50.4546 14.4884 50.4826 14.4856C50.5442 14.4809 50.6039 14.4669 50.6636 14.4492C50.7271 14.4305 50.7831 14.4082 50.8401 14.3782C50.8643 14.3652 50.8923 14.3632 50.9166 14.3465C50.9428 14.3296 50.9568 14.3026 50.9801 14.283C51.0305 14.2429 51.0743 14.199 51.1145 14.1496C51.1518 14.1029 51.1845 14.0563 51.2116 14.0049C51.2396 13.9526 51.261 13.9003 51.2779 13.8435C51.2975 13.7819 51.3106 13.7222 51.3152 13.6568C51.3189 13.6269 51.3339 13.5998 51.3339 13.569V6.10244C51.3339 5.58728 50.9167 5.16914 50.4006 5.16914C49.8845 5.16914 49.4673 5.58728 49.4673 6.10244V10.7523C44.1835 4.2936 36.3538 0.502441 28.0005 0.502441C12.5613 0.502441 0.000488281 13.0633 0.000488281 28.5024C0.000488281 31.4733 0.462488 34.3955 1.37347 37.188C1.50232 37.5829 1.86719 37.833 2.26105 37.833C2.35621 37.833 2.45421 37.8171 2.55035 37.7863C3.04035 37.6257 3.30821 37.0993 3.14863 36.6094C2.29835 34.0035 1.86719 31.2763 1.86719 28.5024Z"   />
<path d="M54.5744 19.6573C54.412 19.1683 53.8855 18.9032 53.3928 19.0675C52.9047 19.2299 52.6397 19.7582 52.802 20.2472C53.6858 22.8998 54.1338 25.6773 54.1338 28.5025C54.1338 42.9122 42.4111 54.6358 28.0005 54.6358C19.9132 54.6358 12.3438 50.8278 7.41496 44.3691H13.0672C13.5824 44.3691 14.0005 43.9509 14.0005 43.4358C14.0005 42.9206 13.5824 42.5025 13.0672 42.5025H5.60053C5.57155 42.5025 5.54825 42.5165 5.52025 42.5193C5.45681 42.524 5.39611 42.538 5.33453 42.5566C5.27383 42.5744 5.21783 42.5968 5.16281 42.6257C5.13766 42.6397 5.10966 42.6415 5.08439 42.6584C5.05825 42.6752 5.04425 42.7022 5.01997 42.7218C4.97053 42.7628 4.92755 42.8058 4.88653 42.8552C4.84924 42.9019 4.81752 42.9485 4.78952 43.0008C4.76152 43.0521 4.74096 43.1044 4.72324 43.1614C4.70366 43.2229 4.69152 43.2827 4.68495 43.3471C4.68211 43.3779 4.66724 43.4041 4.66724 43.4358V50.9025C4.66724 51.4177 5.08538 51.8358 5.60053 51.8358C6.11569 51.8358 6.53383 51.4177 6.53383 50.9025V46.2517C11.8194 52.7122 19.6481 56.5025 28.0005 56.5025C43.4397 56.5025 56.0005 43.9417 56.0005 28.5025C56.0005 25.4766 55.5198 22.5002 54.5744 19.6573Z"   />
<path d="M30.8733 37.2675C30.8798 37.2825 30.8929 37.2926 30.8994 37.3076C30.9443 37.399 30.9956 37.4896 31.0721 37.5662C31.1431 37.6372 31.2271 37.6819 31.312 37.7257C31.3334 37.7369 31.3493 37.7556 31.3717 37.7649C31.4865 37.8135 31.6087 37.8396 31.732 37.8396C31.7348 37.8396 31.7367 37.8378 31.7394 37.8378H36.3584L36.5554 37.8406C37.373 37.8406 41.5964 37.6922 44.5243 34.7643C47.7638 31.5256 47.6053 26.7993 47.5977 26.6377V21.971C47.5977 21.4559 47.1805 21.0377 46.6644 21.0377L42.037 21.0387L41.84 21.0359C41.0224 21.0359 36.799 21.1843 33.8711 24.1112C30.6316 27.3508 30.793 32.0782 30.8004 32.2377V36.8969C30.7995 37.0229 30.8237 37.1489 30.8733 37.2675ZM35.1909 25.4309C37.598 23.0239 41.152 22.9025 41.84 22.9025L45.7311 22.9043L45.732 26.6769C45.7338 26.7179 45.871 30.7789 43.2045 33.4445C40.7974 35.8525 37.2434 35.9738 36.5554 35.9738L33.986 35.9719L43.5937 26.3642C43.9587 26.0002 43.9587 25.4094 43.5937 25.0445C43.2288 24.6805 42.6389 24.6805 42.274 25.0445L32.6671 34.6513L32.6662 32.2003C32.6643 32.1593 32.5411 28.0806 35.1909 25.4309Z"   />
<path d="M25.8566 16.6378C23.008 13.7884 19.0451 13.5671 17.898 13.5671L13.0699 13.569C12.5547 13.569 12.1366 13.9871 12.1366 14.5023L12.1376 19.126C12.1291 19.3249 11.9705 24.0522 15.2073 27.2909C18.138 30.2224 22.3613 30.3709 23.1788 30.3709L27.0671 30.369V48.1024C27.0671 48.6176 27.4853 49.0357 28.0004 49.0357C28.5156 49.0357 28.9337 48.6176 28.9337 48.1024V29.4497C28.9337 29.4441 28.9366 29.4404 28.9366 29.4357V29.4348V29.4255L28.9356 24.8018C28.944 24.602 29.0924 19.8756 25.8566 16.6378ZM27.0699 24.7644V27.1761L17.463 17.5693C17.098 17.2044 16.5073 17.2044 16.1433 17.5693C15.7784 17.9333 15.7784 18.5241 16.1433 18.889L25.7576 28.5033L23.1787 28.5043C22.4909 28.5043 18.9377 28.383 16.5278 25.9712C13.8799 23.3224 14.0003 19.2428 14.0031 19.1644V15.4357L17.8979 15.4338C18.5858 15.4338 22.1343 15.5551 24.5358 17.9576C27.1847 20.6083 27.0717 24.6888 27.0699 24.7644Z"   />
</g>
</g>
<defs>
<clipPath id="clip0_447_5511">
<rect width="56" height="56" fill="white" transform="translate(0 0.5)"/>
</clipPath>
<clipPath id="clip1_447_5511">
<rect width="56" height="56" fill="white" transform="translate(0.000488281 0.502441)"/>
</clipPath>
</defs>
</svg>
