<svg viewBox="0 0 56 57" xmlns="http://www.w3.org/2000/svg">
<g clip-path="url(#clip0_447_5274)">
<g clip-path="url(#clip1_447_5274)">
<path d="M52.2653 8.89977C52.2622 6.32384 50.1747 4.23637 47.5987 4.23319V3.29992C47.5987 1.75362 46.3451 0.5 44.7988 0.5C43.2525 0.5 41.9989 1.75362 41.9989 3.29992V4.23319H38.2657V3.29992C38.2657 1.75362 37.012 0.5 35.4657 0.5C33.9194 0.5 32.6658 1.75362 32.6658 3.29992V4.23319H28.9326V3.29992C28.9326 1.75362 27.679 0.5 26.1327 0.5C24.5864 0.5 23.3328 1.75362 23.3328 3.29992V4.23319H19.5995V3.29992C19.5995 1.75362 18.3458 0.5 16.7995 0.5C15.2532 0.5 13.9996 1.75362 13.9996 3.29992V4.23319H10.2664V3.29992C10.2664 1.75362 9.0128 0.5 7.4665 0.5C5.9202 0.5 4.66658 1.75362 4.66658 3.29992V4.23319C2.09054 4.23637 0.00306462 6.32384 2.20489e-06 8.89977V48.0987C-0.00120089 49.3367 0.489989 50.5243 1.3654 51.3998C2.24082 52.2752 3.42849 52.7665 4.66647 52.7652H24.9389C32.7243 58.4196 43.4656 57.5734 50.2696 50.7695C57.0735 43.9655 57.9197 33.2242 52.2653 25.4388V8.89977ZM43.8655 3.29992C43.8655 2.78445 44.2833 2.36665 44.7988 2.36665C45.3143 2.36665 45.7321 2.78456 45.7321 3.29992V7.03312C45.7321 7.54859 45.3143 7.96639 44.7988 7.96639C44.2833 7.96639 43.8655 7.54848 43.8655 7.03312V3.29992ZM34.5324 3.29992C34.5324 2.78445 34.9503 2.36665 35.4656 2.36665C35.9811 2.36665 36.3989 2.78456 36.3989 3.29992V7.03312C36.3989 7.54859 35.981 7.96639 35.4656 7.96639C34.9502 7.96639 34.5324 7.54848 34.5324 7.03312V3.29992ZM25.1993 3.29992C25.1993 2.78445 25.6171 2.36665 26.1326 2.36665C26.6481 2.36665 27.0659 2.78456 27.0659 3.29992V7.03312C27.0659 7.54859 26.6479 7.96639 26.1326 7.96639C25.6172 7.96639 25.1993 7.54848 25.1993 7.03312V3.29992ZM15.8663 3.29992C15.8663 2.78445 16.2842 2.36665 16.7995 2.36665C17.315 2.36665 17.7328 2.78456 17.7328 3.29992V7.03312C17.7328 7.54859 17.3149 7.96639 16.7995 7.96639C16.2841 7.96639 15.8663 7.54848 15.8663 7.03312V3.29992ZM6.53312 3.29992C6.53312 2.78445 6.95103 2.36665 7.46639 2.36665C7.98175 2.36665 8.39977 2.78445 8.39977 3.29992V7.03312C8.39977 7.54859 7.98186 7.96639 7.4665 7.96639C6.95114 7.96639 6.53323 7.54848 6.53323 7.03312V3.29992H6.53312ZM4.66658 6.09985V7.03312C4.66658 8.57942 5.9202 9.83304 7.4665 9.83304C9.0128 9.83304 10.2664 8.57942 10.2664 7.03312V6.09985H13.9996V7.03312C13.9996 8.57942 15.2532 9.83304 16.7995 9.83304C18.3458 9.83304 19.5995 8.57942 19.5995 7.03312V6.09985H23.3327V7.03312C23.3327 8.57942 24.5863 9.83304 26.1326 9.83304C27.6789 9.83304 28.9325 8.57942 28.9325 7.03312V6.09985H32.6657V7.03312C32.6657 8.57942 33.9193 9.83304 35.4656 9.83304C37.0119 9.83304 38.2656 8.57942 38.2656 7.03312V6.09985H41.9989V7.03312C41.9989 8.57942 43.2525 9.83304 44.7988 9.83304C46.3451 9.83304 47.5987 8.57942 47.5987 7.03312V6.09985C49.145 6.09985 50.3986 7.35347 50.3986 8.89977V11.6997H1.86665V8.89977C1.86665 7.35347 3.12017 6.09985 4.66658 6.09985ZM36.399 54.6318C29.1245 54.6342 22.5869 50.1921 19.9099 43.4281C17.2329 36.6641 18.96 28.951 24.2659 23.9745V24.7659C24.2659 25.2814 24.6838 25.6992 25.1992 25.6992C25.7147 25.6992 26.1325 25.2813 26.1325 24.7659V21.966C26.1325 21.4505 25.7146 21.0327 25.1992 21.0327H22.3993C21.8838 21.0327 21.466 21.4506 21.466 21.966C21.466 22.4815 21.8839 22.8993 22.3993 22.8993H22.6933C18.9219 26.5818 16.7967 31.6309 16.7995 36.9021C16.8024 42.1732 18.9328 47.22 22.7081 50.8985H4.66658C3.9235 50.9 3.21051 50.6055 2.68509 50.0801C2.15966 49.5547 1.86512 48.8417 1.86665 48.0986V13.5662H50.3986V23.2083C46.7209 19.4299 41.6718 17.2988 36.399 17.2994C35.8835 17.2994 35.4657 17.7173 35.4657 18.2327C35.4657 18.7482 35.8836 19.166 36.399 19.166C46.1926 19.166 54.1318 27.1053 54.1318 36.8988C54.1318 46.6923 46.1926 54.6318 36.399 54.6318Z"   />
<path d="M36.399 49.032C35.8835 49.032 35.4657 49.4498 35.4657 49.9653V51.832C35.4657 52.3475 35.8836 52.7653 36.399 52.7653C36.9144 52.7653 37.3323 52.3475 37.3323 51.832V49.9653C37.3323 49.4499 36.9145 49.032 36.399 49.032Z"   />
<path d="M43.7405 47.7479C43.5749 47.4568 43.2661 47.2766 42.9312 47.2759C42.5963 47.2751 42.2867 47.4539 42.1199 47.7443C41.9531 48.0347 41.9546 48.3923 42.124 48.6812L43.0573 50.2978C43.2229 50.589 43.5317 50.7691 43.8666 50.7699C44.2015 50.7706 44.5111 50.5918 44.6779 50.3014C44.8447 50.011 44.8432 49.6535 44.6738 49.3645L43.7405 47.7479Z"   />
<path d="M49.7977 43.5573L48.1821 42.624C47.8931 42.4546 47.5356 42.4531 47.2452 42.6199C46.9548 42.7867 46.776 43.0963 46.7767 43.4312C46.7775 43.7661 46.9576 44.075 47.2488 44.2405L48.8644 45.1738C49.1533 45.3432 49.5109 45.3447 49.8013 45.1779C50.0917 45.0111 50.2705 44.7015 50.2697 44.3666C50.269 44.0317 50.0888 43.7228 49.7977 43.5573Z"   />
<path d="M48.532 36.8991C48.532 37.4146 48.9499 37.8324 49.4653 37.8324H51.332C51.8475 37.8324 52.2653 37.4145 52.2653 36.8991C52.2653 36.3837 51.8475 35.9658 51.332 35.9658H49.4653C48.9499 35.9658 48.532 36.3836 48.532 36.8991Z"   />
<path d="M47.2487 29.5576C46.9575 29.723 46.7774 30.0319 46.7766 30.3668C46.7758 30.7017 46.9547 31.0114 47.2451 31.1782C47.5355 31.345 47.893 31.3434 48.182 31.174L49.7976 30.2407C50.0887 30.0752 50.2689 29.7664 50.2696 29.4314C50.2704 29.0965 50.0916 28.7869 49.8012 28.6201C49.5108 28.4533 49.1532 28.4548 48.8643 28.6243L47.2487 29.5576Z"   />
<path d="M44.3322 23.158C44.1177 23.0343 43.8628 23.0009 43.6238 23.0652C43.3847 23.1294 43.1809 23.286 43.0572 23.5006L42.1239 25.1171C41.9545 25.4061 41.9529 25.7637 42.1197 26.054C42.2865 26.3444 42.5962 26.5233 42.9311 26.5225C43.266 26.5217 43.5749 26.3416 43.7403 26.0504L44.6736 24.4339C44.7977 24.2194 44.8314 23.9644 44.7674 23.7251C44.7034 23.4858 44.5469 23.2817 44.3322 23.158Z"   />
<path d="M36.399 24.7663C36.9145 24.7663 37.3323 24.3484 37.3323 23.833V21.9663C37.3323 21.4508 36.9145 21.033 36.399 21.033C35.8835 21.033 35.4657 21.4509 35.4657 21.9663V23.833C35.4657 24.3483 35.8835 24.7663 36.399 24.7663Z"   />
<path d="M29.7408 23.5004C29.5754 23.2092 29.2665 23.0291 28.9316 23.0283C28.5967 23.0276 28.287 23.2064 28.1202 23.4968C27.9534 23.7872 27.955 24.1447 28.1244 24.4337L29.0577 26.0502C29.3171 26.4929 29.8852 26.6431 30.3295 26.3865C30.7738 26.13 30.9278 25.5629 30.6741 25.1168L29.7408 23.5004Z"   />
<path d="M25.5494 29.5576L23.9338 28.6243C23.6448 28.4548 23.2873 28.4533 22.9969 28.6201C22.7065 28.7869 22.5277 29.0965 22.5284 29.4314C22.5292 29.7664 22.7094 30.0752 23.0005 30.2407L24.6161 31.174C24.9051 31.3434 25.2626 31.345 25.553 31.1782C25.8434 31.0114 26.0222 30.7017 26.0214 30.3668C26.0207 30.0319 25.8405 29.723 25.5494 29.5576Z"   />
<path d="M24.2661 36.8991C24.2661 36.3836 23.8482 35.9658 23.3328 35.9658H21.4661C20.9507 35.9658 20.5328 36.3836 20.5328 36.8991C20.5328 37.4146 20.9508 37.8324 21.4661 37.8324H23.3328C23.8482 37.8324 24.2661 37.4146 24.2661 36.8991Z"   />
<path d="M24.6161 42.624L23.0005 43.5573C22.7094 43.7229 22.5292 44.0316 22.5284 44.3665C22.5277 44.7014 22.7065 45.0111 22.9969 45.1779C23.2873 45.3447 23.6448 45.3431 23.9338 45.1737L25.5494 44.2404C25.8405 44.0748 26.0207 43.7661 26.0214 43.4312C26.0222 43.0963 25.8434 42.7866 25.553 42.6198C25.2625 42.453 24.9049 42.4547 24.6161 42.624Z"   />
<path d="M30.3325 47.4062C29.8862 47.1485 29.3154 47.3014 29.0576 47.7478L28.1243 49.3643C27.9548 49.6533 27.9533 50.0108 28.1201 50.3012C28.2869 50.5916 28.5965 50.7705 28.9315 50.7697C29.2664 50.7689 29.5752 50.5888 29.7407 50.2976L30.674 48.6811C30.9319 48.2348 30.779 47.664 30.3325 47.4062Z"   />
<path d="M42.9321 37.8324C43.4475 37.8324 43.8653 37.4145 43.8653 36.8991C43.8653 36.3838 43.4475 35.9659 42.9321 35.9659H39.0272C38.7448 35.1754 38.1228 34.5533 37.3322 34.2709V27.5661C37.3322 27.0506 36.9144 26.6328 36.3989 26.6328C35.8835 26.6328 35.4657 27.0507 35.4657 27.5661V34.2709C34.237 34.7027 33.4697 35.9263 33.6161 37.2204C33.7624 38.5144 34.7837 39.5356 36.0778 39.6821C37.3719 39.8284 38.5955 39.0612 39.0273 37.8325H42.9321V37.8324ZM36.3989 37.8324C35.8835 37.8324 35.4657 37.4145 35.4657 36.8991C35.4657 36.3838 35.8836 35.9659 36.3989 35.9659C36.9143 35.9659 37.3322 36.3837 37.3322 36.8991C37.3322 37.4146 36.9144 37.8324 36.3989 37.8324Z"   />
</g>
</g>
<defs>
<clipPath id="clip0_447_5274">
<rect width="56" height="56" fill="white" transform="translate(0 0.5)"/>
</clipPath>
<clipPath id="clip1_447_5274">
<rect width="56" height="56" fill="white" transform="translate(0 0.5)"/>
</clipPath>
</defs>
</svg>
