<svg viewBox="0 0 512 512" fill="none" xmlns="http://www.w3.org/2000/svg">
<g clip-path="url(#clip0_158_854)">
<g clip-path="url(#clip1_158_854)">
<path d="M247.467 84.1214V127.999C247.467 132.709 251.29 136.532 256 136.532C260.71 136.532 264.533 132.709 264.533 127.999V84.1214C279.219 80.3074 290.133 67.0544 290.133 51.1994C290.133 32.3744 274.824 17.0664 256 17.0664C237.175 17.0664 221.867 32.3754 221.867 51.1994C221.867 67.0544 232.789 80.3064 247.467 84.1214ZM256 34.1324C265.412 34.1324 273.067 41.7864 273.067 51.1994C273.067 60.6114 265.413 68.2664 256 68.2664C246.588 68.2664 238.933 60.6124 238.933 51.1994C238.933 41.7874 246.588 34.1324 256 34.1324Z" />
<path d="M119.287 245.872C122.692 245.872 125.909 243.815 127.232 240.453C128.956 236.067 126.797 231.109 122.411 229.385L67.943 207.975C68.045 206.908 68.267 205.884 68.267 204.801C68.267 185.976 52.958 170.668 34.134 170.668C15.309 170.668 0 185.976 0 204.801C0 223.626 15.309 238.934 34.133 238.934C45.798 238.934 56.106 233.037 62.259 224.077L116.173 245.274C117.197 245.676 118.246 245.872 119.287 245.872ZM34.133 221.868C24.721 221.868 17.066 214.214 17.066 204.801C17.066 195.388 24.72 187.734 34.133 187.734C43.545 187.734 51.2 195.388 51.2 204.801C51.2 214.214 43.546 221.868 34.133 221.868Z" />
<path d="M477.867 170.668C459.042 170.668 443.734 185.977 443.734 204.801C443.734 205.885 443.947 206.909 444.05 207.975L389.582 229.394C385.204 231.118 383.046 236.076 384.769 240.462C386.092 243.816 389.309 245.872 392.714 245.872C393.755 245.872 394.813 245.684 395.837 245.275L449.742 224.078C455.903 233.038 466.203 238.935 477.868 238.935C496.693 238.935 512.001 223.626 512.001 204.802C512.001 185.978 496.691 170.668 477.867 170.668ZM477.867 221.868C468.455 221.868 460.8 214.214 460.8 204.801C460.8 195.388 468.454 187.734 477.867 187.734C487.28 187.734 494.934 195.388 494.934 204.801C494.934 214.214 487.279 221.868 477.867 221.868Z" />
<path d="M392.533 426.667C387.771 426.667 383.249 427.657 379.136 429.423L341.7 384.684C338.688 381.074 333.32 380.587 329.685 383.608C326.067 386.637 325.589 392.014 328.618 395.632L365.695 439.962C361.189 445.739 358.399 452.916 358.399 460.8C358.399 479.625 373.708 494.934 392.532 494.934C411.357 494.934 426.665 479.624 426.665 460.8C426.667 441.975 411.358 426.667 392.533 426.667ZM392.533 477.867C383.121 477.867 375.466 470.213 375.466 460.8C375.466 451.388 383.12 443.733 392.533 443.733C401.945 443.733 409.6 451.387 409.6 460.8C409.6 470.212 401.946 477.867 392.533 477.867Z" />
<path d="M256 230.401C265.412 230.401 273.067 238.055 273.067 247.468C273.067 252.178 276.881 256.001 281.6 256.001C286.319 256.001 290.133 252.178 290.133 247.468C290.133 231.613 279.219 218.361 264.533 214.546V213.334C264.533 208.624 260.71 204.801 256 204.801C251.29 204.801 247.467 208.624 247.467 213.334V214.546C232.79 218.36 221.867 231.613 221.867 247.468C221.867 266.293 237.176 281.601 256 281.601C265.412 281.601 273.067 289.255 273.067 298.668C273.067 308.08 265.413 315.735 256 315.735C246.588 315.735 238.933 308.081 238.933 298.668C238.933 293.958 235.11 290.135 230.4 290.135C225.69 290.135 221.867 293.958 221.867 298.668C221.867 314.523 232.79 327.775 247.467 331.59V332.802C247.467 337.512 251.29 341.335 256 341.335C260.71 341.335 264.533 337.512 264.533 332.802V331.59C279.219 327.776 290.133 314.523 290.133 298.668C290.133 279.843 274.824 264.535 256 264.535C246.588 264.535 238.933 256.881 238.933 247.468C238.933 238.055 246.588 230.401 256 230.401Z" />
<path d="M182.315 383.606C178.705 380.585 173.312 381.054 170.3 384.681L132.864 429.421C128.751 427.655 124.228 426.665 119.467 426.665C100.642 426.665 85.334 441.974 85.334 460.798C85.334 479.623 100.643 494.931 119.467 494.931C138.291 494.931 153.6 479.623 153.6 460.798C153.6 452.913 150.801 445.745 146.304 439.96L183.39 395.629C186.411 392.011 185.933 386.635 182.315 383.606ZM119.467 477.865C110.055 477.865 102.4 470.211 102.4 460.798C102.4 451.386 110.054 443.731 119.467 443.731C128.88 443.731 136.534 451.385 136.534 460.798C136.533 470.21 128.879 477.865 119.467 477.865Z" />
<path d="M375.467 273.065C375.467 207.188 321.878 153.598 256 153.598C190.122 153.598 136.533 207.187 136.533 273.065C136.533 338.943 190.123 392.531 256 392.531C321.877 392.531 375.467 338.942 375.467 273.065ZM256 375.465C199.535 375.465 153.6 329.53 153.6 273.065C153.6 216.6 199.535 170.665 256 170.665C312.465 170.665 358.4 216.6 358.4 273.065C358.4 329.53 312.465 375.465 256 375.465Z" />
</g>
</g>
<defs>
<clipPath id="clip0_158_854">
<rect width="512" height="512" fill="white"/>
</clipPath>
<clipPath id="clip1_158_854">
<rect width="512" height="512" fill="white"/>
</clipPath>
</defs>
</svg>
