<svg viewBox="0 0 57 57" xmlns="http://www.w3.org/2000/svg">
<g clip-path="url(#clip0_1002_11153)">
<g clip-path="url(#clip1_1002_11153)">
<path d="M28.6667 0.5C13.2277 0.5 0.666656 13.061 0.666656 28.5C0.666656 43.939 13.2277 56.5 28.6667 56.5C44.1056 56.5 56.6667 43.939 56.6667 28.5C56.6667 13.061 44.1056 0.5 28.6667 0.5ZM28.6667 54.0652C14.5693 54.0652 3.10144 42.5974 3.10144 28.5C3.10144 14.4026 14.5693 2.93478 28.6667 2.93478C42.764 2.93478 54.2319 14.4026 54.2319 28.5C54.2319 42.5974 42.764 54.0652 28.6667 54.0652Z" />
<path d="M18.9275 27.2824C20.9411 27.2824 22.5797 25.6438 22.5797 23.6302C22.5797 21.6166 20.9411 19.978 18.9275 19.978C16.914 19.978 15.2754 21.6166 15.2754 23.6302C15.2754 25.6438 16.914 27.2824 18.9275 27.2824ZM18.9275 22.4128C19.5983 22.4128 20.1449 22.9594 20.1449 23.6302C20.1449 24.301 19.5983 24.8476 18.9275 24.8476C18.2568 24.8476 17.7101 24.301 17.7101 23.6302C17.7101 22.9594 18.2568 22.4128 18.9275 22.4128Z" />
<path d="M38.4058 19.978C36.3922 19.978 34.7536 21.6166 34.7536 23.6302C34.7536 25.6438 36.3922 27.2824 38.4058 27.2824C40.4194 27.2824 42.058 25.6438 42.058 23.6302C42.058 21.6166 40.4194 19.978 38.4058 19.978ZM38.4058 24.8476C37.735 24.8476 37.1884 24.301 37.1884 23.6302C37.1884 22.9594 37.735 22.4128 38.4058 22.4128C39.0766 22.4128 39.6232 22.9594 39.6232 23.6302C39.6232 24.301 39.0766 24.8476 38.4058 24.8476Z" />
<path d="M40.8406 34.5869H16.4928C15.8208 34.5869 15.2754 35.1323 15.2754 35.8043C15.2754 36.4763 15.8208 37.0217 16.4928 37.0217H40.8406C41.5126 37.0217 42.058 36.4763 42.058 35.8043C42.058 35.1323 41.5126 34.5869 40.8406 34.5869Z" />
</g>
</g>
<defs>
<clipPath id="clip0_1002_11153">
<rect width="56" height="56" fill="white" transform="translate(0.666656 0.5)"/>
</clipPath>
<clipPath id="clip1_1002_11153">
<rect width="56" height="56" fill="white" transform="translate(0.666656 0.5)"/>
</clipPath>
</defs>
</svg>
