<svg viewBox="0 0 512 512" fill="none" xmlns="http://www.w3.org/2000/svg">
<g clip-path="url(#clip0_101_3643)">
<g clip-path="url(#clip1_101_3643)">
<path d="M256.004 119.479C284.241 119.479 307.204 96.5157 307.204 68.2787V42.6787C307.204 19.1517 288.064 0.0117188 264.537 0.0117188H247.47C223.944 0.0117188 204.804 19.1517 204.804 42.6787V68.2787C204.804 96.5147 227.767 119.479 256.004 119.479ZM221.871 42.6787C221.871 28.5647 233.357 17.0787 247.471 17.0787H264.538C278.652 17.0787 290.138 28.5647 290.138 42.6787V68.2787C290.138 87.1037 274.829 102.412 256.005 102.412C237.18 102.412 221.872 87.1027 221.872 68.2787V42.6787H221.871Z" />
<path d="M264.537 238.945H247.47C223.944 238.945 204.803 258.085 204.803 281.612V307.212C204.803 335.449 227.766 358.412 256.003 358.412C284.24 358.412 307.203 335.449 307.203 307.212V281.612C307.204 258.086 288.064 238.945 264.537 238.945ZM290.137 307.212C290.137 326.037 274.828 341.345 256.004 341.345C237.179 341.345 221.871 326.036 221.871 307.212V281.612C221.871 267.498 233.357 256.012 247.471 256.012H264.538C278.652 256.012 290.138 267.498 290.138 281.612V307.212H290.137Z" />
<path d="M281.604 162.144V187.744C281.604 215.981 304.567 238.944 332.804 238.944C361.041 238.944 384.004 215.981 384.004 187.744V162.144C384.004 138.618 364.864 119.477 341.337 119.477H324.27C300.744 119.478 281.604 138.618 281.604 162.144ZM298.671 162.144C298.671 148.03 310.157 136.544 324.271 136.544H341.339C355.452 136.544 366.938 148.03 366.938 162.144V187.744C366.938 206.569 351.629 221.877 332.805 221.877C313.98 221.877 298.672 206.568 298.672 187.744V162.144H298.671Z" />
<path d="M409.604 358.412C437.841 358.412 460.804 335.449 460.804 307.212V281.612C460.804 258.086 441.664 238.945 418.137 238.945H401.07C377.544 238.945 358.403 258.085 358.403 281.612V307.212C358.404 335.449 381.367 358.412 409.604 358.412ZM375.471 281.612C375.471 267.498 386.957 256.012 401.071 256.012H418.138C432.252 256.012 443.738 267.498 443.738 281.612V307.212C443.738 326.037 428.429 341.345 409.605 341.345C390.78 341.345 375.472 326.036 375.472 307.212V281.612H375.471Z" />
<path d="M281.962 375.59C278.148 375.667 274.547 377.945 273.429 381.666L256.004 439.683L238.579 381.673C237.495 378.072 234.184 375.606 230.421 375.597C200.819 375.512 179.033 381.912 166.378 394.55C158.024 402.887 153.604 413.997 153.604 426.678V503.478C153.604 508.188 157.427 512.011 162.137 512.011C166.847 512.011 170.67 508.188 170.67 503.478V426.678C170.67 418.512 173.281 411.77 178.435 406.625C186.84 398.237 202.542 393.484 224.088 392.758L247.828 471.802C248.912 475.403 252.24 477.878 256.003 477.878C259.766 477.878 263.094 475.403 264.178 471.802L287.918 392.749C309.456 393.483 325.166 398.236 333.571 406.624C338.725 411.77 341.336 418.511 341.336 426.677V503.477C341.336 508.187 345.159 512.01 349.869 512.01C354.579 512.01 358.402 508.187 358.402 503.477V426.677C358.402 413.996 353.982 402.886 345.628 394.549C333.026 381.964 311.607 375.59 281.962 375.59Z" />
<path d="M179.204 238.944C207.441 238.944 230.404 215.981 230.404 187.744V162.144C230.404 138.618 211.264 119.477 187.737 119.477H170.67C147.144 119.477 128.003 138.617 128.003 162.144V187.744C128.004 215.981 150.967 238.944 179.204 238.944ZM145.071 162.144C145.071 148.03 156.557 136.544 170.671 136.544H187.738C201.852 136.544 213.338 148.03 213.338 162.144V187.744C213.338 206.569 198.029 221.877 179.205 221.877C160.381 221.877 145.072 206.568 145.072 187.744V162.144H145.071Z" />
<path d="M499.23 394.551C486.626 381.964 465.208 375.59 435.563 375.59C431.8 375.667 428.148 377.945 427.03 381.666L409.604 439.683L392.179 381.673C391.095 378.072 387.784 375.606 384.03 375.597C378.074 375.691 372.092 375.836 366.571 376.365C361.878 376.817 358.439 380.982 358.882 385.675C359.334 390.36 363.481 393.713 368.192 393.355C371.238 393.065 374.413 392.86 377.69 392.758L401.43 471.802C402.514 475.403 405.842 477.878 409.605 477.878C413.368 477.878 416.696 475.403 417.78 471.802L441.52 392.749C463.058 393.483 478.768 398.236 487.173 406.624C492.327 411.77 494.938 418.511 494.938 426.677V486.412C494.938 491.122 498.761 494.945 503.471 494.945C508.181 494.945 512.004 491.122 512.004 486.412V426.679C512.004 413.998 507.584 402.888 499.23 394.551Z" />
<path d="M102.404 358.412C130.641 358.412 153.604 335.449 153.604 307.212V281.612C153.604 258.086 134.464 238.945 110.937 238.945H93.8713C70.3453 238.945 51.2043 258.085 51.2043 281.612V307.212C51.2043 335.449 74.1673 358.412 102.404 358.412ZM68.2713 281.612C68.2713 267.498 79.7573 256.012 93.8713 256.012H110.938C125.052 256.012 136.538 267.498 136.538 281.612V307.212C136.538 326.037 121.229 341.345 102.405 341.345C83.5803 341.345 68.2723 326.036 68.2723 307.212V281.612H68.2713Z" />
<path d="M145.907 376.409C140.42 375.863 134.489 375.59 128.277 375.59C124.463 375.616 120.938 377.971 119.829 381.666L102.404 439.683L84.9794 381.673C83.8954 378.072 80.5844 375.606 76.8214 375.597C46.5874 375.512 25.4334 381.912 12.7784 394.55C4.42439 402.888 0.00439453 413.998 0.00439453 426.679V486.412C0.00439453 491.122 3.82739 494.945 8.53739 494.945C13.2474 494.945 17.0704 491.122 17.0704 486.412V426.679C17.0704 418.513 19.6814 411.771 24.8354 406.626C33.2404 398.238 48.9424 393.485 70.4884 392.759L94.2284 471.803C95.3124 475.404 98.6404 477.879 102.403 477.879C106.166 477.879 109.494 475.404 110.578 471.803L134.318 392.75C137.774 392.869 141.076 393.083 144.2 393.398C148.979 393.901 153.075 390.437 153.544 385.752C154.014 381.059 150.592 376.887 145.907 376.409Z" />
</g>
</g>
<defs>
<clipPath id="clip0_101_3643">
<rect width="512" height="512" fill="white"/>
</clipPath>
<clipPath id="clip1_101_3643">
<rect width="512" height="512" fill="white" transform="translate(0.00439453 0.0117188)"/>
</clipPath>
</defs>
</svg>
