<svg width="56" height="56" viewBox="0 0 56 56" xmlns="http://www.w3.org/2000/svg">
<g clip-path="url(#clip0_2342_206)">
<path d="M53.9688 25.3204C52.8348 14.3154 44.6673 5.0027 33.8406 2.52929C33.3375 2.41357 32.8381 2.72901 32.7234 3.23213C32.6086 3.73427 32.9222 4.23543 33.4253 4.35027C39.3286 5.69799 44.3779 9.24098 47.7603 14H44.3536C43.8374 14 43.4203 14.4181 43.4203 14.9333C43.4203 15.4484 43.8374 15.8666 44.3536 15.8666H48.9577C50.6414 18.7543 51.739 21.9976 52.104 25.4239C51.389 25.73 50.8356 26.3292 50.5733 27.0666H44.8007C44.2846 27.0666 43.8674 27.4847 43.8674 27.9999C43.8674 28.515 44.2846 28.9332 44.8007 28.9332H50.5734C50.9598 30.0177 51.9855 30.7999 53.2007 30.7999C54.7444 30.7999 56.0007 29.5436 56.0007 27.9999C56.0007 26.7241 55.1383 25.6573 53.9688 25.3204ZM53.2007 28.9333C52.6855 28.9333 52.2674 28.5143 52.2674 28C52.2674 27.496 52.6706 27.09 53.17 27.0731C53.1784 27.0722 53.1849 27.0722 53.1933 27.0722C53.1988 27.0712 53.2026 27.0684 53.2081 27.0675C53.7196 27.0722 54.134 27.4875 54.134 27.9999C54.134 28.5143 53.7159 28.9333 53.2007 28.9333Z" fill="#8167AB"/>
<path d="M3.14558 23.759C3.21001 23.772 3.27443 23.7786 3.33688 23.7786C3.7699 23.7786 4.15818 23.4761 4.2506 23.0356C4.63516 21.1847 5.24832 19.3919 6.05102 17.6847C6.20874 17.7127 6.36832 17.7333 6.53358 17.7333C8.0773 17.7333 9.33358 16.477 9.33358 14.9333C9.33358 13.3896 8.0773 12.1333 6.53358 12.1333C4.98987 12.1333 3.73358 13.3896 3.73358 14.9333C3.73358 15.6323 4.00046 16.2652 4.42516 16.7561C3.52818 18.6359 2.84787 20.6136 2.42218 22.6548C2.31685 23.1597 2.64158 23.6544 3.14558 23.759ZM6.53358 14C7.04874 14 7.46688 14.419 7.46688 14.9333C7.46688 15.4476 7.04874 15.8666 6.53358 15.8666C6.01843 15.8666 5.60029 15.4476 5.60029 14.9333C5.60029 14.419 6.01843 14 6.53358 14Z" fill="#8167AB"/>
<path d="M22.5592 51.6462C12.5436 49.3521 4.98361 40.7486 3.89719 30.5762C4.89677 30.1488 5.60049 29.1548 5.60049 28.0002C5.60049 26.4565 4.34421 25.2002 2.80049 25.2002C1.25677 25.2002 0.000488281 26.4565 0.000488281 28.0002C0.000488281 29.2761 0.86291 30.3429 2.03235 30.6798C3.16536 41.6763 11.3246 50.9882 22.1419 53.4662C22.2119 53.4821 22.2819 53.4895 22.3509 53.4895C22.7765 53.4895 23.1611 53.1974 23.26 52.7643C23.3749 52.2622 23.0613 51.761 22.5592 51.6462ZM2.82007 28.9298C2.81536 28.9298 2.81164 28.9279 2.80793 28.9279C2.80235 28.9289 2.79863 28.9316 2.79294 28.9326C2.2815 28.9279 1.86708 28.5126 1.86708 28.0002C1.86708 27.4859 2.28522 27.0669 2.80038 27.0669C3.31554 27.0669 3.73368 27.4859 3.73368 28.0002C3.73379 28.5079 3.32505 28.9186 2.82007 28.9298Z" fill="#8167AB"/>
<path d="M52.8534 32.2467C52.341 32.1413 51.8538 32.4651 51.7484 32.97C51.2146 35.5367 50.2681 37.9437 48.997 40.1333H44.3537C43.8375 40.1333 43.4204 40.5514 43.4204 41.0666C43.4204 41.5817 43.8375 41.9999 44.3537 41.9999H47.8014C43.9962 47.3563 38.0817 51.07 31.3766 52.0109C33.4253 50.3972 36.2654 47.697 38.623 43.805C38.8097 43.8452 39.0028 43.8666 39.2007 43.8666C40.7444 43.8666 42.0007 42.6103 42.0007 41.0666C42.0007 40.2098 41.605 39.45 40.9964 38.9358C42.277 35.5245 42.934 31.8517 42.934 27.9999C42.934 24.0649 42.3133 20.3633 41.1037 16.9753C41.6525 16.4639 42.0007 15.7405 42.0007 14.9332C42.0007 13.3895 40.7444 12.1332 39.2007 12.1332C39.0821 12.1332 38.9683 12.1537 38.8535 12.1686C36.2066 7.65876 32.87 4.83634 30.742 3.36733C30.7811 3.18434 30.8008 2.99403 30.8008 2.79989C30.8006 1.25628 29.5443 0 28.0006 0C26.7303 0 25.6673 0.855859 25.3256 2.01698C18.9724 2.66372 13.1157 5.58884 8.76557 10.3199C8.41655 10.6988 8.44171 11.2896 8.82058 11.6377C9.00072 11.8029 9.22658 11.8841 9.45244 11.8841C9.70346 11.8841 9.95546 11.7833 10.1394 11.5827C13.9773 7.40972 19.077 4.74972 24.6331 3.97972C22.2223 5.87442 18.8483 9.14856 16.3591 14H11.6673C11.1511 14 10.734 14.4181 10.734 14.9333C10.734 15.4485 11.1511 15.8666 11.6673 15.8666H15.4856C14.1434 19.0092 13.2231 22.7313 13.1037 27.0666H8.40058C7.88444 27.0666 7.46729 27.4847 7.46729 27.9999C7.46729 28.515 7.88444 28.9332 8.40058 28.9332H13.1017C13.2119 33.3049 14.0556 37.0242 15.3109 40.1332H11.6672C11.151 40.1332 10.7339 40.5513 10.7339 41.0665C10.7339 41.5816 11.151 41.9998 11.6672 41.9998H16.1425C18.8678 47.5588 22.7785 50.9243 25.2583 52.6342C25.2201 52.8172 25.2005 53.0056 25.2005 53.1998C25.2005 54.7435 26.4568 55.9998 28.0005 55.9998C29.2763 55.9998 30.3432 55.1374 30.6792 53.9689C41.9072 52.8162 51.2676 44.4489 53.5766 33.3497C53.6822 32.8459 53.3574 32.3512 52.8534 32.2467ZM39.2006 42C38.6854 42 38.2673 41.581 38.2673 41.0667C38.2673 40.5524 38.6854 40.1334 39.2006 40.1334C39.7157 40.1334 40.1339 40.5524 40.1339 41.0667C40.1339 41.581 39.7157 42 39.2006 42ZM39.2006 14C39.7157 14 40.1339 14.419 40.1339 14.9333C40.1339 15.4476 39.7157 15.8666 39.2006 15.8666C38.6854 15.8666 38.2673 15.4476 38.2673 14.9333C38.2673 14.419 38.6854 14 39.2006 14ZM28.0006 1.8667C28.5157 1.8667 28.9339 2.28572 28.9339 2.8C28.9339 3.31428 28.5157 3.7333 28.0006 3.7333C27.4919 3.7333 27.0803 3.32358 27.071 2.81673C27.071 2.81389 27.072 2.81116 27.072 2.80744C27.072 2.80273 27.0691 2.8 27.0683 2.7953C27.071 2.28298 27.4873 1.8667 28.0006 1.8667ZM28.9339 28C28.9339 28.5143 28.5157 28.9333 28.0006 28.9333C27.4854 28.9333 27.0673 28.5143 27.0673 28C27.0673 27.4857 27.4854 27.0667 28.0006 27.0667C28.5157 27.0667 28.9339 27.4857 28.9339 28ZM17.8337 41.1954C17.8393 41.1516 17.8599 41.1124 17.8599 41.0666C17.8599 40.7409 17.6826 40.4674 17.4296 40.3013C15.9577 37.0029 14.9339 32.9532 14.9339 28C14.9339 22.918 16.1164 18.7087 17.7852 15.2992C17.7862 15.2973 17.7862 15.2963 17.787 15.2945C20.3257 10.107 23.9853 6.77502 26.3252 5.02961C26.5492 5.19859 26.7975 5.33203 27.0672 5.42719V14H20.5339C20.0177 14 19.6006 14.4181 19.6006 14.9333C19.6006 15.4485 20.0177 15.8666 20.5339 15.8666H27.0672V25.3717C26.2757 25.6536 25.6542 26.2761 25.3732 27.0667H17.7339C17.2177 27.0667 16.8006 27.4848 16.8006 28C16.8006 28.5152 17.2177 28.9333 17.7339 28.9333H25.3732C25.6542 29.7239 26.2757 30.3463 27.0672 30.6273V40.1333H20.5339C20.0177 40.1333 19.6006 40.5514 19.6006 41.0666C19.6006 41.5817 20.0177 41.9999 20.5339 41.9999H27.0672V50.5716C26.761 50.6808 26.4839 50.8413 26.2365 51.0429C23.9284 49.4359 20.3473 46.3139 17.8337 41.1954ZM28.0006 54.1333C27.4854 54.1333 27.0673 53.7143 27.0673 53.2C27.0673 52.6857 27.4854 52.2667 28.0006 52.2667C28.5093 52.2667 28.9209 52.6764 28.9302 53.1833C28.9302 53.1861 28.9292 53.1888 28.9292 53.1926C28.9292 53.1973 28.932 53.2 28.9329 53.2056C28.9293 53.7171 28.5139 54.1333 28.0006 54.1333ZM29.675 50.9693C29.451 50.8013 29.2027 50.6679 28.9339 50.5717V30.6283C30.0175 30.241 30.8006 29.2153 30.8006 28C30.8006 26.7847 30.0176 25.759 28.9339 25.3717V5.42828C29.239 5.31913 29.5163 5.15944 29.7627 4.95786C31.7283 6.328 34.7523 8.91614 37.179 13.006C36.9102 13.287 36.7058 13.6257 36.5733 14H31.2673C30.7511 14 30.334 14.4181 30.334 14.9333C30.334 15.4485 30.7511 15.8666 31.2673 15.8666H36.5733C36.9597 16.9512 37.9854 17.7333 39.2006 17.7333C39.264 17.7333 39.3237 17.7183 39.3854 17.7146C40.4018 20.6014 40.96 23.7383 41.0477 27.0666H33.6006C33.0844 27.0666 32.6673 27.4847 32.6673 27.9999C32.6673 28.515 33.0844 28.9332 33.6006 28.9332H41.0467C40.9506 32.2158 40.3477 35.3499 39.2529 38.2722C39.2351 38.2712 39.2193 38.2666 39.2006 38.2666C37.9854 38.2666 36.9596 39.0487 36.5733 40.1333H31.2673C30.7511 40.1333 30.334 40.5514 30.334 41.0666C30.334 41.5817 30.7511 41.9999 31.2673 41.9999H36.5733C36.6806 42.3023 36.8383 42.5786 37.0381 42.823C34.602 46.8496 31.6089 49.5254 29.675 50.9693Z" fill="#8167AB"/>
</g>
<defs>
<clipPath id="clip0_2342_206">
<rect width="56" height="56" transform="translate(0.000488281)"/>
</clipPath>
</defs>
</svg>
