<svg viewBox="0 0 56 57" xmlns="http://www.w3.org/2000/svg">
<g clip-path="url(#clip0_447_1570)">
<g clip-path="url(#clip1_447_1570)">
<path d="M12.1337 28.5021C12.1337 27.987 11.7156 27.5688 11.2004 27.5688H8.40229C7.88714 27.5688 7.46899 27.987 7.46899 28.5021C7.46899 29.0173 7.88714 29.4354 8.40229 29.4354H11.2004C11.7156 29.4354 12.1337 29.0182 12.1337 28.5021Z"   />
<path d="M10.9009 39.227C11.0596 39.227 11.22 39.1868 11.3666 39.1019L12.1739 38.6352C12.62 38.3777 12.7731 37.8064 12.5155 37.3603C12.2569 36.9132 11.6866 36.7592 11.2396 37.0187L10.4323 37.4854C9.98618 37.7439 9.83404 38.3142 10.0916 38.7612C10.2643 39.0599 10.5779 39.227 10.9009 39.227Z"   />
<path d="M12.2515 18.1189L11.4432 17.6522C10.9952 17.3946 10.4259 17.5476 10.1683 17.9938C9.91072 18.4408 10.0637 19.0111 10.5099 19.2686L11.3182 19.7353C11.4656 19.8203 11.6262 19.8604 11.7839 19.8604C12.1069 19.8604 12.4204 19.6933 12.593 19.3937C12.8506 18.9477 12.6975 18.3765 12.2515 18.1189Z"   />
<path d="M14.0005 54.6345H0.933785C0.418629 54.6345 0.000488281 55.0527 0.000488281 55.5678C0.000488281 56.083 0.418629 56.5012 0.933785 56.5012H14.0005C14.5156 56.5012 14.9338 56.0831 14.9338 55.5679C14.9338 55.0528 14.5156 54.6345 14.0005 54.6345Z"   />
<path d="M14.0005 50.9011H0.933785C0.418629 50.9011 0.000488281 51.3193 0.000488281 51.8344C0.000488281 52.3496 0.418629 52.7677 0.933785 52.7677H14.0005C14.5156 52.7677 14.9338 52.3496 14.9338 51.8344C14.9338 51.3193 14.5156 50.9011 14.0005 50.9011Z"   />
<path d="M3.83277 41.6332C3.97463 41.6332 4.11835 41.6015 4.25375 41.5334C4.71389 41.3001 4.89775 40.7391 4.66533 40.2789C2.80891 36.6082 1.86719 32.6452 1.86719 28.5012C1.86719 14.0915 13.5908 2.36792 28.0005 2.36792C42.4102 2.36792 54.1338 14.0915 54.1338 28.5498C54.1338 29.6072 54.1338 31.2051 53.8696 32.2728C53.7455 32.7731 54.0507 33.2789 54.5509 33.4031C55.0502 33.5272 55.5571 33.2221 55.6812 32.7208C56.0005 31.4328 56.0005 29.6978 56.0005 28.5012C56.0005 13.0621 43.4396 0.501221 28.0005 0.501221C12.5613 0.501221 0.000488281 13.0621 0.000488281 28.5012C0.000488281 32.9402 1.00947 37.1868 2.99933 41.1208C3.1635 41.4465 3.49207 41.6332 3.83277 41.6332Z"   />
<path d="M51.0875 30.6582C51.597 30.7562 52.0823 30.4202 52.1776 29.9143C52.297 29.2853 52.2682 28.5703 52.2672 28.5013C52.2672 15.121 41.3807 4.23462 28.0005 4.23462C14.6202 4.23462 3.73376 15.1209 3.73376 28.5012C3.73376 32.9831 4.96576 37.3614 7.29534 41.1628C7.47176 41.4512 7.77791 41.6089 8.09236 41.6089C8.2585 41.6089 8.4265 41.5651 8.57864 41.4708C9.0192 41.2019 9.15636 40.6271 8.88664 40.1875C6.73731 36.6801 5.60047 32.6387 5.60047 28.5012C5.60047 16.1495 15.6487 6.10121 28.0005 6.10121C40.3522 6.10121 50.4005 16.1495 50.4015 28.4582C50.3996 28.4918 50.3986 28.5422 50.4006 28.5768C50.4071 28.7215 50.4109 29.2142 50.3436 29.5671C50.2475 30.0739 50.5806 30.5621 51.0875 30.6582Z"   />
<path d="M44.6343 17.9003L43.827 18.367C43.3809 18.6246 43.2279 19.1958 43.4854 19.6419C43.6581 19.9415 43.9717 20.1086 44.2946 20.1086C44.4533 20.1086 44.6137 20.0684 44.7613 19.9836L45.5686 19.5169C46.0147 19.2583 46.1669 18.688 45.9093 18.241C45.6516 17.7949 45.0795 17.6409 44.6343 17.9003Z"   />
<path d="M17.7403 10.5925C17.2942 10.8501 17.142 11.4213 17.3996 11.8675L17.8663 12.6748C18.039 12.9743 18.3526 13.1415 18.6755 13.1415C18.8342 13.1415 18.9946 13.1013 19.1412 13.0165C19.5873 12.7579 19.7403 12.1876 19.4828 11.7406L19.0161 10.9333C18.7576 10.4871 18.1864 10.334 17.7403 10.5925Z"   />
<path d="M37.233 11.0105L36.7663 11.8188C36.5087 12.265 36.6618 12.8361 37.1079 13.0937C37.2553 13.1787 37.4149 13.2187 37.5736 13.2187C37.8966 13.2187 38.2092 13.0517 38.3828 12.752L38.8495 11.9437C39.1071 11.4967 38.954 10.9264 38.5079 10.6688C38.059 10.4104 37.4896 10.5635 37.233 11.0105Z"   />
<path d="M32.6672 54.6345H21.4672C20.9521 54.6345 20.5339 55.0527 20.5339 55.5678C20.5339 56.083 20.9521 56.5011 21.4672 56.5011H32.6672C33.1824 56.5011 33.6005 56.083 33.6005 55.5678C33.6005 55.0527 33.1824 54.6345 32.6672 54.6345Z"   />
<path d="M21.4672 52.768H29.1522C29.6684 52.768 30.0855 52.3498 30.0855 51.8347C30.0855 51.3195 29.6684 50.9014 29.1522 50.9014H21.4672C20.9521 50.9014 20.5339 51.3195 20.5339 51.8347C20.5339 52.3498 20.952 52.768 21.4672 52.768Z"   />
<path d="M17.7338 43.4346C17.2187 43.4346 16.8005 43.8527 16.8005 44.3679V55.5679C16.8005 56.083 17.2187 56.5012 17.7338 56.5012C18.249 56.5012 18.6671 56.083 18.6671 55.5679V44.3679C18.6672 43.8527 18.2491 43.4346 17.7338 43.4346Z"   />
<path d="M42.9337 38.768C43.9632 38.768 44.8004 39.6052 44.8004 40.6347C44.8004 41.1499 45.2186 41.568 45.7337 41.568C46.2489 41.568 46.667 41.1499 46.667 40.6347C46.667 38.9006 45.4723 37.4511 43.867 37.0339V36.9013C43.867 36.3862 43.4489 35.968 42.9337 35.968C42.4186 35.968 42.0004 36.3862 42.0004 36.9013V37.0339C40.3951 37.451 39.2004 38.9006 39.2004 40.6347C39.2004 42.6937 40.8749 44.368 42.9337 44.368C43.9632 44.368 44.8004 45.2052 44.8004 46.2347C44.8004 47.2643 43.9633 48.1014 42.9337 48.1014C41.9043 48.1014 41.067 47.2643 41.067 46.2347C41.067 45.7196 40.6489 45.3014 40.1337 45.3014C39.6186 45.3014 39.2004 45.7196 39.2004 46.2347C39.2004 47.9689 40.3951 49.4183 42.0004 49.8356V49.9681C42.0004 50.4833 42.4186 50.9014 42.9337 50.9014C43.4489 50.9014 43.867 50.4833 43.867 49.9681V49.8356C45.4723 49.4184 46.667 47.9689 46.667 46.2347C46.667 44.1757 44.9926 42.5014 42.9337 42.5014C41.9043 42.5014 41.067 41.6643 41.067 40.6347C41.067 39.6052 41.9043 38.768 42.9337 38.768Z"   />
<path d="M42.9338 30.3679C35.7285 30.3679 29.8671 36.2292 29.8671 43.4346C29.8671 50.64 35.7285 56.5012 42.9338 56.5012C50.1391 56.5012 56.0005 50.6399 56.0005 43.4345C56.0005 36.2291 50.1392 30.3679 42.9338 30.3679ZM42.9338 54.6345C36.7579 54.6345 31.7338 49.6104 31.7338 43.4345C31.7338 37.2587 36.7579 32.2345 42.9338 32.2345C49.1096 32.2345 54.1338 37.2587 54.1338 43.4345C54.1338 49.6104 49.1096 54.6345 42.9338 54.6345Z"   />
<path d="M14.0005 43.4346H0.933785C0.418629 43.4346 0.000488281 43.8527 0.000488281 44.3679C0.000488281 44.883 0.418629 45.3012 0.933785 45.3012H14.0005C14.5156 45.3012 14.9338 44.883 14.9338 44.3679C14.9338 43.8527 14.5156 43.4346 14.0005 43.4346Z"   />
<path d="M28.0005 31.3013C29.2156 31.3013 30.2415 30.5192 30.6288 29.4346H31.7338C32.2489 29.4346 32.6671 29.0165 32.6671 28.5013C32.6671 27.9862 32.2489 27.568 31.7338 27.568H30.6288C30.3469 26.7775 29.7243 26.155 28.9338 25.873V8.90131C28.9338 8.38616 28.5156 7.96802 28.0005 7.96802C27.4853 7.96802 27.0672 8.38616 27.0672 8.90131V25.873C26.2766 26.1549 25.6542 26.7775 25.3722 27.568H14.9338C14.4186 27.568 14.0005 27.9862 14.0005 28.5013C14.0005 29.0165 14.4186 29.4346 14.9338 29.4346H25.3731C25.7595 30.5192 26.7853 31.3013 28.0005 31.3013ZM28.0005 27.568C28.5148 27.568 28.9338 27.987 28.9338 28.5013C28.9338 29.0156 28.5148 29.4346 28.0005 29.4346C27.4862 29.4346 27.0672 29.0156 27.0672 28.5013C27.0672 27.987 27.4862 27.568 28.0005 27.568Z"   />
<path d="M14.0005 47.168H0.933785C0.418629 47.168 0.000488281 47.5861 0.000488281 48.1013C0.000488281 48.6164 0.418629 49.0346 0.933785 49.0346H14.0005C14.5156 49.0346 14.9338 48.6164 14.9338 48.1013C14.9338 47.5861 14.5156 47.168 14.0005 47.168Z"   />
<path d="M21.4672 49.0346H27.5339C28.0491 49.0346 28.4672 48.6164 28.4672 48.1013C28.4672 47.5861 28.0491 47.168 27.5339 47.168H21.4672C20.9521 47.168 20.5339 47.5861 20.5339 48.1013C20.5339 48.6164 20.952 49.0346 21.4672 49.0346Z"   />
<path d="M21.4672 45.3012H27.0672C27.5824 45.3012 28.0005 44.883 28.0005 44.3679C28.0005 43.8527 27.5824 43.4346 27.0672 43.4346H21.4672C20.9521 43.4346 20.5339 43.8527 20.5339 44.3679C20.5339 44.883 20.952 45.3012 21.4672 45.3012Z"   />
</g>
</g>
<defs>
<clipPath id="clip0_447_1570">
<rect width="56" height="56" fill="white" transform="translate(0 0.5)"/>
</clipPath>
<clipPath id="clip1_447_1570">
<rect width="56" height="56" fill="white" transform="translate(0.000488281 0.501221)"/>
</clipPath>
</defs>
</svg>
