<svg width="56" height="56" viewBox="0 0 56 56" fill="none" xmlns="http://www.w3.org/2000/svg">
<path d="M52.6401 42.7384H3.36012C2.12462 42.7384 1.12012 41.7339 1.12012 40.4984V7.53541C1.12012 6.29991 2.12462 5.29541 3.36012 5.29541H52.6401C53.8756 5.29541 54.8801 6.29991 54.8801 7.53541V40.4984C54.8801 41.7339 53.8756 42.7384 52.6401 42.7384ZM3.36012 6.97541C3.05212 6.97541 2.80012 7.22741 2.80012 7.53541V40.4984C2.80012 40.8064 3.05212 41.0584 3.36012 41.0584H52.6401C52.9481 41.0584 53.2001 40.8064 53.2001 40.4984V7.53541C53.2001 7.22741 52.9481 6.97541 52.6401 6.97541H3.36012Z" fill="#8167AB"/>
<path d="M52.6401 42.7385H3.36012C2.12462 42.7385 1.12012 41.734 1.12012 40.4985V35.3815C1.12012 34.916 1.49462 34.5415 1.96012 34.5415H54.0401C54.5056 34.5415 54.8801 34.916 54.8801 35.3815V40.4985C54.8801 41.734 53.8756 42.7385 52.6401 42.7385ZM2.80012 36.2215V40.4985C2.80012 40.8065 3.05212 41.0585 3.36012 41.0585H52.6401C52.9481 41.0585 53.2001 40.8065 53.2001 40.4985V36.2215H2.80012Z" fill="#8167AB"/>
<path d="M38.6364 50.7044H17.3634C16.8979 50.7044 16.5234 50.3299 16.5234 49.8644C16.5234 49.3989 16.8979 49.0244 17.3634 49.0244H38.6364C39.1019 49.0244 39.4764 49.3989 39.4764 49.8644C39.4764 50.3299 39.1019 50.7044 38.6364 50.7044Z" fill="#8167AB"/>
<path d="M20.1042 50.7046C19.9852 50.7046 19.8627 50.6801 19.7472 50.6241C19.3272 50.4281 19.1452 49.9276 19.3447 49.5076L23.0827 41.5416C23.2227 41.2476 23.5167 41.0586 23.8422 41.0586H32.1582C32.4837 41.0586 32.7812 41.2476 32.9177 41.5416L36.6557 49.5076C36.8517 49.9276 36.6732 50.4281 36.2532 50.6241C35.8332 50.8201 35.3327 50.6416 35.1367 50.2216L31.6262 42.7386H24.3742L20.8637 50.2216C20.7202 50.5261 20.4192 50.7046 20.1042 50.7046Z" fill="#8167AB"/>
<path d="M11.6728 31.9373H8.51578C8.05028 31.9373 7.67578 31.5628 7.67578 31.0973V23.6178C7.67578 23.1523 8.05028 22.7778 8.51578 22.7778H11.6728C12.1383 22.7778 12.5128 23.1523 12.5128 23.6178V31.0973C12.5128 31.5628 12.1348 31.9373 11.6728 31.9373ZM9.35578 30.2573H10.8328V24.4578H9.35578V30.2573Z" fill="#8167AB"/>
<path d="M18.8477 31.9374H15.2672C14.8017 31.9374 14.4272 31.5629 14.4272 31.0974V25.7809C14.4272 25.3154 14.8017 24.9409 15.2672 24.9409H18.8442C19.3097 24.9409 19.6842 25.3154 19.6842 25.7809V31.0974C19.6877 31.5629 19.3097 31.9374 18.8477 31.9374ZM16.1072 30.2574H18.0042V26.6209H16.1072V30.2574Z" fill="#8167AB"/>
<path d="M26.0226 31.9373H22.4421C21.9766 31.9373 21.6021 31.5628 21.6021 31.0973V23.6178C21.6021 23.1523 21.9766 22.7778 22.4421 22.7778H26.0191C26.4846 22.7778 26.8591 23.1523 26.8591 23.6178V31.0973C26.8626 31.5628 26.4846 31.9373 26.0226 31.9373ZM23.2821 30.2573H25.1791V24.4578H23.2821V30.2573Z" fill="#8167AB"/>
<path d="M33.1978 31.9375H29.6173C29.1518 31.9375 28.7773 31.563 28.7773 31.0975V26.5265C28.7773 26.061 29.1518 25.6865 29.6173 25.6865H33.1943C33.6598 25.6865 34.0343 26.061 34.0343 26.5265V31.0975C34.0378 31.563 33.6598 31.9375 33.1978 31.9375ZM30.4573 30.2575H32.3543V27.3665H30.4573V30.2575Z" fill="#8167AB"/>
<path d="M40.3726 31.9375H36.7956C36.3301 31.9375 35.9556 31.563 35.9556 31.0975V24.444C35.9556 23.9785 36.3301 23.604 36.7956 23.604H40.3726C40.8381 23.604 41.2126 23.9785 41.2126 24.444V31.101C41.2126 31.563 40.8346 31.9375 40.3726 31.9375ZM37.6356 30.2575H39.5326V25.284H37.6356V30.2575Z" fill="#8167AB"/>
<path d="M47.5479 31.9374H43.9709C43.5054 31.9374 43.1309 31.5629 43.1309 31.0974V25.7809C43.1309 25.3154 43.5054 24.9409 43.9709 24.9409H47.5479C48.0134 24.9409 48.3879 25.3154 48.3879 25.7809V31.0974C48.3879 31.5629 48.0099 31.9374 47.5479 31.9374ZM44.8109 30.2574H46.7079V26.6209H44.8109V30.2574Z" fill="#8167AB"/>
<path d="M17.7735 14.7102H14.319C13.8535 14.7102 13.479 14.3357 13.479 13.8702V10.4157C13.479 9.95018 13.8535 9.57568 14.319 9.57568C16.685 9.57568 18.6135 11.5007 18.6135 13.8702C18.6135 14.3357 18.2355 14.7102 17.7735 14.7102ZM15.159 13.0302H16.7935C16.531 12.2637 15.9255 11.6547 15.159 11.3957V13.0302Z" fill="#8167AB"/>
<path d="M11.9073 20.5796C11.8863 20.5796 11.8653 20.5796 11.8443 20.5796C10.7243 20.5656 9.67081 20.1176 8.87281 19.3196C8.07481 18.5216 7.62681 17.4681 7.61281 16.3481C7.59531 15.1896 8.03631 14.0976 8.84831 13.2716C9.66031 12.4456 10.7488 11.9941 11.9038 11.9941C12.3693 11.9941 12.7438 12.3686 12.7438 12.8341V15.4486H15.3583C15.8238 15.4486 16.1983 15.8231 16.1983 16.2886C16.1983 17.4471 15.7433 18.5321 14.9208 19.3441C14.1123 20.1386 13.0448 20.5796 11.9073 20.5796ZM11.0673 13.8071C10.6858 13.9366 10.3358 14.1536 10.0453 14.4476C9.55181 14.9481 9.28231 15.6131 9.29281 16.3201C9.31381 17.7201 10.4688 18.8751 11.8688 18.8961C12.5723 18.9031 13.2408 18.6371 13.7413 18.1436C14.0353 17.8531 14.2523 17.5031 14.3818 17.1216H11.9038C11.4383 17.1216 11.0638 16.7471 11.0638 16.2816V13.8071H11.0673Z" fill="#8167AB"/>
<path d="M31.1396 12.4564H21.1681C20.7026 12.4564 20.3281 12.0819 20.3281 11.6164C20.3281 11.1509 20.7026 10.7764 21.1681 10.7764H31.1396C31.6051 10.7764 31.9796 11.1509 31.9796 11.6164C31.9796 12.0819 31.6016 12.4564 31.1396 12.4564Z" fill="#8167AB"/>
<path d="M47.5477 12.4564H34.7272C34.2617 12.4564 33.8872 12.0819 33.8872 11.6164C33.8872 11.1509 34.2617 10.7764 34.7272 10.7764H47.5477C48.0132 10.7764 48.3877 11.1509 48.3877 11.6164C48.3877 12.0819 48.0097 12.4564 47.5477 12.4564Z" fill="#8167AB"/>
<path d="M38.8536 15.9178H21.1681C20.7026 15.9178 20.3281 15.5433 20.3281 15.0778C20.3281 14.6123 20.7026 14.2378 21.1681 14.2378H38.8536C39.3191 14.2378 39.6936 14.6123 39.6936 15.0778C39.6936 15.5433 39.3191 15.9178 38.8536 15.9178Z" fill="#8167AB"/>
<path d="M47.5478 15.9178H42.4308C41.9653 15.9178 41.5908 15.5433 41.5908 15.0778C41.5908 14.6123 41.9653 14.2378 42.4308 14.2378H47.5478C48.0133 14.2378 48.3878 14.6123 48.3878 15.0778C48.3878 15.5433 48.0098 15.9178 47.5478 15.9178Z" fill="#8167AB"/>
<path d="M31.4966 19.3792H21.1681C20.7026 19.3792 20.3281 19.0047 20.3281 18.5392C20.3281 18.0737 20.7026 17.6992 21.1681 17.6992H31.4966C31.9621 17.6992 32.3366 18.0737 32.3366 18.5392C32.3366 19.0047 31.9621 19.3792 31.4966 19.3792Z" fill="#8167AB"/>
<path d="M47.5476 19.3792H35.0036C34.5381 19.3792 34.1636 19.0047 34.1636 18.5392C34.1636 18.0737 34.5381 17.6992 35.0036 17.6992H47.5476C48.0131 17.6992 48.3876 18.0737 48.3876 18.5392C48.3876 19.0047 48.0096 19.3792 47.5476 19.3792Z" fill="#8167AB"/>
</svg>
