<svg viewBox="0 0 56 57" xmlns="http://www.w3.org/2000/svg">
<g clip-path="url(#clip0_447_5503)">
<g clip-path="url(#clip1_447_5503)">
<path d="M48.3033 13.9144C47.9795 13.514 47.3915 13.4534 46.991 13.7782C46.5906 14.102 46.53 14.69 46.8548 15.0904C50.3445 19.3922 52.2672 24.8186 52.2672 30.3691C52.2672 43.7494 41.3808 54.6358 28.0005 54.6358C14.6202 54.6358 3.73378 43.7494 3.73378 30.3691C3.73378 17.3016 14.1181 6.61858 27.0671 6.12585V9.85914C16.1769 10.3491 7.46708 19.3604 7.46708 30.3691C7.46719 41.6914 16.6782 50.9024 28.0005 50.9024C39.3228 50.9024 48.5338 41.6913 48.5338 30.3691C48.5338 24.8064 46.3461 19.5976 42.3728 15.7037C42.0041 15.3434 41.4134 15.349 41.0521 15.7167C40.6918 16.0844 40.6974 16.6762 41.0661 17.0364C44.6781 20.5766 46.6671 25.3123 46.6671 30.3691C46.6671 40.662 38.2932 49.0358 28.0004 49.0358C17.7075 49.0358 9.33378 40.6619 9.33378 30.3691C9.33378 20.3918 17.2092 12.241 27.0671 11.7501V15.4834C19.2681 15.9687 13.0671 22.4498 13.0671 30.3691C13.0671 38.603 19.7665 45.3024 28.0004 45.3024C36.2342 45.3024 42.9337 38.603 42.9337 30.3691C42.9337 24.0477 38.9307 18.388 32.9741 16.2843C32.486 16.1126 31.9549 16.3673 31.7832 16.8536C31.6115 17.3398 31.8662 17.8727 32.3525 18.0446C37.5652 19.8851 41.0671 24.8374 41.0671 30.3693C41.0671 37.5745 35.2058 43.436 28.0004 43.436C20.795 43.436 14.9337 37.5747 14.9337 30.3693C14.9337 23.4794 20.2975 17.8318 27.067 17.3502V21.0835C22.3574 21.553 18.667 25.5374 18.667 30.3693C18.667 35.5157 22.854 39.7026 28.0003 39.7026C33.1466 39.7026 37.3336 35.5156 37.3336 30.3693C37.3336 26.8002 35.3474 23.5961 32.1489 22.0066C31.6869 21.7751 31.1269 21.9655 30.8973 22.4275C30.6686 22.8885 30.8571 23.4486 31.3183 23.6782C33.8774 24.9494 35.467 27.5133 35.467 30.3693C35.467 34.4862 32.1172 37.836 28.0003 37.836C23.8833 37.836 20.5336 34.4862 20.5336 30.3693C20.5336 26.5687 23.3896 23.429 27.0669 22.967V26.7684C25.4616 27.1856 24.2669 28.6351 24.2669 30.3693C24.2669 32.4282 25.9413 34.1025 28.0002 34.1025C30.059 34.1025 31.7335 32.4281 31.7335 30.3693C31.7335 29.8541 31.3153 29.436 30.8002 29.436C30.285 29.436 29.8669 29.8541 29.8669 30.3693C29.8669 31.3987 29.0297 32.236 28.0002 32.236C26.9707 32.236 26.1335 31.3988 26.1335 30.3693C26.1335 29.6814 26.5115 29.086 27.0667 28.7621V30.3693C27.0667 30.8844 27.4849 31.3026 28 31.3026C28.5152 31.3026 28.9333 30.8844 28.9333 30.3693V2.36925H35.4666V9.83596H31.7333C31.2182 9.83596 30.8 10.2541 30.8 10.7693C30.8 11.2844 31.2182 11.7026 31.7333 11.7026H35.4666V12.6358C35.4666 13.151 35.8848 13.5691 36.3999 13.5691H43.8666C44.3818 13.5691 44.7999 13.151 44.7999 12.6358V3.30244C44.7999 2.78729 44.3818 2.36914 43.8666 2.36914H40.1333C39.6182 2.36914 39.2 2.78729 39.2 3.30244C39.2 3.8176 39.6182 4.23574 40.1333 4.23574H42.9333V11.7024H37.3333V1.43574C37.3333 0.920582 36.9152 0.502441 36.4 0.502441H28.0005C27.4853 0.502441 27.0672 0.920582 27.0672 1.43574V4.25904C13.0877 4.75374 1.86719 16.272 1.86719 30.369C1.86719 44.7789 13.5908 56.5024 28.0005 56.5024C42.4102 56.5024 54.1338 44.7789 54.1338 30.3691C54.1338 24.392 52.0636 18.5475 48.3033 13.9144Z"   />
</g>
</g>
<defs>
<clipPath id="clip0_447_5503">
<rect width="56" height="56" fill="white" transform="translate(0 0.5)"/>
</clipPath>
<clipPath id="clip1_447_5503">
<rect width="56" height="56" fill="white" transform="translate(0.000488281 0.502441)"/>
</clipPath>
</defs>
</svg>
