<svg viewBox="0 0 57 57" xmlns="http://www.w3.org/2000/svg">
<g clip-path="url(#clip0_1002_11166)">
<g clip-path="url(#clip1_1002_11166)">
<path d="M40.1018 34.8974C39.6002 34.4482 38.8296 34.492 38.3828 34.9924C35.8434 37.8301 32.1815 39.4566 28.3333 39.4566C24.4863 39.4566 20.8232 37.8301 18.2837 34.9924C17.8345 34.492 17.0663 34.4482 16.5648 34.8974C16.0632 35.3454 16.0218 36.1148 16.4698 36.6164C19.4707 39.9691 23.7948 41.8913 28.3333 41.8913C32.8729 41.8913 37.1971 39.9679 40.1968 36.6164C40.6448 36.1148 40.6022 35.3454 40.1018 34.8974Z" />
<path d="M28.3333 0.5C12.8944 0.5 0.333313 13.061 0.333313 28.5C0.333313 43.939 12.8944 56.5 28.3333 56.5C43.7723 56.5 56.3333 43.939 56.3333 28.5C56.3333 13.061 43.7723 0.5 28.3333 0.5ZM28.3333 54.0652C14.2359 54.0652 2.7681 42.5974 2.7681 28.5C2.7681 14.4026 14.2359 2.93478 28.3333 2.93478C42.4307 2.93478 53.8985 14.4026 53.8985 28.5C53.8985 42.5974 42.4307 54.0652 28.3333 54.0652Z" />
<path d="M38.0724 19.978C34.7161 19.978 31.9855 22.7086 31.9855 26.065C31.9855 26.737 32.5309 27.2824 33.2029 27.2824C33.8749 27.2824 34.4203 26.737 34.4203 26.065C34.4203 24.0514 36.0589 22.4128 38.0724 22.4128C40.086 22.4128 41.7246 24.0514 41.7246 26.065C41.7246 26.737 42.27 27.2824 42.942 27.2824C43.614 27.2824 44.1594 26.737 44.1594 26.065C44.1594 22.7086 41.4288 19.978 38.0724 19.978Z" />
<path d="M22.2463 26.065C22.2463 26.737 22.7917 27.2824 23.4637 27.2824C24.1357 27.2824 24.6811 26.737 24.6811 26.065C24.6811 22.7086 21.9505 19.978 18.5942 19.978C15.2378 19.978 12.5072 22.7086 12.5072 26.065C12.5072 26.737 13.0526 27.2824 13.7246 27.2824C14.3966 27.2824 14.942 26.737 14.942 26.065C14.942 24.0514 16.5806 22.4128 18.5942 22.4128C20.6077 22.4128 22.2463 24.0514 22.2463 26.065Z" />
</g>
</g>
<defs>
<clipPath id="clip0_1002_11166">
<rect width="56" height="56" fill="white" transform="translate(0.333313 0.5)"/>
</clipPath>
<clipPath id="clip1_1002_11166">
<rect width="56" height="56" fill="white" transform="translate(0.333313 0.5)"/>
</clipPath>
</defs>
</svg>
