<svg viewBox="0 0 56 57" xmlns="http://www.w3.org/2000/svg">
<g clip-path="url(#clip0_1002_11140)">
<g clip-path="url(#clip1_1002_11140)">
<path d="M28 34.5869C23.4616 34.5869 19.1386 36.5092 16.1365 39.8619C15.6885 40.3634 15.7311 41.1316 16.2315 41.5808C16.4628 41.789 16.7537 41.8913 17.0435 41.8913C17.3771 41.8913 17.7106 41.7549 17.9504 41.4859C20.4911 38.6481 24.1543 37.0217 28 37.0217C31.847 37.0217 35.5101 38.6481 38.0496 41.4859C38.4976 41.9874 39.2682 42.0288 39.7685 41.5808C40.2689 41.1328 40.3115 40.3634 39.8635 39.8619C36.8626 36.5104 32.5397 34.5869 28 34.5869Z" />
<path d="M28 0.5C12.5598 0.5 0 13.061 0 28.5C0 43.939 12.5598 56.5 28 56.5C43.4402 56.5 56 43.939 56 28.5C56 13.061 43.4402 0.5 28 0.5ZM28 54.0652C13.9038 54.0652 2.43478 42.5974 2.43478 28.5C2.43478 14.4026 13.9038 2.93478 28 2.93478C42.0962 2.93478 53.5652 14.4026 53.5652 28.5C53.5652 42.5974 42.0962 54.0652 28 54.0652Z" />
<path d="M42.6087 19.978C41.9355 19.978 41.3913 20.5234 41.3913 21.1954C41.3913 23.209 39.7527 24.8476 37.7391 24.8476C35.7256 24.8476 34.087 23.209 34.087 21.1954C34.087 20.5234 33.5428 19.978 32.8696 19.978C32.1963 19.978 31.6522 20.5234 31.6522 21.1954C31.6522 24.5518 34.3828 27.2824 37.7391 27.2824C41.0955 27.2824 43.8261 24.5518 43.8261 21.1954C43.8261 20.5234 43.2819 19.978 42.6087 19.978Z" />
<path d="M24.3478 21.1954C24.3478 20.5234 23.8037 19.978 23.1304 19.978C22.4572 19.978 21.913 20.5234 21.913 21.1954C21.913 23.209 20.2744 24.8476 18.2609 24.8476C16.2473 24.8476 14.6087 23.209 14.6087 21.1954C14.6087 20.5234 14.0645 19.978 13.3913 19.978C12.7181 19.978 12.1739 20.5234 12.1739 21.1954C12.1739 24.5518 14.9045 27.2824 18.2609 27.2824C21.6172 27.2824 24.3478 24.5518 24.3478 21.1954Z" />
</g>
</g>
<defs>
<clipPath id="clip0_1002_11140">
<rect width="56" height="56" fill="white" transform="translate(0 0.5)"/>
</clipPath>
<clipPath id="clip1_1002_11140">
<rect width="56" height="56" fill="white" transform="translate(0 0.5)"/>
</clipPath>
</defs>
</svg>
