<svg viewBox="0 0 56 57" xmlns="http://www.w3.org/2000/svg">
<g clip-path="url(#clip0_1002_12009)">
<path d="M55.125 28.1689C55.125 13.2126 42.9564 1.04395 28 1.04395C23.3109 1.04395 18.7425 2.25845 14.6921 4.54395H11.375V1.04395H6.125V12.1451C2.695 16.8176 0.875 22.3476 0.875 28.1689C0.875 43.1262 13.0436 55.2939 28 55.2939C31.3329 55.2939 34.5861 54.6946 37.6705 53.5168C39.431 54.6359 41.5135 55.2939 43.75 55.2939C46.4782 55.2939 49.1173 54.3131 51.1805 52.5324L50.0369 51.2077C48.2913 52.7144 46.0591 53.5439 43.75 53.5439C38.4431 53.5439 34.125 49.2258 34.125 43.9189C34.125 38.6121 38.4431 34.2939 43.75 34.2939C49.0569 34.2939 53.375 38.6121 53.375 43.9189C53.375 46.1371 52.6418 48.2222 51.2531 49.9486L52.6172 51.0458C54.2342 49.0342 55.125 46.5037 55.125 43.9189C55.125 41.6807 54.4661 39.5982 53.3461 37.8368C54.523 34.7516 55.125 31.5018 55.125 28.1689ZM14.875 9.79395H16.625V11.5439V22.0439H14.875V9.79395ZM11.375 6.29395H13.125V8.04395V22.0439H11.375V6.29395ZM7.875 2.79395H9.625V4.54395V22.0439H7.875V2.79395ZM27.125 53.5221C13.8285 53.0679 3.101 42.3404 2.64688 29.0439H27.125V53.5221ZM27.125 27.2939H2.66C2.80262 23.0344 3.98563 18.9639 6.125 15.3353V23.7939H9.625H11.375H13.125H14.875H16.625H18.375H20.125H21.875H25.375V15.0439H21.875V11.5439H18.375V8.04395H14.875V6.46195C18.5771 4.21845 22.7841 2.97332 27.125 2.82457V27.2939ZM18.375 22.0439V13.2939H20.125V15.0439V22.0439H18.375ZM21.875 22.0439V16.7939H23.625V22.0439H21.875ZM53.3531 27.2939H45.8623L52.297 20.8592C52.9148 22.9076 53.277 25.0644 53.3531 27.2939ZM48.944 13.8627L39.1711 23.6356L40.4084 24.8728L49.9021 15.3791C50.5811 16.5376 51.17 17.7538 51.6618 19.0199L43.3877 27.2939H37.9873L39.1186 26.1626L37.8814 24.9253L35.5127 27.2939H30.1123L46.5386 10.8676C47.4119 11.8038 48.2178 12.8031 48.944 13.8627ZM28.875 2.81582C31.1045 2.89195 33.2614 3.2542 35.3097 3.87195L28.875 10.3067V2.81582ZM28.875 20.6562L39.5089 10.0223L38.2716 8.78507L28.875 18.1817V12.7812L37.149 4.5072C38.4151 4.99807 39.6314 5.58695 40.7899 6.26682L39.3802 7.67645L40.6175 8.9137L42.3062 7.22495C43.3659 7.9512 44.3651 8.7562 45.3014 9.63032L28.875 26.0567V20.6562ZM43.75 32.5439C37.478 32.5439 32.375 37.6469 32.375 43.9189C32.375 47.2098 33.7881 50.1691 36.029 52.2481C33.7234 53.0172 31.325 53.4416 28.875 53.5238V29.0439H53.3549C53.2726 31.4931 52.8447 33.8897 52.0765 36.1953C49.9975 33.9553 47.0391 32.5439 43.75 32.5439Z" />
<path d="M22.1351 32.7997L11.635 43.2998L12.8725 44.5372L23.3726 34.0371L22.1351 32.7997Z" />
<path d="M21 39.5439C19.5527 39.5439 18.375 40.7217 18.375 42.1689C18.375 43.6162 19.5527 44.7939 21 44.7939C22.4472 44.7939 23.625 43.6162 23.625 42.1689C23.625 40.7217 22.4472 39.5439 21 39.5439ZM21 43.0439C20.5179 43.0439 20.125 42.6519 20.125 42.1689C20.125 41.6859 20.5179 41.2939 21 41.2939C21.4821 41.2939 21.875 41.6859 21.875 42.1689C21.875 42.6519 21.4821 43.0439 21 43.0439Z" />
<path d="M14 32.5439C12.5527 32.5439 11.375 33.7217 11.375 35.1689C11.375 36.6162 12.5527 37.7939 14 37.7939C15.4472 37.7939 16.625 36.6162 16.625 35.1689C16.625 33.7217 15.4472 32.5439 14 32.5439ZM14 36.0439C13.5179 36.0439 13.125 35.6519 13.125 35.1689C13.125 34.6859 13.5179 34.2939 14 34.2939C14.4821 34.2939 14.875 34.6859 14.875 35.1689C14.875 35.6519 14.4821 36.0439 14 36.0439Z" />
<path d="M43.75 43.0439C42.7849 43.0439 42 42.2591 42 41.2939C42 40.3288 42.7849 39.5439 43.75 39.5439C44.7151 39.5439 45.5 40.3288 45.5 41.2939H47.25C47.25 39.6673 46.13 38.3093 44.625 37.9182V36.0439H42.875V37.9182C41.37 38.3093 40.25 39.6673 40.25 41.2939C40.25 43.2242 41.8197 44.7939 43.75 44.7939C44.7151 44.7939 45.5 45.5788 45.5 46.5439C45.5 47.5091 44.7151 48.2939 43.75 48.2939C42.7849 48.2939 42 47.5091 42 46.5439H40.25C40.25 48.1706 41.37 49.5286 42.875 49.9197V51.7939H44.625V49.9197C46.13 49.5286 47.25 48.1706 47.25 46.5439C47.25 44.6137 45.6803 43.0439 43.75 43.0439Z" />
<path d="M51.625 43.0439H49.875V44.7939H51.625V43.0439Z" />
<path d="M37.625 43.0439H35.875V44.7939H37.625V43.0439Z" />
</g>
<defs>
<clipPath id="clip0_1002_12009">
<rect width="54.25" height="54.25" fill="white" transform="translate(0.875 1.04395)"/>
</clipPath>
</defs>
</svg>
