<svg viewBox="0 0 56 56" xmlns="http://www.w3.org/2000/svg">
<g clip-path="url(#clip0_1002_11794)">
<path d="M21.875 33.25C17.0424 33.25 13.125 37.1674 13.125 42C13.125 46.8326 17.0424 50.75 21.875 50.75C26.7076 50.75 30.625 46.8326 30.625 42C30.6199 37.1696 26.7054 33.2551 21.875 33.25ZM21.875 49C18.0089 49 14.875 45.8661 14.875 42C14.875 38.1339 18.0089 35 21.875 35C25.7411 35 28.875 38.1339 28.875 42C28.8707 45.864 25.739 48.9957 21.875 49Z" />
<path d="M21.875 39.375C22.9435 39.375 23.625 39.8928 23.625 40.25H25.375C25.375 39.0067 24.2736 37.9997 22.75 37.7126V36.75H21V37.7126C19.4764 37.9976 18.375 39.005 18.375 40.25C18.375 41.7227 19.9122 42.875 21.875 42.875C22.9435 42.875 23.625 43.3928 23.625 43.75C23.625 44.1072 22.9435 44.625 21.875 44.625C20.8065 44.625 20.125 44.1072 20.125 43.75H18.375C18.375 44.9933 19.4764 46.0003 21 46.2874V47.25H22.75V46.2874C24.2736 46.0024 25.375 44.995 25.375 43.75C25.375 42.2773 23.8378 41.125 21.875 41.125C20.8065 41.125 20.125 40.6072 20.125 40.25C20.125 39.8928 20.8065 39.375 21.875 39.375Z" />
<path d="M46.375 52.5H9.625V31.5H23.625C25.0746 31.5 26.25 30.3246 26.25 28.875V7H35.875V17.5H46.375V29.75H48.125V16.2627L37.1123 5.25H26.25V4.375C26.25 2.92535 25.0746 1.75 23.625 1.75H4.375C2.92535 1.75 1.75 2.92535 1.75 4.375V28.875C1.75 30.3246 2.92535 31.5 4.375 31.5H7.875V54.25H48.125V42H46.375V52.5ZM37.625 8.2373L45.1377 15.75H37.625V8.2373ZM3.5 28.875V4.375C3.5 3.89178 3.89178 3.5 4.375 3.5H23.625C24.1082 3.5 24.5 3.89178 24.5 4.375V28.875C24.5 29.3582 24.1082 29.75 23.625 29.75H4.375C3.89178 29.75 3.5 29.3582 3.5 28.875Z" />
<path d="M29.75 23.625H31.5V25.375H29.75V23.625Z" />
<path d="M33.25 23.625H43.75V25.375H33.25V23.625Z" />
<path d="M29.75 20.125H31.5V21.875H29.75V20.125Z" />
<path d="M33.25 20.125H43.75V21.875H33.25V20.125Z" />
<path d="M29.75 27.125H31.5V28.875H29.75V27.125Z" />
<path d="M33.25 27.125H43.75V28.875H33.25V27.125Z" />
<path d="M29.75 30.625H31.5V32.375H29.75V30.625Z" />
<path d="M33.25 30.625H43.75V32.375H33.25V30.625Z" />
<path d="M23.625 4.375H4.375V10.5H23.625V4.375ZM21.875 8.75H6.125V6.125H21.875V8.75Z" />
<path d="M8.75 11.375H7C6.03357 11.375 5.25 12.1586 5.25 13.125V14.875C5.25 15.8414 6.03357 16.625 7 16.625H8.75C9.71643 16.625 10.5 15.8414 10.5 14.875V13.125C10.5 12.1586 9.71643 11.375 8.75 11.375ZM7 14.875V13.125H8.75V14.875H7Z" />
<path d="M14.875 11.375H13.125C12.1586 11.375 11.375 12.1586 11.375 13.125V14.875C11.375 15.8414 12.1586 16.625 13.125 16.625H14.875C15.8414 16.625 16.625 15.8414 16.625 14.875V13.125C16.625 12.1586 15.8414 11.375 14.875 11.375ZM13.125 14.875V13.125H14.875V14.875H13.125Z" />
<path d="M21 11.375H19.25C18.2836 11.375 17.5 12.1586 17.5 13.125V14.875C17.5 15.8414 18.2836 16.625 19.25 16.625H21C21.9664 16.625 22.75 15.8414 22.75 14.875V13.125C22.75 12.1586 21.9664 11.375 21 11.375ZM19.25 14.875V13.125H21V14.875H19.25Z" />
<path d="M8.75 17.5H7C6.03357 17.5 5.25 18.2836 5.25 19.25V21C5.25 21.9664 6.03357 22.75 7 22.75H8.75C9.71643 22.75 10.5 21.9664 10.5 21V19.25C10.5 18.2836 9.71643 17.5 8.75 17.5ZM7 21V19.25H8.75V21H7Z" />
<path d="M14.875 17.5H13.125C12.1586 17.5 11.375 18.2836 11.375 19.25V21C11.375 21.9664 12.1586 22.75 13.125 22.75H14.875C15.8414 22.75 16.625 21.9664 16.625 21V19.25C16.625 18.2836 15.8414 17.5 14.875 17.5ZM13.125 21V19.25H14.875V21H13.125Z" />
<path d="M21 17.5H19.25C18.2836 17.5 17.5 18.2836 17.5 19.25V21C17.5 21.9664 18.2836 22.75 19.25 22.75H21C21.9664 22.75 22.75 21.9664 22.75 21V19.25C22.75 18.2836 21.9664 17.5 21 17.5ZM19.25 21V19.25H21V21H19.25Z" />
<path d="M8.75 23.625H7C6.03357 23.625 5.25 24.4086 5.25 25.375V27.125C5.25 28.0914 6.03357 28.875 7 28.875H8.75C9.71643 28.875 10.5 28.0914 10.5 27.125V25.375C10.5 24.4086 9.71643 23.625 8.75 23.625ZM7 27.125V25.375H8.75V27.125H7Z" />
<path d="M14.875 23.625H13.125C12.1586 23.625 11.375 24.4086 11.375 25.375V27.125C11.375 28.0914 12.1586 28.875 13.125 28.875H14.875C15.8414 28.875 16.625 28.0914 16.625 27.125V25.375C16.625 24.4086 15.8414 23.625 14.875 23.625ZM13.125 27.125V25.375H14.875V27.125H13.125Z" />
<path d="M21 23.625H19.25C18.2836 23.625 17.5 24.4086 17.5 25.375V27.125C17.5 28.0914 18.2836 28.875 19.25 28.875H21C21.9664 28.875 22.75 28.0914 22.75 27.125V25.375C22.75 24.4086 21.9664 23.625 21 23.625ZM19.25 27.125V25.375H21V27.125H19.25Z" />
<path d="M53.4553 29.6698C52.4167 28.6781 50.7825 28.6781 49.7438 29.6698L34.7436 44.6695C34.671 44.743 34.6116 44.8284 34.5685 44.9224L32.4562 49.5094C32.3036 49.8418 32.3741 50.2344 32.6331 50.4929C32.8915 50.7518 33.2842 50.8223 33.6166 50.6698L38.2035 48.5574C38.2975 48.5143 38.3829 48.4553 38.4564 48.3823L53.4553 33.3821C54.4807 32.3571 54.4807 30.6947 53.4553 29.6698ZM37.3285 47.033L35.0359 48.0892L36.092 45.7966L47.2761 34.6117L48.5134 35.849L37.3285 47.033ZM49.7532 34.6079L48.5159 33.371L49.1286 32.7583L50.3659 33.9956L49.7532 34.6079ZM52.221 32.1405L51.6024 32.7592L50.365 31.5219L50.9846 30.9032C51.3302 30.5725 51.8749 30.5725 52.221 30.9032C52.5624 31.245 52.5624 31.7987 52.221 32.1405Z" />
</g>
<defs>
<clipPath id="clip0_1002_11794">
<rect width="52.5" height="52.5" fill="white" transform="translate(1.75 1.75)"/>
</clipPath>
</defs>
</svg>
