<svg viewBox="0 0 24 24"  xmlns="http://www.w3.org/2000/svg">
<g clip-path="url(#clip0_644_2337)">
<path d="M12.2502 5.86723C13.5187 5.86723 14.5502 4.83569 14.5502 3.56723V2.41723C14.5502 1.36035 13.6904 0.500549 12.6335 0.500549H11.8668C10.81 0.500549 9.9502 1.36035 9.9502 2.41723V3.56723C9.9502 4.83564 10.9817 5.86723 12.2502 5.86723ZM10.7169 2.41723C10.7169 1.7832 11.2328 1.26723 11.8669 1.26723H12.6336C13.2676 1.26723 13.7836 1.7832 13.7836 2.41723V3.56723C13.7836 4.41289 13.0958 5.10055 12.2502 5.10055C11.4046 5.10055 10.7169 4.41284 10.7169 3.56723V2.41723H10.7169Z"   />
<path d="M12.6336 11.2339H11.8669C10.81 11.2339 9.9502 12.0937 9.9502 13.1506V14.3006C9.9502 15.569 10.9817 16.6006 12.2502 16.6006C13.5187 16.6006 14.5502 15.569 14.5502 14.3006V13.1506C14.5502 12.0937 13.6904 11.2339 12.6336 11.2339ZM13.7836 14.3006C13.7836 15.1462 13.0958 15.8339 12.2502 15.8339C11.4046 15.8339 10.7169 15.1462 10.7169 14.3006V13.1506C10.7169 12.5165 11.2329 12.0006 11.8669 12.0006H12.6336C13.2676 12.0006 13.7836 12.5165 13.7836 13.1506V14.3006H13.7836Z"   />
<path d="M13.4003 7.78387V8.93387C13.4003 10.2023 14.4318 11.2339 15.7003 11.2339C16.9687 11.2339 18.0003 10.2023 18.0003 8.93387V7.78387C18.0003 6.72704 17.1405 5.86719 16.0836 5.86719H15.3169C14.2601 5.86723 13.4003 6.72704 13.4003 7.78387ZM14.1669 7.78387C14.1669 7.14984 14.6829 6.63387 15.3169 6.63387H16.0836C16.7177 6.63387 17.2336 7.14984 17.2336 7.78387V8.93387C17.2336 9.77952 16.5459 10.4672 15.7003 10.4672C14.8547 10.4672 14.167 9.77948 14.167 8.93387V7.78387H14.1669Z"   />
<path d="M19.1503 16.6006C20.4187 16.6006 21.4503 15.569 21.4503 14.3006V13.1506C21.4503 12.0937 20.5905 11.2339 19.5336 11.2339H18.7669C17.7101 11.2339 16.8502 12.0937 16.8502 13.1506V14.3006C16.8503 15.569 17.8818 16.6006 19.1503 16.6006ZM17.6169 13.1506C17.6169 12.5165 18.1329 12.0006 18.7669 12.0006H19.5336C20.1677 12.0006 20.6836 12.5165 20.6836 13.1506V14.3006C20.6836 15.1462 19.9959 15.8339 19.1503 15.8339C18.3047 15.8339 17.617 15.1462 17.617 14.3006V13.1506H17.6169Z"   />
<path d="M13.4164 17.3722C13.245 17.3757 13.0833 17.478 13.033 17.6451L12.2503 20.2514L11.4675 17.6455C11.4188 17.4837 11.2701 17.3729 11.101 17.3725C9.77126 17.3687 8.79259 17.6562 8.2241 18.2239C7.84882 18.5984 7.65027 19.0975 7.65027 19.6672V23.1172C7.65027 23.3287 7.822 23.5005 8.03359 23.5005C8.24517 23.5005 8.41691 23.3287 8.41691 23.1172V19.6672C8.41691 19.3003 8.5342 18.9975 8.76572 18.7663C9.14329 18.3895 9.84866 18.176 10.8165 18.1434L11.883 21.6942C11.9317 21.856 12.0812 21.9672 12.2502 21.9672C12.4193 21.9672 12.5688 21.856 12.6175 21.6942L13.6839 18.143C14.6514 18.176 15.3572 18.3895 15.7347 18.7663C15.9663 18.9975 16.0835 19.3003 16.0835 19.6671V23.1171C16.0835 23.3287 16.2553 23.5004 16.4669 23.5004C16.6784 23.5004 16.8502 23.3287 16.8502 23.1171V19.6671C16.8502 19.0975 16.6516 18.5984 16.2763 18.2239C15.7102 17.6585 14.7481 17.3722 13.4164 17.3722Z"   />
<path d="M8.80029 11.2339C10.0687 11.2339 11.1003 10.2023 11.1003 8.93387V7.78387C11.1003 6.72704 10.2405 5.86719 9.18361 5.86719H8.41693C7.36009 5.86719 6.50024 6.72699 6.50024 7.78387V8.93387C6.50029 10.2023 7.53183 11.2339 8.80029 11.2339ZM7.26697 7.78387C7.26697 7.14984 7.78294 6.63387 8.41697 6.63387H9.18365C9.81768 6.63387 10.3337 7.14984 10.3337 7.78387V8.93387C10.3337 9.77952 9.64594 10.4672 8.80033 10.4672C7.95472 10.4672 7.26702 9.77948 7.26702 8.93387V7.78387H7.26697Z"   />
<path d="M23.1764 18.224C22.6102 17.6585 21.6481 17.3722 20.3164 17.3722C20.1473 17.3757 19.9833 17.478 19.9331 17.6451L19.1502 20.2514L18.3675 17.6455C18.3188 17.4837 18.1701 17.3729 18.0014 17.3725C17.7339 17.3767 17.4651 17.3832 17.2171 17.407C17.0063 17.4273 16.8518 17.6144 16.8717 17.8252C16.892 18.0357 17.0783 18.1863 17.2899 18.1702C17.4268 18.1572 17.5694 18.148 17.7166 18.1434L18.7831 21.6942C18.8318 21.856 18.9813 21.9672 19.1503 21.9672C19.3193 21.9672 19.4688 21.856 19.5175 21.6942L20.584 18.143C21.5515 18.176 22.2572 18.3895 22.6348 18.7663C22.8663 18.9975 22.9836 19.3003 22.9836 19.6671V22.3505C22.9836 22.5621 23.1553 22.7338 23.3669 22.7338C23.5785 22.7338 23.7502 22.5621 23.7502 22.3505V19.6672C23.7502 19.0976 23.5517 18.5985 23.1764 18.224Z"   />
<path d="M5.35029 16.6006C6.61875 16.6006 7.65029 15.569 7.65029 14.3006V13.1506C7.65029 12.0937 6.79049 11.2339 5.73361 11.2339H4.96697C3.91014 11.2339 3.05029 12.0937 3.05029 13.1506V14.3006C3.05029 15.569 4.08183 16.6006 5.35029 16.6006ZM3.81697 13.1506C3.81697 12.5165 4.33295 12.0006 4.96697 12.0006H5.73366C6.36768 12.0006 6.88366 12.5165 6.88366 13.1506V14.3006C6.88366 15.1462 6.19595 15.8339 5.35034 15.8339C4.50468 15.8339 3.81702 15.1462 3.81702 14.3006V13.1506H3.81697Z"   />
<path d="M7.30448 17.409C7.05799 17.3845 6.79156 17.3722 6.51251 17.3722C6.34118 17.3734 6.18283 17.4792 6.13301 17.6451L5.35024 20.2514L4.56748 17.6455C4.51878 17.4837 4.37005 17.3729 4.20101 17.3725C2.84284 17.3687 1.89256 17.6562 1.32408 18.2239C0.948799 18.5985 0.750244 19.0976 0.750244 19.6672V22.3505C0.750244 22.5621 0.92198 22.7338 1.13356 22.7338C1.34514 22.7338 1.51688 22.5621 1.51688 22.3505V19.6672C1.51688 19.3004 1.63417 18.9975 1.8657 18.7664C2.24327 18.3896 2.94863 18.1761 3.91652 18.1435L4.98296 21.6943C5.03166 21.856 5.18116 21.9672 5.3502 21.9672C5.51924 21.9672 5.66874 21.856 5.71744 21.6943L6.78388 18.1431C6.93913 18.1484 7.08746 18.158 7.2278 18.1722C7.44248 18.1948 7.62648 18.0391 7.64755 17.8287C7.66866 17.6179 7.51494 17.4305 7.30448 17.409Z"   />
</g>
<defs>
<clipPath id="clip0_644_2337">
<rect width="23" height="23" fill="white" transform="translate(0.750244 0.500549)"/>
</clipPath>
</defs>
</svg>
