<svg viewBox="0 0 24 24" xmlns="http://www.w3.org/2000/svg">
<g clip-path="url(#clip0_644_2352)">
<path d="M6.85558 21.256C6.69992 20.3548 5.91217 19.6667 4.96688 19.6667C4.2121 19.6667 3.55813 20.1052 3.2457 20.7408C3.18398 20.6967 3.11803 20.6576 3.0502 20.6223V14.3C3.0502 14.0884 2.87846 13.9167 2.66688 13.9167C2.4553 13.9167 2.28356 14.0884 2.28356 14.3V20.4333C1.43795 20.4333 0.750244 21.121 0.750244 21.9667C0.750244 22.8123 1.43795 23.5 2.28356 23.5H6.50024C7.13427 23.5 7.65024 22.984 7.65024 22.35C7.65024 21.8398 7.31634 21.4062 6.85558 21.256ZM6.50024 22.7333H2.28356C1.86076 22.7333 1.51688 22.3895 1.51688 21.9666C1.51688 21.5438 1.86076 21.2 2.28356 21.2C2.64123 21.2 2.95901 21.4078 3.07437 21.7175C3.13914 21.8912 3.31856 21.9935 3.5018 21.9605C3.68427 21.9276 3.81688 21.7689 3.81688 21.5833C3.81688 20.9493 4.33285 20.4333 4.96688 20.4333C5.60091 20.4333 6.11688 20.9493 6.11688 21.5833C6.11688 21.7949 6.28862 21.9666 6.5002 21.9666C6.71142 21.9666 6.88352 22.1387 6.88352 22.35C6.88352 22.5612 6.71147 22.7333 6.50024 22.7333Z"/>
<path d="M23.3669 3.56668H16.0836C15.872 3.56668 15.7002 3.73842 15.7002 3.95C15.7002 4.16158 15.872 4.33332 16.0836 4.33332H22.9836V12.608L12.5213 2.14567C12.4461 2.07051 12.3476 2.03336 12.2491 2.03336C12.1506 2.03336 12.052 2.07056 11.9769 2.14567L1.51693 12.6076V4.33332H5.73361C5.94519 4.33332 6.11693 4.16158 6.11693 3.95V2.41668C6.11693 2.2051 5.94519 2.03336 5.73361 2.03336H5.35024V1.26668H7.65024V2.03336H7.26693C7.05534 2.03336 6.88361 2.2051 6.88361 2.41668V3.95C6.88361 4.16158 7.05534 4.33332 7.26693 4.33332H8.41693C8.62851 4.33332 8.80024 4.16158 8.80024 3.95C8.80024 3.73842 8.62851 3.56668 8.41693 3.56668H7.65024V2.8H8.03356C8.24514 2.8 8.41688 2.62826 8.41688 2.41668V0.883318C8.41688 0.671736 8.24514 0.5 8.03356 0.5H4.96693C4.75534 0.5 4.58361 0.671736 4.58361 0.883318V2.41664C4.58361 2.62822 4.75534 2.79996 4.96693 2.79996H5.35024V3.56664H1.13356C1.03199 3.56664 0.934244 3.60689 0.862549 3.67894C0.790494 3.75068 0.750244 3.84843 0.750244 3.95L0.751771 13.5333C0.751771 13.6886 0.845299 13.8281 0.988689 13.8875C1.03622 13.9071 1.08568 13.9167 1.13513 13.9167C1.23518 13.9167 1.33333 13.8776 1.40615 13.8044L12.2491 2.95754L23.0959 13.8043C23.1691 13.8776 23.2672 13.9166 23.3669 13.9166C23.4163 13.9166 23.4662 13.9071 23.5137 13.8875C23.6567 13.8281 23.7502 13.6882 23.7502 13.5333V3.95C23.7502 3.73842 23.5785 3.56668 23.3669 3.56668Z"  />
<path d="M22.2169 20.4333V14.3C22.2169 14.0884 22.0451 13.9167 21.8336 13.9167C21.622 13.9167 21.4502 14.0884 21.4502 14.3V20.6223C21.3824 20.6576 21.3165 20.6967 21.2547 20.7408C20.9423 20.1052 20.2883 19.6667 19.5336 19.6667C18.5883 19.6667 17.8005 20.3548 17.6449 21.256C17.1841 21.4062 16.8502 21.8398 16.8502 22.35C16.8502 22.4853 16.8778 22.613 16.9211 22.7333H10.3335C10.1219 22.7333 9.9502 22.9051 9.9502 23.1166C9.9502 23.3282 10.1219 23.5 10.3335 23.5H18.0002H19.5335H22.2168C23.0625 23.5 23.7502 22.8123 23.7502 21.9667C23.7502 21.1211 23.0625 20.4333 22.2169 20.4333ZM22.2169 22.7333H19.5336H18.0002C17.789 22.7333 17.6169 22.5612 17.6169 22.35C17.6169 22.1388 17.789 21.9667 18.0002 21.9667C18.2118 21.9667 18.3835 21.795 18.3835 21.5834C18.3835 20.9493 18.8995 20.4334 19.5335 20.4334C20.1675 20.4334 20.6835 20.9493 20.6835 21.5834C20.6835 21.7689 20.8162 21.9276 20.9986 21.9606C21.1807 21.9939 21.3612 21.8912 21.426 21.7176C21.5414 21.4078 21.8592 21.2001 22.2168 21.2001C22.6396 21.2001 22.9835 21.5439 22.9835 21.9667C22.9835 22.3896 22.6397 22.7333 22.2169 22.7333Z"  />
<path d="M13.7837 8.16668C13.7837 7.32103 13.096 6.63336 12.2504 6.63336C11.4047 6.63336 10.717 7.32107 10.717 8.16668C10.717 9.01229 11.4047 9.7 12.2504 9.7C13.096 9.7 13.7837 9.01229 13.7837 8.16668ZM11.4837 8.16668C11.4837 7.74388 11.8275 7.4 12.2504 7.4C12.6732 7.4 13.017 7.74383 13.017 8.16668C13.017 8.58949 12.6732 8.93336 12.2504 8.93336C11.8276 8.93332 11.4837 8.58949 11.4837 8.16668Z"  />
<path d="M19.5335 13.5333H16.4668C16.2553 13.5333 16.0835 13.7051 16.0835 13.9166V18.1333H15.7002C15.4886 18.1333 15.3169 18.3051 15.3169 18.5166C15.3169 18.7282 15.4886 18.9 15.7002 18.9H20.3002C20.5118 18.9 20.6835 18.7282 20.6835 18.5166C20.6835 18.3051 20.5118 18.1333 20.3002 18.1333H19.9169V13.9166C19.9169 13.7051 19.7452 13.5333 19.5335 13.5333ZM19.1502 18.1333H16.8502V16.6H19.1502V18.1333ZM19.1502 15.8333H16.8502V14.3H19.1502V15.8333Z"  />
<path d="M16.0836 21.5833C16.0836 21.3718 15.9118 21.2 15.7003 21.2H14.5503V13.9167C14.5503 13.7051 14.3785 13.5334 14.1669 13.5334H10.3336C10.122 13.5334 9.95031 13.7051 9.95031 13.9167V21.2H8.80031C8.58873 21.2 8.41699 21.3718 8.41699 21.5833V23.1167C8.41699 23.3282 8.58873 23.5 8.80031 23.5C9.01189 23.5 9.18363 23.3282 9.18363 23.1167V21.9667H15.7003C15.9118 21.9667 16.0836 21.795 16.0836 21.5833ZM13.7836 17.3667H13.4003C13.1887 17.3667 13.0169 17.5384 13.0169 17.75C13.0169 17.9616 13.1887 18.1333 13.4003 18.1333H13.7836V21.2H10.7169V14.3H13.7836V17.3667Z"  />
<path d="M8.03353 13.5333H4.96689C4.75531 13.5333 4.58358 13.7051 4.58358 13.9166V18.1333H4.20021C3.98863 18.1333 3.81689 18.3051 3.81689 18.5166C3.81689 18.7282 3.98863 18.9 4.20021 18.9H8.80021C9.01179 18.9 9.18353 18.7283 9.18353 18.5167C9.18353 18.3051 9.01179 18.1334 8.80021 18.1334H8.41689V13.9167C8.41689 13.7051 8.24516 13.5333 8.03353 13.5333ZM7.65021 18.1333H5.35021V16.6H7.65021V18.1333ZM7.65021 15.8333H5.35021V14.3H7.65021V15.8333Z"  />
</g>
<defs>
<clipPath id="clip0_644_2352">
<rect width="23" height="23" fill="white" transform="translate(0.750244 0.5)"/>
</clipPath>
</defs>
</svg>
