<svg viewBox="0 0 24 24" xmlns="http://www.w3.org/2000/svg">
<g clip-path="url(#clip0_644_2365)">
<path d="M22.1003 21.2006C22.034 21.2006 21.9681 21.2063 21.9033 21.2178C21.6388 20.7413 21.1355 20.4339 20.567 20.4339C19.9985 20.4339 19.4952 20.7413 19.2307 21.2178C19.1659 21.2063 19.1 21.2006 19.0337 21.2006C18.3996 21.2006 17.8837 21.7165 17.8837 22.3506C17.8837 22.4855 17.9112 22.6131 17.9546 22.7339H16.3503V20.4339H18.267C18.4786 20.4339 18.6503 20.2621 18.6503 20.0506V4.71724C18.6503 4.50566 18.4786 4.33392 18.267 4.33392H6.76699C6.5554 4.33392 6.38367 4.50566 6.38367 4.71724V23.1172C6.38367 23.3288 6.5554 23.5006 6.76699 23.5006H22.1003C22.7343 23.5006 23.2503 22.9846 23.2503 22.3506C23.2503 21.7165 22.7343 21.2006 22.1003 21.2006ZM16.3503 5.10056H17.8836V7.40056H16.3503V5.10056ZM16.3503 8.16724H17.8836V10.4672H16.3503V8.16724ZM16.3503 11.2339H17.8836V13.5339H16.3503V11.2339ZM16.3503 14.3006H17.8836V16.6006H16.3503V14.3006ZM16.3503 17.3672H17.8836V19.6672H16.3503V17.3672ZM8.68362 22.7339H7.1503V20.4339H8.68362V22.7339ZM8.68362 19.6672H7.1503V17.3672H8.68362V19.6672ZM8.68362 16.6006H7.1503V14.3006H8.68362V16.6006ZM8.68362 13.5339H7.1503V11.2339H8.68362V13.5339ZM8.68362 10.4672H7.1503V8.16724H8.68362V10.4672ZM8.68362 7.40056H7.1503V5.10056H8.68362V7.40056ZM10.9836 22.7339H9.4503V20.4339H10.9836V22.7339ZM10.9836 19.6672H9.4503V17.3672H10.9836V19.6672ZM10.9836 16.6006H9.4503V14.3006H10.9836V16.6006ZM10.9836 13.5339H9.4503V11.2339H10.9836V13.5339ZM10.9836 10.4672H9.4503V8.16724H10.9836V10.4672ZM10.9836 7.40056H9.4503V5.10056H10.9836V7.40056ZM13.2836 22.7339H11.7503V20.4339H13.2836V22.7339ZM13.2836 19.6672H11.7503V17.3672H13.2836V19.6672ZM13.2836 16.6006H11.7503V14.3006H13.2836V16.6006ZM13.2836 13.5339H11.7503V11.2339H13.2836V13.5339ZM13.2836 10.4672H11.7503V8.16724H13.2836V10.4672ZM13.2836 7.40056H11.7503V5.10056H13.2836V7.40056ZM15.5836 22.7339H14.0503V20.4339H15.5836V22.7339ZM15.5836 19.6672H14.0503V17.3672H15.5836V19.6672ZM15.5836 16.6006H14.0503V14.3006H15.5836V16.6006ZM15.5836 13.5339H14.0503V11.2339H15.5836V13.5339ZM15.5836 10.4672H14.0503V8.16724H15.5836V10.4672ZM15.5836 7.40056H14.0503V5.10056H15.5836V7.40056ZM22.1003 22.7339H19.0336C18.8224 22.7339 18.6503 22.5618 18.6503 22.3506C18.6503 22.1393 18.8224 21.9672 19.0336 21.9672C19.1072 21.9672 19.177 21.9883 19.2414 22.0297C19.3464 22.0972 19.4775 22.1095 19.5933 22.0627C19.7091 22.0159 19.7946 21.9155 19.8225 21.794C19.9034 21.4448 20.2097 21.2006 20.567 21.2006C20.9242 21.2006 21.2305 21.4448 21.3114 21.794C21.3394 21.9155 21.4249 22.0159 21.5407 22.0627C21.6564 22.1095 21.7875 22.0972 21.8926 22.0297C22.1418 21.8687 22.4841 22.0658 22.4837 22.3506C22.4836 22.5618 22.3115 22.7339 22.1003 22.7339Z"   />
<path d="M8.68356 3.18387V2.03387H11.3669C11.5785 2.03387 11.7502 1.86213 11.7502 1.65055V1.26723H13.2835V1.65055C13.2835 1.86213 13.4553 2.03387 13.6668 2.03387H16.3502V2.80055H9.83356C9.62198 2.80055 9.45024 2.97229 9.45024 3.18387C9.45024 3.39545 9.62198 3.56719 9.83356 3.56719H19.4169V19.4675C19.4169 19.679 19.5886 19.8508 19.8002 19.8508C20.0118 19.8508 20.1835 19.679 20.1835 19.4675V3.18387C20.1835 2.97229 20.0118 2.80055 19.8002 2.80055H17.1169V1.65055C17.1169 1.43897 16.9451 1.26723 16.7336 1.26723H14.0502V0.883868C14.0502 0.672286 13.8785 0.500549 13.6669 0.500549H11.3669C11.1553 0.500549 10.9836 0.672286 10.9836 0.883868V1.26719H8.30024C8.08866 1.26719 7.91693 1.43892 7.91693 1.6505V2.8005H5.23361C5.02203 2.8005 4.85029 2.97224 4.85029 3.18382V22.7338H2.55024V21.1618C3.42384 20.9835 4.08356 20.2096 4.08356 19.2838C4.08356 19.234 4.06173 14.3005 2.16688 14.3005C0.272076 14.3005 0.250244 19.234 0.250244 19.2839C0.250244 20.2096 0.909967 20.9836 1.78356 21.1618V22.7339H0.633563C0.42198 22.7339 0.250244 22.9056 0.250244 23.1172C0.250244 23.3288 0.42198 23.5005 0.633563 23.5005H5.23356C5.44514 23.5005 5.61688 23.3288 5.61688 23.1172V3.56723H8.30024C8.51183 3.56723 8.68356 3.39549 8.68356 3.18387ZM1.01693 19.2839C1.01693 17.3741 1.52984 15.0672 2.16693 15.0672C2.80401 15.0672 3.31693 17.3741 3.31693 19.2839C3.31693 19.9179 2.80095 20.4339 2.16693 20.4339C1.5329 20.4339 1.01693 19.9179 1.01693 19.2839Z"   />
</g>
<defs>
<clipPath id="clip0_644_2365">
<rect width="23" height="23" fill="white" transform="translate(0.250244 0.500549)"/>
</clipPath>
</defs>
</svg>
