<svg viewBox="0 0 24 24" xmlns="http://www.w3.org/2000/svg">
<g clip-path="url(#clip0_644_2373)">
<path d="M21.8335 15.8335C21.6215 15.8335 21.4502 16.0052 21.4502 16.2168V22.7335H18.7669C18.5549 22.7335 18.3835 22.9052 18.3835 23.1168C18.3835 23.3284 18.5549 23.5001 18.7669 23.5001H21.8335C22.0455 23.5001 22.2169 23.3284 22.2169 23.1168V16.2168C22.2168 16.0052 22.0454 15.8335 21.8335 15.8335Z"   />
<path d="M20.6833 19.2835V16.2168C20.6833 16.0052 20.512 15.8335 20.3 15.8335H18C17.788 15.8335 17.6167 16.0052 17.6167 16.2168V19.2835C17.6167 19.4951 17.788 19.6668 18 19.6668H20.3C20.512 19.6668 20.6833 19.4951 20.6833 19.2835ZM19.9167 18.9001H18.3834V16.6001H19.9167V18.9001Z"   />
<path d="M15.7 7.01682C15.912 7.01682 16.0833 6.84508 16.0833 6.6335V4.71681C16.0833 4.50523 15.912 4.3335 15.7 4.3335H4.19997C3.98798 4.3335 3.81665 4.50523 3.81665 4.71681V18.1335C3.81665 18.3451 3.98798 18.5168 4.19997 18.5168C4.41196 18.5168 4.58329 18.3451 4.58329 18.1335V17.3668H4.96661C5.17859 17.3668 5.34992 17.1951 5.34992 16.9835C5.34992 16.7719 5.17859 16.6002 4.96661 16.6002H4.58329V14.3002H6.11661V15.8335C6.11661 16.0451 6.28794 16.2168 6.49992 16.2168C6.71191 16.2168 6.88324 16.0451 6.88324 15.8335V14.3002H8.41656C8.62855 14.3002 8.79988 14.1284 8.79988 13.9169C9.01187 13.9169 9.1832 13.7451 9.1832 13.5335V11.2335H10.7165C10.7165 11.4451 10.8878 11.6169 11.0998 11.6169C11.3118 11.6169 11.4832 11.4451 11.4832 11.2335C11.6951 11.2335 11.8665 11.0618 11.8665 10.8502C11.8665 10.6386 11.6951 10.4669 11.4832 10.4669V8.1669H13.0165V8.93359C13.0165 9.14517 13.1878 9.31691 13.3998 9.31691C13.6118 9.31691 13.7831 9.14517 13.7831 8.93359V8.16681H14.5498C14.7618 8.16681 14.9331 7.99508 14.9331 7.7835C14.9331 7.57191 14.7618 7.40018 14.5498 7.40018H13.7831V5.10018H15.3164V6.6335C15.3167 6.84508 15.488 7.01682 15.7 7.01682ZM6.11665 13.5335H4.58329V11.2335H6.11661V13.5335H6.11665ZM6.11665 10.4668H4.58329V8.16681H6.11661V10.4668H6.11665ZM6.11665 7.40013H4.58329V5.10013H6.11661V7.40013H6.11665ZM8.41665 13.5335H6.88333V11.2335H8.41665V13.5335ZM8.41665 10.4668H6.88333V8.16681H8.41665V10.4668ZM8.41665 7.40013H6.88333V5.10013H8.41665V7.40013ZM10.7167 10.4668H9.18333V8.16681H10.7167V10.4668ZM10.7167 7.40013H9.18333V5.10013H10.7167V7.40013ZM13.0167 7.40013H11.4833V5.10013H13.0167V7.40013Z"   />
<path d="M2.66677 20.0501C2.87875 20.0501 3.05008 19.8784 3.05008 19.6668V3.56682H5.7334C5.94539 3.56682 6.11672 3.39508 6.11672 3.1835V2.0335H8.80004C9.01203 2.0335 9.18336 1.86177 9.18336 1.65018V1.26682H10.7167V1.65014C10.7167 1.86172 10.888 2.03346 11.1 2.03346H13.7833V2.80014H7.26677C7.05478 2.80014 6.88345 2.97187 6.88345 3.18346C6.88345 3.39504 7.05478 3.56677 7.26677 3.56677H16.8501V5.10009C16.8501 5.31168 17.0214 5.48341 17.2334 5.48341C17.4454 5.48341 17.6167 5.31168 17.6167 5.10009V3.1835C17.6167 2.97192 17.4454 2.80018 17.2334 2.80018H14.5501V1.65018C14.5501 1.4386 14.3788 1.26686 14.1668 1.26686H11.4834V0.883501C11.4834 0.671919 11.3121 0.500183 11.1001 0.500183H8.80013C8.58814 0.500183 8.41681 0.671919 8.41681 0.883501V1.26682H5.73349C5.52151 1.26682 5.35017 1.43856 5.35017 1.65014V2.80014H2.66677C2.45478 2.80014 2.28345 2.97187 2.28345 3.18346V19.6668C2.2834 19.8784 2.45478 20.0501 2.66677 20.0501Z"   />
<path d="M23.3669 8.93351H20.6836V8.55019C20.6836 8.33861 20.5122 8.16687 20.3002 8.16687H18.7669C18.5549 8.16687 18.3836 8.33861 18.3836 8.55019V9.31687C18.3836 9.52845 18.5549 9.70019 18.7669 9.70019C18.9789 9.70019 19.1502 9.52845 19.1502 9.31687V8.93355H19.9169V9.31687C19.9169 9.52845 20.0883 9.70019 20.3002 9.70019H22.9836V14.9082L17.1213 9.04586C16.9713 8.896 16.7291 8.896 16.5792 9.04586C16.4293 9.19576 16.4293 9.43802 16.5792 9.58788L23.0959 16.1045C23.1691 16.1777 23.2672 16.2168 23.3669 16.2168C23.4163 16.2168 23.4662 16.2073 23.5137 16.1877C23.6571 16.1282 23.7502 15.9884 23.7502 15.8335V9.31683C23.7502 9.1052 23.5789 8.93351 23.3669 8.93351Z"   />
<path d="M17.2333 21.9668H13.4C13.188 21.9668 13.0167 22.1386 13.0167 22.3502V22.7335H9.18338V17.3668C9.18338 17.1553 9.01205 16.9835 8.80007 16.9835C8.58808 16.9835 8.41675 17.1553 8.41675 17.3668V23.1168C8.41675 23.3284 8.58808 23.5002 8.80007 23.5002H13.4001C13.6121 23.5002 13.7834 23.3284 13.7834 23.1168V22.7335H16.8501V23.1168C16.8501 23.3284 17.0214 23.5002 17.2334 23.5002C17.4454 23.5002 17.6167 23.3284 17.6167 23.1168V22.3502C17.6167 22.1386 17.4453 21.9668 17.2333 21.9668Z"   />
<path d="M23.6378 0.612456C23.4879 0.462596 23.2456 0.462596 23.0958 0.612456L0.862395 22.8458C0.712535 22.9957 0.712535 23.238 0.862395 23.3878C0.937145 23.4626 1.0353 23.5002 1.13341 23.5002C1.23156 23.5002 1.32967 23.4626 1.40442 23.3878L23.6378 1.15453C23.7876 1.00462 23.7876 0.76236 23.6378 0.612456Z"   />
<path d="M16.4668 21.2001C16.6788 21.2001 16.8501 21.0284 16.8501 20.8168V16.2168C16.8501 16.0052 16.6788 15.8335 16.4668 15.8335H14.1668C13.9548 15.8335 13.7834 16.0052 13.7834 16.2168V20.8168C13.7834 21.0284 13.9548 21.2001 14.1668 21.2001C14.3788 21.2001 14.5501 21.0284 14.5501 20.8168V16.6001H16.0834V18.1335H15.7001C15.4881 18.1335 15.3168 18.3052 15.3168 18.5168C15.3168 18.7284 15.4881 18.9001 15.7001 18.9001H16.0834V20.8168C16.0834 21.0284 16.2548 21.2001 16.4668 21.2001Z"   />
<path d="M10.3335 15.8335C10.1215 15.8335 9.9502 16.0052 9.9502 16.2168V19.2835C9.9502 19.4951 10.1215 19.6668 10.3335 19.6668H12.6335C12.8455 19.6668 13.0168 19.4951 13.0168 19.2835V16.2168C13.0168 16.0052 12.8455 15.8335 12.6335 15.8335H10.3335ZM12.2502 18.9001H10.7168V16.6001H12.2502V18.9001Z"   />
</g>
<defs>
<clipPath id="clip0_644_2373">
<rect width="23.0002" height="23.0002" fill="white" transform="translate(0.75 0.5)"/>
</clipPath>
</defs>
</svg>
