<svg width="243" height="161" viewBox="0 0 243 161" fill="none" xmlns="http://www.w3.org/2000/svg">
<path d="M94.3618 11.1637C90.1461 8.72976 85.2914 13.143 87.3137 17.571L111.68 70.9235C112.905 73.6062 116.174 74.6511 118.728 73.1766L152.749 53.5341C156.083 51.6096 156.083 46.7984 152.749 44.8739L94.3618 11.1637Z" fill="url(#paint0_linear_1703_100)"/>
<path d="M94.3618 87.2468C90.1461 89.6807 85.2914 85.2675 87.3137 80.8395L113.964 22.4839L152.749 44.8764C156.083 46.8009 156.083 51.6121 152.749 53.5366L94.3618 87.2468Z" fill="url(#paint1_linear_1703_100)"/>
<path d="M215.76 100.876V138.54C215.76 142.185 216.754 145.025 218.742 147.06C220.73 149.048 223.546 150.042 227.191 150.042C228.895 150.042 230.528 149.758 232.09 149.19L231.735 143.581C230.693 144.054 229.581 144.291 228.398 144.291C226.457 144.291 224.99 143.747 223.996 142.658C223.049 141.569 222.576 140.007 222.576 137.972V96.9404L215.76 100.876Z" fill="#18064E"/>
<path d="M113.809 149.403C115.276 148.93 116.507 148.267 117.501 147.415L115.371 142.516C113.903 143.699 112.128 144.291 110.046 144.291C108.152 144.291 106.685 143.747 105.644 142.658C104.65 141.569 104.153 140.007 104.153 137.972V117.595H114.945V111.986H104.153V103.753L97.3367 107.689V138.256C97.3367 142.043 98.378 144.954 100.461 146.989C102.543 149.024 105.478 150.042 109.265 150.042C110.827 150.042 112.341 149.829 113.809 149.403Z" fill="#18064E"/>
<path fill-rule="evenodd" clip-rule="evenodd" d="M42.163 117.666L42.1569 117.658C40.6432 115.674 38.7519 114.186 36.483 113.193C34.211 112.152 31.726 111.631 29.028 111.631C25.3833 111.631 22.1173 112.436 19.23 114.045C16.3427 115.654 14.0707 117.903 12.414 120.79C10.8047 123.677 10 127.014 10 130.801C10 134.588 10.8047 137.948 12.414 140.883C14.0707 143.77 16.3427 146.019 19.23 147.628C22.1173 149.237 25.3833 150.042 29.028 150.042C31.8207 150.042 34.3767 149.498 36.696 148.409C39.0153 147.32 40.9323 145.735 42.447 143.652V149.616H48.979V113.723L42.163 117.658V117.666ZM29.596 144.078C31.9627 144.078 34.1163 143.534 36.057 142.445C37.9977 141.309 39.5123 139.747 40.601 137.759C41.6897 135.724 42.234 133.404 42.234 130.801C42.234 128.198 41.6897 125.902 40.601 123.914C39.5123 121.879 37.9977 120.317 36.057 119.228C34.1163 118.139 31.9627 117.595 29.596 117.595C27.182 117.595 25.0047 118.139 23.064 119.228C21.1707 120.317 19.656 121.879 18.52 123.914C17.4313 125.902 16.887 128.198 16.887 130.801C16.887 133.404 17.4313 135.724 18.52 137.759C19.656 139.747 21.1707 141.309 23.064 142.445C25.0047 143.534 27.182 144.078 29.596 144.078Z" fill="#18064E"/>
<path d="M76.1465 150.042C72.3125 150.042 68.8808 149.214 65.8515 147.557C62.8695 145.9 60.5265 143.628 58.8225 140.741C57.1185 137.806 56.2665 134.493 56.2665 130.801C56.2665 127.109 57.1185 123.819 58.8225 120.932C60.5265 117.997 62.8695 115.725 65.8515 114.116C68.8808 112.459 72.3125 111.631 76.1465 111.631C79.5545 111.631 82.5838 112.317 85.2345 113.69C87.9325 115.063 90.0152 117.051 91.4825 119.654L86.2995 122.991C85.1161 121.192 83.6488 119.843 81.8975 118.944C80.1461 118.045 78.2055 117.595 76.0755 117.595C73.6142 117.595 71.3895 118.139 69.4015 119.228C67.4608 120.317 65.9225 121.879 64.7865 123.914C63.6978 125.902 63.1535 128.198 63.1535 130.801C63.1535 133.452 63.6978 135.795 64.7865 137.83C65.9225 139.818 67.4608 141.356 69.4015 142.445C71.3895 143.534 73.6142 144.078 76.0755 144.078C78.2055 144.078 80.1461 143.628 81.8975 142.729C83.6488 141.83 85.1161 140.481 86.2995 138.682L91.4825 141.948C90.0152 144.551 87.9325 146.563 85.2345 147.983C82.5838 149.356 79.5545 150.042 76.1465 150.042Z" fill="#18064E"/>
<path d="M158.647 111.986V149.616H152.186V143.936C150.814 145.877 148.991 147.391 146.719 148.48C144.495 149.521 142.057 150.042 139.406 150.042C134.389 150.042 130.437 148.669 127.549 145.924C124.662 143.131 123.218 139.037 123.218 133.641V111.986H130.034V132.86C130.034 136.505 130.91 139.274 132.661 141.167C134.413 143.013 136.921 143.936 140.187 143.936C143.785 143.936 146.625 142.847 148.707 140.67C150.79 138.493 151.831 135.416 151.831 131.44V111.986H158.647Z" fill="#18064E"/>
<path fill-rule="evenodd" clip-rule="evenodd" d="M204.993 149.616V113.738L198.178 117.673L198.164 117.649C196.652 115.67 194.763 114.184 192.497 113.193C190.225 112.152 187.74 111.631 185.042 111.631C181.398 111.631 178.132 112.436 175.244 114.045C172.357 115.654 170.085 117.903 168.428 120.79C166.819 123.677 166.014 127.014 166.014 130.801C166.014 134.588 166.819 137.948 168.428 140.883C170.085 143.77 172.357 146.019 175.244 147.628C178.132 149.237 181.398 150.042 185.042 150.042C187.835 150.042 190.391 149.498 192.71 148.409C195.03 147.32 196.947 145.735 198.461 143.652V149.616H204.993ZM192.071 142.445C190.131 143.534 187.977 144.078 185.61 144.078C183.196 144.078 181.019 143.534 179.078 142.445C177.185 141.309 175.67 139.747 174.534 137.759C173.446 135.724 172.901 133.404 172.901 130.801C172.901 128.198 173.446 125.902 174.534 123.914C175.67 121.879 177.185 120.317 179.078 119.228C181.019 118.139 183.196 117.595 185.61 117.595C187.977 117.595 190.131 118.139 192.071 119.228C194.012 120.317 195.527 121.879 196.615 123.914C197.704 125.902 198.248 128.198 198.248 130.801C198.248 133.404 197.704 135.724 196.615 137.759C195.527 139.747 194.012 141.309 192.071 142.445Z" fill="#18064E"/>
<defs>
<linearGradient id="paint0_linear_1703_100" x1="89.8403" y1="10.4702" x2="110.84" y2="34.9702" gradientUnits="userSpaceOnUse">
<stop stop-color="#96DBE2"/>
<stop offset="1" stop-color="#08ADA8"/>
</linearGradient>
<linearGradient id="paint1_linear_1703_100" x1="136.34" y1="30.4722" x2="88.3403" y2="85.4722" gradientUnits="userSpaceOnUse">
<stop stop-color="#A0E3BE"/>
<stop offset="1" stop-color="#0AABC4"/>
</linearGradient>
</defs>
</svg>
