<svg width="56" height="57" viewBox="0 0 56 57" fill="none" xmlns="http://www.w3.org/2000/svg">
<g clip-path="url(#clip0_1833_32855)">
<g clip-path="url(#clip1_1833_32855)">
<path d="M42.4555 28.0549C42.1 27.4728 41.6267 26.9714 41.0661 26.5829C40.5055 26.1944 39.8699 25.9274 39.2 25.799V9.83339C39.1985 8.59617 38.7064 7.41005 37.8315 6.5352C36.9567 5.66035 35.7706 5.16821 34.5333 5.16673H26.8072C26.6447 4.88389 26.4106 4.64877 26.1285 4.48495C25.8464 4.32113 25.5262 4.23438 25.2 4.23339H23.9484C23.5632 3.14019 22.8483 2.19344 21.9023 1.52374C20.9563 0.85404 19.8257 0.494385 18.6667 0.494385C17.5076 0.494385 16.3771 0.85404 15.431 1.52374C14.485 2.19344 13.7701 3.14019 13.3849 4.23339H12.1333C11.8071 4.23438 11.4869 4.32113 11.2048 4.48495C10.9227 4.64877 10.6887 4.88389 10.5261 5.16673H4.66667C3.42944 5.16821 2.24332 5.66035 1.36847 6.5352C0.493623 7.41005 0.001482 8.59617 0 9.83339L0 49.0334C0.001482 50.2706 0.493623 51.4567 1.36847 52.3316C2.24332 53.2064 3.42944 53.6986 4.66667 53.7001H21.0551C21.098 53.7878 21.1325 53.8783 21.1811 53.9642C21.6021 54.7354 22.2241 55.3784 22.9809 55.8248C23.7378 56.2713 24.6013 56.5046 25.48 56.5001H51.0627C51.9405 56.5034 52.8029 56.2694 53.5587 55.8229C54.3144 55.3763 54.9354 54.7338 55.356 53.9633C55.8003 53.1812 56.0248 52.2936 56.0059 51.3944C55.987 50.4952 55.7254 49.6178 55.2487 48.8551L42.4555 28.0549ZM37.3333 9.83339V25.799C36.6626 25.9266 36.0264 26.1947 35.4667 26.5858V10.7667C35.4667 10.2717 35.27 9.79686 34.9199 9.44679C34.5699 9.09673 34.0951 8.90006 33.6 8.90006H27.0667V7.03339H34.5333C35.2759 7.03339 35.9881 7.32839 36.5132 7.85349C37.0383 8.3786 37.3333 9.09079 37.3333 9.83339ZM12.1333 6.10006H14.0933C14.3087 6.10032 14.5174 6.02612 14.6843 5.89004C14.8512 5.75396 14.9659 5.56436 15.0089 5.35339C15.1812 4.51045 15.6393 3.75287 16.3058 3.2088C16.9723 2.66473 17.8063 2.36756 18.6667 2.36756C19.527 2.36756 20.361 2.66473 21.0275 3.2088C21.694 3.75287 22.1521 4.51045 22.3244 5.35339C22.3675 5.56436 22.4822 5.75396 22.649 5.89004C22.8159 6.02612 23.0247 6.10032 23.24 6.10006H25.2V9.83339H12.1333V6.10006ZM25.2 11.7001C25.5262 11.6991 25.8464 11.6123 26.1285 11.4485C26.4106 11.2847 26.6447 11.0496 26.8072 10.7667H33.6V28.8333L21.7467 48.1001H5.6V10.7667H10.5261C10.6887 11.0496 10.9227 11.2847 11.2048 11.4485C11.4869 11.6123 11.8071 11.6991 12.1333 11.7001H25.2ZM4.66667 51.8334C3.92406 51.8334 3.21187 51.5384 2.68677 51.0133C2.16167 50.4882 1.86667 49.776 1.86667 49.0334V9.83339C1.86667 9.09079 2.16167 8.3786 2.68677 7.85349C3.21187 7.32839 3.92406 7.03339 4.66667 7.03339H10.2667V8.90006H5.6C5.10493 8.90006 4.63014 9.09673 4.28007 9.44679C3.93 9.79686 3.73333 10.2717 3.73333 10.7667V48.1001C3.73333 48.5951 3.93 49.0699 4.28007 49.42C4.63014 49.7701 5.10493 49.9667 5.6 49.9667H20.7788C20.5839 50.5686 20.5063 51.2023 20.5501 51.8334H4.66667ZM53.7236 53.0533C53.4629 53.5324 53.0776 53.9322 52.6083 54.2103C52.1391 54.4885 51.6035 54.6346 51.058 54.6334H25.48C24.9347 54.6348 24.3993 54.4887 23.9302 54.2107C23.4611 53.9327 23.0759 53.5331 22.8153 53.0542C22.5347 52.561 22.3927 52.001 22.4044 51.4337C22.416 50.8663 22.5809 50.3127 22.8816 49.8314L35.6683 29.0339C35.9387 28.5864 36.32 28.2163 36.7754 27.9595C37.2308 27.7026 37.7448 27.5676 38.2676 27.5676C38.7904 27.5676 39.3044 27.7026 39.7598 27.9595C40.2152 28.2163 40.5965 28.5864 40.8669 29.0339L53.6536 49.8333C53.9545 50.3138 54.1199 50.8668 54.1322 51.4336C54.1445 52.0005 54.0033 52.5601 53.7236 53.0533Z" fill="#8167AB"/>
<path d="M38.2666 31.3C37.5239 31.3 36.8118 31.595 36.2867 32.1202C35.7616 32.6453 35.4666 33.3574 35.4666 34.1V42.5C35.4666 43.2427 35.7616 43.9548 36.2867 44.4799C36.8118 45.005 37.5239 45.3 38.2666 45.3C39.0092 45.3 39.7213 45.005 40.2464 44.4799C40.7716 43.9548 41.0666 43.2427 41.0666 42.5V34.1C41.0666 33.3574 40.7716 32.6453 40.2464 32.1202C39.7213 31.595 39.0092 31.3 38.2666 31.3ZM39.1999 42.5C39.1999 42.7476 39.1016 42.985 38.9265 43.16C38.7515 43.335 38.5141 43.4334 38.2666 43.4334C38.019 43.4334 37.7816 43.335 37.6066 43.16C37.4316 42.985 37.3332 42.7476 37.3332 42.5V34.1C37.3332 33.8525 37.4316 33.6151 37.6066 33.4401C37.7816 33.265 38.019 33.1667 38.2666 33.1667C38.5141 33.1667 38.7515 33.265 38.9265 33.4401C39.1016 33.6151 39.1999 33.8525 39.1999 34.1V42.5Z" fill="#8167AB"/>
<path d="M38.2666 47.1666C37.7128 47.1666 37.1714 47.3308 36.711 47.6385C36.2505 47.9462 35.8916 48.3835 35.6797 48.8951C35.4678 49.4067 35.4123 49.9697 35.5204 50.5129C35.6284 51.056 35.8951 51.5549 36.2867 51.9465C36.6782 52.3381 37.1772 52.6048 37.7203 52.7128C38.2634 52.8209 38.8264 52.7654 39.3381 52.5535C39.8497 52.3416 40.287 51.9827 40.5947 51.5222C40.9023 51.0618 41.0666 50.5204 41.0666 49.9666C41.0666 49.224 40.7716 48.5118 40.2464 47.9867C39.7213 47.4616 39.0092 47.1666 38.2666 47.1666ZM38.2666 50.9C38.082 50.9 37.9015 50.8452 37.748 50.7427C37.5945 50.6401 37.4749 50.4943 37.4043 50.3238C37.3336 50.1533 37.3151 49.9656 37.3512 49.7845C37.3872 49.6035 37.4761 49.4372 37.6066 49.3067C37.7371 49.1761 37.9034 49.0872 38.0845 49.0512C38.2655 49.0152 38.4532 49.0337 38.6237 49.1043C38.7943 49.175 38.94 49.2946 39.0426 49.4481C39.1451 49.6016 39.1999 49.782 39.1999 49.9666C39.1999 50.2142 39.1016 50.4516 38.9265 50.6266C38.7515 50.8016 38.5141 50.9 38.2666 50.9Z" fill="#8167AB"/>
<path d="M18.6667 18.2334H30.8001C31.0476 18.2334 31.285 18.135 31.46 17.96C31.6351 17.785 31.7334 17.5476 31.7334 17.3C31.7334 17.0525 31.6351 16.8151 31.46 16.6401C31.285 16.465 31.0476 16.3667 30.8001 16.3667H18.6667C18.4192 16.3667 18.1818 16.465 18.0068 16.6401C17.8317 16.8151 17.7334 17.0525 17.7334 17.3C17.7334 17.5476 17.8317 17.785 18.0068 17.96C18.1818 18.135 18.4192 18.2334 18.6667 18.2334Z" fill="#8167AB"/>
<path d="M18.6667 21.9666H24.2667C24.5143 21.9666 24.7517 21.8683 24.9267 21.6933C25.1017 21.5182 25.2001 21.2808 25.2001 21.0333C25.2001 20.7858 25.1017 20.5484 24.9267 20.3733C24.7517 20.1983 24.5143 20.1 24.2667 20.1H18.6667C18.4192 20.1 18.1818 20.1983 18.0068 20.3733C17.8317 20.5484 17.7334 20.7858 17.7334 21.0333C17.7334 21.2808 17.8317 21.5182 18.0068 21.6933C18.1818 21.8683 18.4192 21.9666 18.6667 21.9666Z" fill="#8167AB"/>
<path d="M18.6667 28.5H30.8001C31.0476 28.5 31.285 28.4016 31.46 28.2266C31.6351 28.0516 31.7334 27.8142 31.7334 27.5666C31.7334 27.3191 31.6351 27.0817 31.46 26.9067C31.285 26.7316 31.0476 26.6333 30.8001 26.6333H18.6667C18.4192 26.6333 18.1818 26.7316 18.0068 26.9067C17.8317 27.0817 17.7334 27.3191 17.7334 27.5666C17.7334 27.8142 17.8317 28.0516 18.0068 28.2266C18.1818 28.4016 18.4192 28.5 18.6667 28.5Z" fill="#8167AB"/>
<path d="M18.6667 32.2334H24.2667C24.5143 32.2334 24.7517 32.135 24.9267 31.96C25.1017 31.785 25.2001 31.5476 25.2001 31.3C25.2001 31.0525 25.1017 30.8151 24.9267 30.6401C24.7517 30.465 24.5143 30.3667 24.2667 30.3667H18.6667C18.4192 30.3667 18.1818 30.465 18.0068 30.6401C17.8317 30.8151 17.7334 31.0525 17.7334 31.3C17.7334 31.5476 17.8317 31.785 18.0068 31.96C18.1818 32.135 18.4192 32.2334 18.6667 32.2334Z" fill="#8167AB"/>
<path d="M18.6667 38.7667H25.2001C25.4476 38.7667 25.685 38.6684 25.86 38.4933C26.0351 38.3183 26.1334 38.0809 26.1334 37.8334C26.1334 37.5858 26.0351 37.3484 25.86 37.1734C25.685 36.9984 25.4476 36.9 25.2001 36.9H18.6667C18.4192 36.9 18.1818 36.9984 18.0068 37.1734C17.8317 37.3484 17.7334 37.5858 17.7334 37.8334C17.7334 38.0809 17.8317 38.3183 18.0068 38.4933C18.1818 38.6684 18.4192 38.7667 18.6667 38.7667Z" fill="#8167AB"/>
<path d="M18.6667 42.5H22.4001C22.6476 42.5 22.885 42.4016 23.06 42.2266C23.2351 42.0516 23.3334 41.8142 23.3334 41.5666C23.3334 41.3191 23.2351 41.0817 23.06 40.9067C22.885 40.7316 22.6476 40.6333 22.4001 40.6333H18.6667C18.4192 40.6333 18.1818 40.7316 18.0068 40.9067C17.8317 41.0817 17.7334 41.3191 17.7334 41.5666C17.7334 41.8142 17.8317 42.0516 18.0068 42.2266C18.1818 42.4016 18.4192 42.5 18.6667 42.5Z" fill="#8167AB"/>
<path d="M8.67341 20.3735C8.49844 20.5485 8.40015 20.7859 8.40015 21.0334C8.40015 21.2808 8.49844 21.5182 8.67341 21.6932L10.5401 23.5599C10.7151 23.7349 10.9524 23.8333 11.1999 23.8334C11.25 23.8335 11.2999 23.8294 11.3493 23.8212C11.4954 23.7976 11.6338 23.7396 11.7531 23.652C11.8724 23.5644 11.9691 23.4496 12.0353 23.3172L15.7686 15.8506C15.8234 15.7409 15.856 15.6214 15.8647 15.4991C15.8733 15.3768 15.8578 15.254 15.819 15.1377C15.7801 15.0214 15.7188 14.9139 15.6384 14.8213C15.558 14.7287 15.4602 14.6528 15.3505 14.598C15.2408 14.5432 15.1214 14.5106 14.9991 14.502C14.8767 14.4933 14.7539 14.5089 14.6376 14.5477C14.5213 14.5865 14.4138 14.6479 14.3212 14.7282C14.2286 14.8086 14.1527 14.9065 14.0979 15.0162L10.9442 21.3246L9.99315 20.3735C9.81812 20.1985 9.58077 20.1002 9.33328 20.1002C9.08579 20.1002 8.84844 20.1985 8.67341 20.3735Z" fill="#8167AB"/>
<path d="M15.3504 24.8646C15.2408 24.8098 15.1213 24.7771 14.999 24.7684C14.8767 24.7598 14.7538 24.7753 14.6375 24.8141C14.5212 24.853 14.4137 24.9143 14.3211 24.9948C14.2285 25.0752 14.1527 25.173 14.0979 25.2828L10.9442 31.5912L9.99311 30.6401C9.81708 30.4701 9.58132 30.376 9.3366 30.3781C9.09188 30.3803 8.85779 30.4784 8.68474 30.6515C8.5117 30.8245 8.41354 31.0586 8.41141 31.3033C8.40929 31.548 8.50336 31.7838 8.67337 31.9598L10.54 33.8265C10.715 34.0015 10.9524 34.0999 11.1999 34.1C11.2499 34.1001 11.2999 34.096 11.3492 34.0878C11.4954 34.0642 11.6338 34.0062 11.753 33.9186C11.8723 33.831 11.9691 33.7162 12.0352 33.5838L15.7686 26.1172C15.8234 26.0075 15.8561 25.8881 15.8648 25.7657C15.8734 25.6434 15.8579 25.5206 15.8191 25.4043C15.7802 25.2879 15.7189 25.1804 15.6385 25.0878C15.558 24.9952 15.4602 24.9194 15.3504 24.8646Z" fill="#8167AB"/>
<path d="M15.3504 35.1267C15.2408 35.0719 15.1213 35.0392 14.999 35.0305C14.8767 35.0219 14.7538 35.0374 14.6375 35.0762C14.5212 35.1151 14.4137 35.1764 14.3211 35.2568C14.2285 35.3373 14.1527 35.4351 14.0979 35.5449L10.9442 41.8533L9.99311 40.9022C9.81708 40.7322 9.58132 40.6381 9.3366 40.6402C9.09188 40.6424 8.85779 40.7405 8.68474 40.9136C8.5117 41.0866 8.41354 41.3207 8.41141 41.5654C8.40929 41.8101 8.50336 42.0459 8.67337 42.2219L10.54 44.0886C10.6263 44.1761 10.729 44.2457 10.8422 44.2935C10.9555 44.3412 11.077 44.3661 11.1999 44.3667C11.2499 44.3669 11.2999 44.3628 11.3492 44.3546C11.4954 44.331 11.6338 44.273 11.753 44.1853C11.8723 44.0977 11.9691 43.983 12.0352 43.8506L15.7686 36.3839C15.8241 36.274 15.8574 36.1542 15.8665 36.0314C15.8755 35.9085 15.8601 35.7851 15.8213 35.6683C15.7824 35.5514 15.7208 35.4434 15.64 35.3504C15.5592 35.2575 15.4608 35.1815 15.3504 35.1267Z" fill="#8167AB"/>
</g>
</g>
<defs>
<clipPath id="clip0_1833_32855">
<rect width="56" height="56" fill="white" transform="translate(0 0.5)"/>
</clipPath>
<clipPath id="clip1_1833_32855">
<rect width="56" height="56" fill="white" transform="translate(0 0.5)"/>
</clipPath>
</defs>
</svg>
